<?xml version="1.0" encoding="utf-8"?>
<!-- Generator: Adobe Illustrator 17.1.0, SVG Export Plug-In . SVG Version: 6.00 Build 0)  -->
<!DOCTYPE svg PUBLIC "-//W3C//DTD SVG 1.1//EN" "http://www.w3.org/Graphics/SVG/1.1/DTD/svg11.dtd">
<svg version="1.1" id="Calque_1" xmlns="http://www.w3.org/2000/svg" xmlns:xlink="http://www.w3.org/1999/xlink" x="0px" y="0px"
	 viewBox="0 0 100 100" enable-background="new 0 0 100 100" xml:space="preserve">
<circle fill="none" stroke="#568DCB" stroke-linecap="round" stroke-linejoin="round" stroke-miterlimit="10" cx="49.495" cy="49.807" r="21.417"/>
<path fill="none" stroke="#568DCB" stroke-linecap="round" stroke-linejoin="round" stroke-miterlimit="10" d="M44.481,28.982
	l2.769,0.643c0,0-1.063,6.188-0.5,7.75c0.562,1.562,2.668-0.375-0.885,2.375c-3.553,2.75-6.053,4.312-6.615,4.688
	c-0.563,0.375-0.688,1.75-0.438,1.938s1-0.375,0.938,0.812C39.687,48.375,38.937,50.5,39,51.5c0.062,1,4.01,5.562,4.286,5.75
	c0.276,0.188,2.401,0.812,2.276,1.375s-2.937,3.75-3.25,4.688C42,64.25,41.437,65.5,41.062,66.25s-0.312,1.375-0.437,1.688
	s-0.578,1.093-0.578,1.093"/>
<path fill="none" stroke="#568DCB" stroke-linecap="round" stroke-linejoin="round" stroke-miterlimit="10" d="M28.185,47.675
	c0,0,1.878,2.612,4.628,0c2.188,1.325,5,2.388,3,4.45s-5.312,5.125-4.875,6.5C31.375,60,37.437,67,40,66.938"/>
<path fill="none" stroke="#568DCB" stroke-linecap="round" stroke-linejoin="round" stroke-miterlimit="10" d="M53.083,33.062
	c0.23,1,0.917,1.625-0.458,3.125s-0.938,2.125-0.688,3.625s0.939,2.25,0.626,3.188c-0.313,0.938-0.501,0.875-0.563,1.688
	c-0.063,0.812,4,2,3.125-4.562s-0.71-6.688-2.042-7.312"/>
<path fill="none" stroke="#568DCB" stroke-linecap="round" stroke-linejoin="round" stroke-miterlimit="10" d="M64.062,34.688
	c0,0-6.062,1.625-4.687,5.25s1.687,2.938,0.687,4.5s-1.75,2.438-2.75,2.875s-1.937-0.062-2.75,1.188
	c-0.812,1.25-1.958,1.688-1.104,2.75c0.854,1.062,1.917,1.938,2.729,2C57,53.312,57.5,53.125,57.25,53.812s-0.563,0.5-1.688,2.562
	s-2.125,3.625-1.375,4.5s1.438,2.188,2.125,1.875c0.688-0.312,1.969-0.688,2.297-2.125c0.328-1.438,0.391-2.45,0.516-3.319
	s-1.313-2.744,0.312-2.369s1.875,0.125,2.688,1.688c0.812,1.562,1.187,2.312,1.937,2.688c0.75,0.375,1.5,0.938,2.5,0.438
	s1.388-0.156,2.288-0.766"/>
</svg>
