<?xml version="1.0" encoding="utf-8"?>
<!-- Generator: Adobe Illustrator 17.1.0, SVG Export Plug-In . SVG Version: 6.00 Build 0)  -->
<!DOCTYPE svg PUBLIC "-//W3C//DTD SVG 1.1//EN" "http://www.w3.org/Graphics/SVG/1.1/DTD/svg11.dtd">
<svg version="1.1" id="Calque_1" xmlns="http://www.w3.org/2000/svg" xmlns:xlink="http://www.w3.org/1999/xlink" x="0px" y="0px"
	 viewBox="0 0 100 100" enable-background="new 0 0 100 100" xml:space="preserve">
<path fill="none" stroke="#568DCB" stroke-linecap="round" stroke-linejoin="round" stroke-miterlimit="10" d="M46.688,41.25H32.586
	c-1.782,0-3.383,1.169-3.846,2.889C28.258,45.928,28,47.809,28,49.75c0,12.351,10.375,22.279,22.885,21.545
	c10.566-0.62,19.266-9.057,20.196-19.6c0.231-2.62-0.011-5.152-0.645-7.522c-0.464-1.734-2.064-2.923-3.859-2.923H52.458"/>
<path fill="none" stroke="#568DCB" stroke-linecap="round" stroke-linejoin="round" stroke-miterlimit="10" d="M44.25,44.625h-8.203
	c-1.419,0-2.694,0.931-3.063,2.301c-0.384,1.425-0.589,2.922-0.589,4.468c0,3.511,1.053,6.776,2.86,9.497"/>
<path fill="none" stroke="#568DCB" stroke-linecap="round" stroke-linejoin="round" stroke-miterlimit="10" d="M63.456,61.513
	c1.8-2.452,2.968-5.39,3.248-8.57c0.184-2.087-0.008-4.103-0.514-5.991c-0.37-1.381-1.644-2.328-3.073-2.328h-8.523"/>
<path fill="none" stroke="#568DCB" stroke-linecap="round" stroke-linejoin="round" stroke-miterlimit="10" d="M52.396,41.869
	V31.378c0-1.538-1.247-2.784-2.784-2.784h-0.056c-1.538,0-2.784,1.247-2.784,2.784v10.491c0,0.408-0.185,0.807-0.525,1.032
	c-1.43,0.946-2.381,2.553-2.381,4.396v11.542c0,3.127,2.535,5.662,5.662,5.662h0.114c3.127,0,5.662-2.535,5.662-5.662V47.297
	c0-1.843-0.951-3.45-2.381-4.396C52.58,42.676,52.396,42.277,52.396,41.869z"/>
<line fill="none" stroke="#568DCB" stroke-linecap="round" stroke-linejoin="round" stroke-miterlimit="10" x1="43.75" y1="47.281" x2="41.094" y2="47.281"/>
<line fill="none" stroke="#568DCB" stroke-linecap="round" stroke-linejoin="round" stroke-miterlimit="10" x1="43.75" y1="50.25" x2="41.094" y2="50.25"/>
<line fill="none" stroke="#568DCB" stroke-linecap="round" stroke-linejoin="round" stroke-miterlimit="10" x1="43.75" y1="53.219" x2="41.094" y2="53.219"/>
<line fill="none" stroke="#568DCB" stroke-linecap="round" stroke-linejoin="round" stroke-miterlimit="10" x1="43.75" y1="56.188" x2="41.094" y2="56.188"/>
<line fill="none" stroke="#568DCB" stroke-linecap="round" stroke-linejoin="round" stroke-miterlimit="10" x1="43.75" y1="59.156" x2="41.094" y2="59.156"/>
<line fill="none" stroke="#568DCB" stroke-linecap="round" stroke-linejoin="round" stroke-miterlimit="10" x1="58.094" y1="47.281" x2="55.438" y2="47.281"/>
<line fill="none" stroke="#568DCB" stroke-linecap="round" stroke-linejoin="round" stroke-miterlimit="10" x1="58.094" y1="50.25" x2="55.438" y2="50.25"/>
<line fill="none" stroke="#568DCB" stroke-linecap="round" stroke-linejoin="round" stroke-miterlimit="10" x1="58.094" y1="53.219" x2="55.438" y2="53.219"/>
<line fill="none" stroke="#568DCB" stroke-linecap="round" stroke-linejoin="round" stroke-miterlimit="10" x1="58.094" y1="56.188" x2="55.438" y2="56.188"/>
<line fill="none" stroke="#568DCB" stroke-linecap="round" stroke-linejoin="round" stroke-miterlimit="10" x1="58.094" y1="59.156" x2="55.438" y2="59.156"/>
<line fill="none" stroke="#568DCB" stroke-linecap="round" stroke-linejoin="round" stroke-miterlimit="10" x1="44.375" y1="61.375" x2="41.688" y2="62.656"/>
<line fill="none" stroke="#568DCB" stroke-linecap="round" stroke-linejoin="round" stroke-miterlimit="10" x1="45.777" y1="63.323" x2="43.882" y2="65.62"/>
<line fill="none" stroke="#568DCB" stroke-linecap="round" stroke-linejoin="round" stroke-miterlimit="10" x1="47.87" y1="64.496" x2="47.124" y2="67.378"/>
<line fill="none" stroke="#568DCB" stroke-linecap="round" stroke-linejoin="round" stroke-miterlimit="10" x1="50.263" y1="64.674" x2="50.805" y2="67.601"/>
<line fill="none" stroke="#568DCB" stroke-linecap="round" stroke-linejoin="round" stroke-miterlimit="10" x1="52.508" y1="63.824" x2="54.236" y2="66.248"/>
<line fill="none" stroke="#568DCB" stroke-linecap="round" stroke-linejoin="round" stroke-miterlimit="10" x1="54.432" y1="62.137" x2="57.023" y2="63.603"/>
</svg>
