<?xml version="1.0" encoding="utf-8"?>
<!-- Generator: Adobe Illustrator 17.1.0, SVG Export Plug-In . SVG Version: 6.00 Build 0)  -->
<!DOCTYPE svg PUBLIC "-//W3C//DTD SVG 1.1//EN" "http://www.w3.org/Graphics/SVG/1.1/DTD/svg11.dtd">
<svg version="1.1" id="Calque_1" xmlns="http://www.w3.org/2000/svg" xmlns:xlink="http://www.w3.org/1999/xlink" x="0px" y="0px"
	 viewBox="0 0 100 100" enable-background="new 0 0 100 100" xml:space="preserve">
<path fill="none" stroke="#568DCB" stroke-linecap="round" stroke-linejoin="round" stroke-miterlimit="10" d="M39.016,67.708
	c0,0.289,0.152,0.56,0.403,0.703c3.082,1.755,6.635,2.774,10.435,2.774c3.999,0,7.728-1.125,10.918-3.053
	c0.241-0.146,0.386-0.412,0.386-0.693v-34.84c0-0.282-0.145-0.547-0.386-0.693c-3.189-1.928-6.919-3.053-10.918-3.053
	c-3.8,0-7.353,1.02-10.435,2.774c-0.251,0.143-0.403,0.414-0.403,0.703V67.708z"/>
<path fill="none" stroke="#568DCB" stroke-linecap="round" stroke-linejoin="round" stroke-miterlimit="10" d="M57.742,45.75H41.925
	c-0.442,0-0.8-0.358-0.8-0.8v-9.692c0-0.442,0.358-0.8,0.8-0.8h15.817c0.442,0,0.8,0.358,0.8,0.8v9.692
	C58.542,45.392,58.183,45.75,57.742,45.75z"/>
<path fill="none" stroke="#568DCB" stroke-linecap="round" stroke-linejoin="round" stroke-miterlimit="10" d="M44.367,52.5h-2.442
	c-0.442,0-0.8-0.358-0.8-0.8v-2.442c0-0.442,0.358-0.8,0.8-0.8h2.442c0.442,0,0.8,0.358,0.8,0.8V51.7
	C45.167,52.142,44.808,52.5,44.367,52.5z"/>
<path fill="none" stroke="#568DCB" stroke-linecap="round" stroke-linejoin="round" stroke-miterlimit="10" d="M51.054,52.5h-2.442
	c-0.442,0-0.8-0.358-0.8-0.8v-2.442c0-0.442,0.358-0.8,0.8-0.8h2.442c0.442,0,0.8,0.358,0.8,0.8V51.7
	C51.854,52.142,51.496,52.5,51.054,52.5z"/>
<path fill="none" stroke="#568DCB" stroke-linecap="round" stroke-linejoin="round" stroke-miterlimit="10" d="M57.742,52.5H55.3
	c-0.442,0-0.8-0.358-0.8-0.8v-2.442c0-0.442,0.358-0.8,0.8-0.8h2.442c0.442,0,0.8,0.358,0.8,0.8V51.7
	C58.542,52.142,58.183,52.5,57.742,52.5z"/>
<path fill="none" stroke="#568DCB" stroke-linecap="round" stroke-linejoin="round" stroke-miterlimit="10" d="M44.367,59.208
	h-2.442c-0.442,0-0.8-0.358-0.8-0.8v-2.442c0-0.442,0.358-0.8,0.8-0.8h2.442c0.442,0,0.8,0.358,0.8,0.8v2.442
	C45.167,58.85,44.808,59.208,44.367,59.208z"/>
<path fill="none" stroke="#568DCB" stroke-linecap="round" stroke-linejoin="round" stroke-miterlimit="10" d="M51.054,59.208
	h-2.442c-0.442,0-0.8-0.358-0.8-0.8v-2.442c0-0.442,0.358-0.8,0.8-0.8h2.442c0.442,0,0.8,0.358,0.8,0.8v2.442
	C51.854,58.85,51.496,59.208,51.054,59.208z"/>
<path fill="none" stroke="#568DCB" stroke-linecap="round" stroke-linejoin="round" stroke-miterlimit="10" d="M57.742,59.208H55.3
	c-0.442,0-0.8-0.358-0.8-0.8v-2.442c0-0.442,0.358-0.8,0.8-0.8h2.442c0.442,0,0.8,0.358,0.8,0.8v2.442
	C58.542,58.85,58.183,59.208,57.742,59.208z"/>
<path fill="none" stroke="#568DCB" stroke-linecap="round" stroke-linejoin="round" stroke-miterlimit="10" d="M51.054,65.917
	h-9.129c-0.442,0-0.8-0.358-0.8-0.8v-2.442c0-0.442,0.358-0.8,0.8-0.8h9.129c0.442,0,0.8,0.358,0.8,0.8v2.442
	C51.854,65.558,51.496,65.917,51.054,65.917z"/>
<path fill="none" stroke="#568DCB" stroke-linecap="round" stroke-linejoin="round" stroke-miterlimit="10" d="M57.742,65.917H55.3
	c-0.442,0-0.8-0.358-0.8-0.8v-2.442c0-0.442,0.358-0.8,0.8-0.8h2.442c0.442,0,0.8,0.358,0.8,0.8v2.442
	C58.542,65.558,58.183,65.917,57.742,65.917z"/>
</svg>
