<?xml version="1.0" encoding="utf-8"?>
<!-- Generator: Adobe Illustrator 17.1.0, SVG Export Plug-In . SVG Version: 6.00 Build 0)  -->
<!DOCTYPE svg PUBLIC "-//W3C//DTD SVG 1.1//EN" "http://www.w3.org/Graphics/SVG/1.1/DTD/svg11.dtd">
<svg version="1.1" id="Calque_1" xmlns="http://www.w3.org/2000/svg" xmlns:xlink="http://www.w3.org/1999/xlink" x="0px" y="0px"
	 viewBox="39.3 28.6 21.5 42.7" enable-background="new 39.3 28.6 21.5 42.7" xml:space="preserve">
<g>
	<path fill="none" stroke="#0078FF" stroke-linecap="round" stroke-linejoin="round" stroke-miterlimit="10" d="M46.3,29.6
		c2-0.4,4.9-0.7,7.5-0.2c1.2,0.2,1.9,1.5,1.4,2.7c-0.6,1.6-1,2.7-1.3,3.5s-1,1.3-1.9,1.3h-4c-0.8,0-1.6-0.5-1.9-1.3l-1.3-3.3
		C44.4,31.1,45.1,29.8,46.3,29.6z"/>
	<path fill="none" stroke="#0078FF" stroke-linecap="round" stroke-linejoin="round" stroke-miterlimit="10" d="M52.7,36.8l7.4,20.4
		c0.3,0.8,0.1,2.1-0.4,2.8l-7.3,9.6c-1.3,1.7-3.5,1.7-4.8,0L40.3,60c-0.5-0.7-0.7-2-0.4-2.8l7.5-20.4"/>
</g>
</svg>
