<?xml version="1.0" encoding="utf-8"?>
<!-- Generator: Adobe Illustrator 17.1.0, SVG Export Plug-In . SVG Version: 6.00 Build 0)  -->
<!DOCTYPE svg PUBLIC "-//W3C//DTD SVG 1.1//EN" "http://www.w3.org/Graphics/SVG/1.1/DTD/svg11.dtd">
<svg version="1.1" id="Calque_1" xmlns="http://www.w3.org/2000/svg" xmlns:xlink="http://www.w3.org/1999/xlink" x="0px" y="0px"
	 viewBox="0 0 100 100" enable-background="new 0 0 100 100" xml:space="preserve">
<path fill="none" stroke="#568DCB" stroke-linecap="round" stroke-linejoin="round" stroke-miterlimit="10" d="M45.458,29.966
	c1.992-0.374,4.94-0.722,7.492-0.206c1.204,0.243,1.887,1.535,1.447,2.683c-0.612,1.598-1.049,2.749-1.342,3.523
	c-0.294,0.778-1.036,1.284-1.867,1.284h-4.052c-0.825,0-1.565-0.506-1.864-1.275l-1.292-3.321
	C43.529,31.493,44.234,30.196,45.458,29.966z"/>
<path fill="none" stroke="#568DCB" stroke-linecap="round" stroke-linejoin="round" stroke-miterlimit="10" d="M51.818,37.149
	l7.428,20.437c0.308,0.846,0.113,2.125-0.432,2.841l-7.274,9.56c-1.313,1.726-3.462,1.726-4.775,0l-7.273-9.558
	c-0.546-0.717-0.74-1.998-0.431-2.845l7.453-20.436"/>
</svg>
