<?xml version="1.0" encoding="utf-8"?>
<!-- Generator: Adobe Illustrator 17.1.0, SVG Export Plug-In . SVG Version: 6.00 Build 0)  -->
<!DOCTYPE svg PUBLIC "-//W3C//DTD SVG 1.1//EN" "http://www.w3.org/Graphics/SVG/1.1/DTD/svg11.dtd">
<svg version="1.1" id="Calque_1" xmlns="http://www.w3.org/2000/svg" xmlns:xlink="http://www.w3.org/1999/xlink" x="0px" y="0px"
	 viewBox="0 0 100 100" enable-background="new 0 0 100 100" xml:space="preserve">
<g>
	
		<ellipse fill="none" stroke="#568DCB" stroke-linecap="round" stroke-linejoin="round" stroke-miterlimit="10" cx="50" cy="37" rx="16.4" ry="7.6"/>
	<path fill="none" stroke="#568DCB" stroke-linecap="round" stroke-linejoin="round" stroke-miterlimit="10" d="M33.9,38.4
		c0,0,4.7,10.7,3.9,20.8c0,0.3,0.2,0.7,0.4,0.9c1.9,1.3,5.7,3.2,11.8,3.2"/>
	<path fill="none" stroke="#568DCB" stroke-linecap="round" stroke-linejoin="round" stroke-miterlimit="10" d="M66.1,38.4
		c0,0-4.7,10.7-3.9,20.8c0,0.3-0.2,0.7-0.4,0.9c-1.9,1.3-5.7,3.2-11.8,3.2"/>
	<path fill="none" stroke="#568DCB" stroke-linecap="round" stroke-linejoin="round" stroke-miterlimit="10" d="M62.4,52.5
		c0,0,5.3-0.1,5.4,5.3S63.3,70.6,50,70.6s-18-7.5-17.8-12.9s5.4-5.3,5.4-5.3"/>
	<path fill="none" stroke="#568DCB" stroke-linecap="round" stroke-linejoin="round" stroke-miterlimit="10" d="M37.3,50.3
		c0,0,12.3,7.7,25.3,0.6"/>
	<path fill="none" stroke="#568DCB" stroke-linecap="round" stroke-linejoin="round" stroke-miterlimit="10" d="M37.8,54.9
		c0,0,11.3,8,24.3,0.8"/>
</g>
</svg>
