<?xml version="1.0" encoding="utf-8"?>
<!-- Generator: Adobe Illustrator 17.1.0, SVG Export Plug-In . SVG Version: 6.00 Build 0)  -->
<!DOCTYPE svg PUBLIC "-//W3C//DTD SVG 1.1//EN" "http://www.w3.org/Graphics/SVG/1.1/DTD/svg11.dtd">
<svg version="1.1" id="Calque_1" xmlns="http://www.w3.org/2000/svg" xmlns:xlink="http://www.w3.org/1999/xlink" x="0px" y="0px"
	 viewBox="0 0 100 100" enable-background="new 0 0 100 100" xml:space="preserve">
<ellipse fill="none" stroke="#568DCB" stroke-linecap="round" stroke-linejoin="round" stroke-miterlimit="10" cx="49.153" cy="36.75" rx="16.41" ry="7.625"/>
<path fill="none" stroke="#568DCB" stroke-linecap="round" stroke-linejoin="round" stroke-miterlimit="10" d="M33.024,38.154
	c0,0,4.732,10.749,3.904,20.778c-0.027,0.321,0.159,0.726,0.426,0.907c1.896,1.287,5.705,3.223,11.799,3.223"/>
<path fill="none" stroke="#568DCB" stroke-linecap="round" stroke-linejoin="round" stroke-miterlimit="10" d="M65.281,38.154
	c0,0-4.732,10.749-3.904,20.778c0.027,0.321-0.159,0.726-0.426,0.907c-1.896,1.287-5.705,3.223-11.799,3.223"/>
<path fill="none" stroke="#568DCB" stroke-linecap="round" stroke-linejoin="round" stroke-miterlimit="10" d="M61.547,52.172
	c0,0,5.321-0.109,5.446,5.266S62.5,70.312,49.153,70.312s-17.965-7.5-17.84-12.875s5.446-5.266,5.446-5.266"/>
<path fill="none" stroke="#568DCB" stroke-linecap="round" stroke-linejoin="round" stroke-miterlimit="10" d="M36.453,50.039
	c0,0,12.255,7.74,25.308,0.569"/>
<path fill="none" stroke="#568DCB" stroke-linecap="round" stroke-linejoin="round" stroke-miterlimit="10" d="M36.972,54.619
	c0,0,11.272,7.988,24.325,0.817"/>
</svg>
