<?xml version="1.0" encoding="utf-8"?>
<!-- Generator: Adobe Illustrator 17.1.0, SVG Export Plug-In . SVG Version: 6.00 Build 0)  -->
<!DOCTYPE svg PUBLIC "-//W3C//DTD SVG 1.1//EN" "http://www.w3.org/Graphics/SVG/1.1/DTD/svg11.dtd">
<svg version="1.1" id="Calque_1" xmlns="http://www.w3.org/2000/svg" xmlns:xlink="http://www.w3.org/1999/xlink" x="0px" y="0px"
	 viewBox="0 0 100 100" enable-background="new 0 0 100 100" xml:space="preserve">
<path fill="none" stroke="#568DCB" stroke-linecap="round" stroke-linejoin="round" stroke-miterlimit="10" d="M28.75,46.875
	l1.937,0.812c0,0,4.063-8.625,7.5-10.625C37.5,36.375,35.5,34.625,35.5,34.625"/>
<path fill="none" stroke="#568DCB" stroke-linecap="round" stroke-linejoin="round" stroke-miterlimit="10" d="M35.609,39.513
	c0,0-0.359,0.575,3.641,0s6.5-0.638,10.812,2.425"/>
<path fill="none" stroke="#568DCB" stroke-linecap="round" stroke-linejoin="round" stroke-miterlimit="10" d="M64.062,40.57
	c0,0-1.187,2.242-6.437,1.867s-9.874-1.875-12.458,5.438s2.247,8.062,3.727,4.312s1.042-4.497,4.793-2.5
	c3.756,2,10.139,1.874,12.563,1.063"/>
<path fill="none" stroke="#568DCB" stroke-linecap="round" stroke-linejoin="round" stroke-miterlimit="10" d="M66.25,37.312
	l-2.813,1.125c0,0,3.313,11.312,3.125,14.75c1.75-0.188,3.875-0.375,3.875-0.375"/>
<path fill="none" stroke="#568DCB" stroke-linecap="round" stroke-linejoin="round" stroke-miterlimit="10" d="M31.057,46.935
	c0,0,3.881,2.44,5.006,4.565"/>
<circle fill="none" stroke="#568DCB" stroke-linecap="round" stroke-linejoin="round" stroke-miterlimit="10" cx="36.062" cy="53.858" r="1.812"/>
<circle fill="none" stroke="#568DCB" stroke-linecap="round" stroke-linejoin="round" stroke-miterlimit="10" cx="38.969" cy="57.115" r="1.812"/>
<circle fill="none" stroke="#568DCB" stroke-linecap="round" stroke-linejoin="round" stroke-miterlimit="10" cx="42.256" cy="60.186" r="1.812"/>
<circle fill="none" stroke="#568DCB" stroke-linecap="round" stroke-linejoin="round" stroke-miterlimit="10" cx="45.487" cy="63.122" r="1.812"/>
<path fill="none" stroke="#568DCB" stroke-linecap="round" stroke-linejoin="round" stroke-miterlimit="10" d="M49.75,60.17
	c0,0,6.156,3.455,6-1.242"/>
<path fill="none" stroke="#568DCB" stroke-linecap="round" stroke-linejoin="round" stroke-miterlimit="10" d="M52.75,57.115
	c0,0,5.937,4.26,6.312-1.178"/>
<path fill="none" stroke="#568DCB" stroke-linecap="round" stroke-linejoin="round" stroke-miterlimit="10" d="M57.062,53.858
	c0,0,4.25,5.069,5.625-2.358"/>
<path fill="none" stroke="#568DCB" stroke-linecap="round" stroke-linejoin="round" stroke-miterlimit="10" d="M47.625,63.122
	c0,0,3.668,2.691,4.115-2.091"/>
</svg>
