<?xml version="1.0" encoding="utf-8"?>
<!-- Generator: Adobe Illustrator 17.1.0, SVG Export Plug-In . SVG Version: 6.00 Build 0)  -->
<!DOCTYPE svg PUBLIC "-//W3C//DTD SVG 1.1//EN" "http://www.w3.org/Graphics/SVG/1.1/DTD/svg11.dtd">
<svg version="1.1" id="Calque_1" xmlns="http://www.w3.org/2000/svg" xmlns:xlink="http://www.w3.org/1999/xlink" x="0px" y="0px"
	 viewBox="0 0 100 100" enable-background="new 0 0 100 100" xml:space="preserve">
<path fill="none" stroke="#568DCB" stroke-miterlimit="10" d="M53.469,40.625v-7.958h-0.01c0-1.91-1.548-3.458-3.458-3.458
	s-3.458,1.548-3.458,3.458h0.005v8.042h-0.005v8.646h0.01c0,1.91,1.548,3.458,3.458,3.458s3.458-1.548,3.458-3.458h-0.005v-8.729
	H53.469z"/>
<circle fill="none" stroke="#568DCB" stroke-miterlimit="10" cx="50.042" cy="49.25" r="0.958"/>
<path fill="none" stroke="#568DCB" stroke-miterlimit="10" d="M46.375,44.327H31.391c-0.958,0-1.789,0.677-1.971,1.618
	c-0.311,1.618-0.437,3.301-0.354,5.028c0.51,10.629,9.174,19.354,19.8,19.932c12.131,0.661,22.175-8.981,22.175-20.968
	c0-1.578-0.16-2.822-0.482-4.139c-0.221-0.904-1.02-1.548-1.95-1.548H53.312"/>
<line fill="none" stroke="#568DCB" stroke-linecap="round" stroke-miterlimit="10" x1="31" y1="49.062" x2="44.687" y2="49.062"/>
<line fill="none" stroke="#568DCB" stroke-linecap="round" stroke-miterlimit="10" x1="55.5" y1="49.062" x2="69.187" y2="49.062"/>
<line fill="none" stroke="#568DCB" stroke-linecap="round" stroke-miterlimit="10" x1="32.062" y1="54" x2="46.75" y2="54"/>
<line fill="none" stroke="#568DCB" stroke-linecap="round" stroke-miterlimit="10" x1="53.104" y1="54" x2="67.792" y2="54"/>
<line fill="none" stroke="#568DCB" stroke-linecap="round" stroke-miterlimit="10" x1="33.167" y1="58.875" x2="66.875" y2="58.875"/>
<line fill="none" stroke="#568DCB" stroke-linecap="round" stroke-miterlimit="10" x1="38.187" y1="63.75" x2="61.125" y2="63.75"/>
<line fill="none" stroke="#568DCB" stroke-linecap="round" stroke-miterlimit="10" x1="43.812" y1="67.438" x2="55.5" y2="67.438"/>
<line fill="none" stroke="#568DCB" stroke-linecap="round" stroke-miterlimit="10" x1="34.312" y1="45.875" x2="34.312" y2="60.042"/>
<line fill="none" stroke="#568DCB" stroke-linecap="round" stroke-miterlimit="10" x1="42.125" y1="45.875" x2="42.125" y2="66.438"/>
<line fill="none" stroke="#568DCB" stroke-linecap="round" stroke-miterlimit="10" x1="49.937" y1="54.5" x2="49.937" y2="68"/>
<line fill="none" stroke="#568DCB" stroke-linecap="round" stroke-miterlimit="10" x1="57.75" y1="45.875" x2="57.75" y2="66.5"/>
<line fill="none" stroke="#568DCB" stroke-linecap="round" stroke-miterlimit="10" x1="65.562" y1="45.875" x2="65.562" y2="59.833"/>
</svg>
