<?xml version="1.0" encoding="utf-8"?>
<!-- Generator: Adobe Illustrator 17.1.0, SVG Export Plug-In . SVG Version: 6.00 Build 0)  -->
<!DOCTYPE svg PUBLIC "-//W3C//DTD SVG 1.1//EN" "http://www.w3.org/Graphics/SVG/1.1/DTD/svg11.dtd">
<svg version="1.1" id="Calque_1" xmlns="http://www.w3.org/2000/svg" xmlns:xlink="http://www.w3.org/1999/xlink" x="0px" y="0px"
	 viewBox="0 0 100 100" enable-background="new 0 0 100 100" xml:space="preserve">
<path fill="none" stroke="#568DCB" stroke-linecap="round" stroke-linejoin="round" stroke-miterlimit="10" d="M30.438,41.75h13.191
	c0.942,0,1.705-0.763,1.705-1.705V29.696C38.668,31.124,33.175,35.679,30.438,41.75z"/>
<path fill="none" stroke="#568DCB" stroke-linecap="round" stroke-linejoin="round" stroke-miterlimit="10" d="M67.667,40.045
	v-1.062c-3.781-5.87-10.361-9.768-17.863-9.768c-1.535,0-3.028,0.171-4.47,0.48v10.349c0,0.942,0.763,1.705,1.705,1.705h18.923
	C66.903,41.75,67.667,40.987,67.667,40.045z"/>
<path fill="none" stroke="#568DCB" stroke-linecap="round" stroke-linejoin="round" stroke-miterlimit="10" d="M58.5,43.455v13.506
	c0,0.942,0.763,1.705,1.705,1.705h9.204c1.057-2.524,1.644-5.293,1.644-8.201c0-3.109-0.684-6.054-1.884-8.716h-8.965
	C59.263,41.75,58.5,42.513,58.5,43.455z"/>
<path fill="none" stroke="#568DCB" stroke-linecap="round" stroke-linejoin="round" stroke-miterlimit="10" d="M56.795,41.75H34.872
	c-0.942,0-1.705,0.763-1.705,1.705v13.506c0,0.942,0.763,1.705,1.705,1.705h21.923c0.942,0,1.705-0.763,1.705-1.705V43.455
	C58.5,42.513,57.737,41.75,56.795,41.75z"/>
<path fill="none" stroke="#568DCB" stroke-linecap="round" stroke-linejoin="round" stroke-miterlimit="10" d="M30.198,58.667h1.264
	c0.942,0,1.705-0.763,1.705-1.705V43.455c0-0.942-0.763-1.705-1.705-1.705h-1.024c-1.2,2.662-1.884,5.606-1.884,8.716
	C28.553,53.373,29.141,56.143,30.198,58.667z"/>
<path fill="none" stroke="#568DCB" stroke-linecap="round" stroke-linejoin="round" stroke-miterlimit="10" d="M69.409,58.667
	h-1.204c-0.942,0-1.705,0.763-1.705,1.705v3.211C67.675,62.089,68.665,60.444,69.409,58.667z"/>
<path fill="none" stroke="#568DCB" stroke-linecap="round" stroke-linejoin="round" stroke-miterlimit="10" d="M49.803,71.716
	c6.781,0,12.806-3.187,16.697-8.133v-3.211c0-0.942-0.763-1.705-1.705-1.705H42.872c-0.942,0-1.705,0.763-1.705,1.705v9.498
	C43.808,71.047,46.725,71.716,49.803,71.716z"/>
<path fill="none" stroke="#568DCB" stroke-linecap="round" stroke-linejoin="round" stroke-miterlimit="10" d="M39.462,58.667
	h-9.264c2.09,4.991,6.036,9.003,10.969,11.203v-9.498C41.167,59.43,40.403,58.667,39.462,58.667z"/>
<circle fill="none" stroke="#568DCB" stroke-linecap="round" stroke-linejoin="round" stroke-miterlimit="10" cx="49.804" cy="50.466" r="21.25"/>
</svg>
