<?xml version="1.0" encoding="utf-8"?>
<!-- Generator: Adobe Illustrator 17.1.0, SVG Export Plug-In . SVG Version: 6.00 Build 0)  -->
<!DOCTYPE svg PUBLIC "-//W3C//DTD SVG 1.1//EN" "http://www.w3.org/Graphics/SVG/1.1/DTD/svg11.dtd">
<svg version="1.1" id="Calque_1" xmlns="http://www.w3.org/2000/svg" xmlns:xlink="http://www.w3.org/1999/xlink" x="0px" y="0px"
	 viewBox="0 0 100 100" enable-background="new 0 0 100 100" xml:space="preserve">
<g>
	<path fill="none" stroke="#568DCB" stroke-linecap="round" stroke-linejoin="round" stroke-miterlimit="10" d="M30.6,41.3h13.2
		c0.9,0,1.7-0.8,1.7-1.7V29.2C38.9,30.7,33.4,35.2,30.6,41.3z"/>
	<path fill="none" stroke="#568DCB" stroke-linecap="round" stroke-linejoin="round" stroke-miterlimit="10" d="M67.9,39.6v-1.1
		c-3.8-5.9-10.4-9.8-17.9-9.8c-1.5,0-3,0.2-4.5,0.5v10.3c0,0.9,0.8,1.7,1.7,1.7h18.9C67.1,41.3,67.9,40.5,67.9,39.6z"/>
	<path fill="none" stroke="#568DCB" stroke-linecap="round" stroke-linejoin="round" stroke-miterlimit="10" d="M58.7,43v13.5
		c0,0.9,0.8,1.7,1.7,1.7h9.2c1.1-2.5,1.6-5.3,1.6-8.2c0-3.1-0.7-6.1-1.9-8.7h-9C59.5,41.3,58.7,42,58.7,43z"/>
	<path fill="none" stroke="#568DCB" stroke-linecap="round" stroke-linejoin="round" stroke-miterlimit="10" d="M57,41.3H35.1
		c-0.9,0-1.7,0.8-1.7,1.7v13.5c0,0.9,0.8,1.7,1.7,1.7H57c0.9,0,1.7-0.8,1.7-1.7V43C58.7,42,57.9,41.3,57,41.3z"/>
	<path fill="none" stroke="#568DCB" stroke-linecap="round" stroke-linejoin="round" stroke-miterlimit="10" d="M30.4,58.2h1.3
		c0.9,0,1.7-0.8,1.7-1.7V43c0-0.9-0.8-1.7-1.7-1.7h-1c-1.2,2.7-1.9,5.6-1.9,8.7C28.7,52.9,29.3,55.7,30.4,58.2z"/>
	<path fill="none" stroke="#568DCB" stroke-linecap="round" stroke-linejoin="round" stroke-miterlimit="10" d="M69.6,58.2h-1.2
		c-0.9,0-1.7,0.8-1.7,1.7v3.2C67.9,61.6,68.9,60,69.6,58.2z"/>
	<path fill="none" stroke="#568DCB" stroke-linecap="round" stroke-linejoin="round" stroke-miterlimit="10" d="M50,71.3
		c6.8,0,12.8-3.2,16.7-8.1v-3.2c0-0.9-0.8-1.7-1.7-1.7H43.1c-0.9,0-1.7,0.8-1.7,1.7v9.5C44,70.6,46.9,71.3,50,71.3z"/>
	<path fill="none" stroke="#568DCB" stroke-linecap="round" stroke-linejoin="round" stroke-miterlimit="10" d="M39.7,58.2h-9.3
		c2.1,5,6,9,11,11.2v-9.5C41.4,59,40.6,58.2,39.7,58.2z"/>
	
		<circle fill="none" stroke="#568DCB" stroke-linecap="round" stroke-linejoin="round" stroke-miterlimit="10" cx="50" cy="50" r="21.3"/>
</g>
</svg>
