<?xml version="1.0" encoding="utf-8"?>
<!-- Generator: Adobe Illustrator 17.1.0, SVG Export Plug-In . SVG Version: 6.00 Build 0)  -->
<!DOCTYPE svg PUBLIC "-//W3C//DTD SVG 1.1//EN" "http://www.w3.org/Graphics/SVG/1.1/DTD/svg11.dtd">
<svg version="1.1" id="Calque_1" xmlns="http://www.w3.org/2000/svg" xmlns:xlink="http://www.w3.org/1999/xlink" x="0px" y="0px"
	 viewBox="0 0 100 100" enable-background="new 0 0 100 100" xml:space="preserve">
<circle fill="none" stroke="#568DCB" stroke-linecap="round" stroke-linejoin="round" stroke-miterlimit="10" cx="49.997" cy="49.021" r="3"/>
<line fill="none" stroke="#568DCB" stroke-linecap="round" stroke-linejoin="round" stroke-miterlimit="10" x1="48.363" y1="70.213" x2="48.363" y2="51.876"/>
<line fill="none" stroke="#568DCB" stroke-linecap="round" stroke-linejoin="round" stroke-miterlimit="10" x1="51.631" y1="51.876" x2="51.631" y2="70.213"/>
<path fill="none" stroke="#568DCB" stroke-linecap="round" stroke-linejoin="round" stroke-miterlimit="10" d="M50.875,45.042
	V30.928c0-1.932-0.684-2.095-1.52-0.353c-1.813,3.778-4.209,10.546-0.89,15.033c0.162,0.219,0.525,0.338,0.794,0.29
	c0.27-0.048,0.551-0.066,0.804-0.059C50.511,45.852,50.875,45.49,50.875,45.042z"/>
<path fill="none" stroke="#568DCB" stroke-linecap="round" stroke-linejoin="round" stroke-miterlimit="10" d="M46.112,50.25
	l-12.223,7.057c-1.673,0.966-1.472,1.64,0.454,1.493c4.179-0.319,11.237-1.628,13.464-6.746c0.109-0.25,0.03-0.624-0.146-0.832
	c-0.177-0.209-0.333-0.444-0.453-0.667C46.996,50.16,46.5,50.026,46.112,50.25z"/>
<path fill="none" stroke="#568DCB" stroke-linecap="round" stroke-linejoin="round" stroke-miterlimit="10" d="M53.003,51.771
	l12.223,7.057c1.673,0.966,2.156,0.455,1.065-1.14c-2.366-3.459-7.029-8.918-12.574-8.287c-0.271,0.031-0.555,0.286-0.648,0.542
	c-0.093,0.258-0.219,0.51-0.351,0.726C52.484,51.05,52.616,51.547,53.003,51.771z"/>
</svg>
