<?xml version="1.0" encoding="utf-8"?>
<!-- Generator: Adobe Illustrator 17.1.0, SVG Export Plug-In . SVG Version: 6.00 Build 0)  -->
<!DOCTYPE svg PUBLIC "-//W3C//DTD SVG 1.1//EN" "http://www.w3.org/Graphics/SVG/1.1/DTD/svg11.dtd">
<svg version="1.1" id="Calque_1" xmlns="http://www.w3.org/2000/svg" xmlns:xlink="http://www.w3.org/1999/xlink" x="0px" y="0px"
	 viewBox="0 0 100 100" enable-background="new 0 0 100 100" xml:space="preserve">
<path fill="none" stroke="#568DCB" stroke-miterlimit="10" d="M48.952,41.934c0.023-2.193,0.871-4.379,2.544-6.052
	c3.393-3.393,8.893-3.393,12.286,0c3.393,3.393,3.393,8.893,0,12.286c-1.644,1.644-3.782,2.491-5.936,2.542"/>
<path fill="none" stroke="#568DCB" stroke-miterlimit="10" d="M48.717,60.061l-9.115-9.115c-0.827-0.827-0.827-2.168,0-2.994
	l6.109-6.109c0.827-0.827,2.168-0.827,2.995,0l9.115,9.115c0.827,0.827,0.827,2.168,0,2.995l-6.109,6.109
	C50.885,60.888,49.544,60.888,48.717,60.061z"/>
<path fill="none" stroke="#568DCB" stroke-linejoin="round" stroke-miterlimit="10" d="M47.077,58.244l-11.535,8.441l-0.017-0.006
	c-0.711,0.711-1.863,0.711-2.574,0s-0.711-1.863,0-2.574l0.028,0.017l8.441-11.535"/>
<path fill="none" stroke="#568DCB" stroke-width="0.5" stroke-linecap="round" stroke-linejoin="round" stroke-miterlimit="10" d="
	M57.769,49.34c-0.027-0.099,6.888,0.285,7.138-7.996"/>
<path fill="none" stroke="#568DCB" stroke-width="0.5" stroke-linecap="round" stroke-linejoin="round" stroke-miterlimit="10" d="
	M55.937,47.771c0,0,5.083,0.521,6.521-3.458"/>
<path fill="none" stroke="#568DCB" stroke-width="0.5" stroke-linecap="round" stroke-linejoin="round" stroke-miterlimit="10" d="
	M59.303,49.074c-0.078-0.106-3.897-1.698-5.449-4.776"/>
<path fill="none" stroke="#568DCB" stroke-width="0.5" stroke-linecap="round" stroke-linejoin="round" stroke-miterlimit="10" d="
	M61.436,48.255c-0.102-0.317-1.682,0.182-4.7-3.474"/>
<path fill="none" stroke="#568DCB" stroke-width="0.5" stroke-linecap="round" stroke-linejoin="round" stroke-miterlimit="10" d="
	M54.25,46.021c0,0,3,0.292,4.375-1.146"/>
<path fill="none" stroke="#568DCB" stroke-width="0.5" stroke-linecap="round" stroke-linejoin="round" stroke-miterlimit="10" d="
	M62.812,46.984c0.006-0.011-1.352-0.414-1.925-1.344"/>
</svg>
