<?xml version="1.0" encoding="utf-8"?>
<!-- Generator: Adobe Illustrator 17.1.0, SVG Export Plug-In . SVG Version: 6.00 Build 0)  -->
<!DOCTYPE svg PUBLIC "-//W3C//DTD SVG 1.1//EN" "http://www.w3.org/Graphics/SVG/1.1/DTD/svg11.dtd">
<svg version="1.1" id="Calque_1" xmlns="http://www.w3.org/2000/svg" xmlns:xlink="http://www.w3.org/1999/xlink" x="0px" y="0px"
	 viewBox="0 0 100 100" enable-background="new 0 0 100 100" xml:space="preserve">
<path fill="none" stroke="#568DCB" stroke-linecap="round" stroke-linejoin="round" stroke-miterlimit="10" d="M59.329,45.792
	c-0.045-7.141-5.844-12.917-12.996-12.917c-7.152,0-12.95,5.776-12.996,12.917h-0.004V68.97c0,1.144,0.927,2.072,2.072,2.072h21.857
	c1.144,0,2.072-0.927,2.072-2.072V45.792H59.329z"/>
<path fill="none" stroke="#568DCB" stroke-linecap="round" stroke-linejoin="round" stroke-miterlimit="10" d="M54.743,66.812
	H37.757c-0.798,0-1.444-0.647-1.444-1.444V53.507c0-0.798,0.647-1.444,1.444-1.444h16.986c0.798,0,1.444,0.647,1.444,1.444v11.861
	C56.188,66.166,55.541,66.812,54.743,66.812z"/>
<path fill="none" stroke="#568DCB" stroke-linecap="round" stroke-linejoin="round" stroke-miterlimit="10" d="M36.312,55.688
	c0,0,10,4,19.812,0"/>
<rect x="43.762" y="41.637" transform="matrix(0.7071 0.7071 -0.7071 0.7071 44.7786 -19.7927)" fill="none" stroke="#568DCB" stroke-linecap="round" stroke-linejoin="round" stroke-miterlimit="10" width="5.038" height="5.038"/>
<path fill="none" stroke="#568DCB" stroke-linecap="round" stroke-linejoin="round" stroke-miterlimit="10" d="M42.547,33.412
	c-0.031-0.195-0.047-0.396-0.047-0.6c0-2.117,1.716-3.833,3.833-3.833s3.833,1.716,3.833,3.833c0,0.199-0.015,0.395-0.045,0.586"/>
</svg>
