<?xml version="1.0" encoding="utf-8"?>
<!-- Generator: Adobe Illustrator 17.1.0, SVG Export Plug-In . SVG Version: 6.00 Build 0)  -->
<!DOCTYPE svg PUBLIC "-//W3C//DTD SVG 1.1//EN" "http://www.w3.org/Graphics/SVG/1.1/DTD/svg11.dtd">
<svg version="1.1" id="Calque_1" xmlns="http://www.w3.org/2000/svg" xmlns:xlink="http://www.w3.org/1999/xlink" x="0px" y="0px"
	 viewBox="0 0 100 100" enable-background="new 0 0 100 100" xml:space="preserve">
<path fill="none" stroke="#568DCB" stroke-linecap="round" stroke-linejoin="round" stroke-miterlimit="10" d="M63,45.8
	c0-7.1-5.8-12.9-13-12.9S37,38.7,37,45.8h0V69c0,1.1,0.9,2.1,2.1,2.1h21.9c1.1,0,2.1-0.9,2.1-2.1L63,45.8L63,45.8z"/>
<path fill="none" stroke="#568DCB" stroke-linecap="round" stroke-linejoin="round" stroke-miterlimit="10" d="M58.5,66.8h-17
	c-0.8,0-1.4-0.6-1.4-1.4V53.5c0-0.8,0.6-1.4,1.4-1.4h17c0.8,0,1.4,0.6,1.4,1.4v11.9C59.9,66.2,59.3,66.8,58.5,66.8z"/>
<path fill="none" stroke="#568DCB" stroke-linecap="round" stroke-linejoin="round" stroke-miterlimit="10" d="M40.1,55.7
	c0,0,10,4,19.8,0"/>
<rect x="47.5" y="41.6" transform="matrix(-0.7071 -0.7071 0.7071 -0.7071 54.1328 110.7332)" fill="none" stroke="#568DCB" stroke-linecap="round" stroke-linejoin="round" stroke-miterlimit="10" width="5" height="5"/>
<path fill="none" stroke="#568DCB" stroke-linecap="round" stroke-linejoin="round" stroke-miterlimit="10" d="M46.2,33.4
	c0-0.2,0-0.4,0-0.6c0-2.1,1.7-3.8,3.8-3.8s3.8,1.7,3.8,3.8c0,0.2,0,0.4,0,0.6"/>
</svg>
