<?xml version="1.0" encoding="utf-8"?>
<!-- Generator: Adobe Illustrator 17.1.0, SVG Export Plug-In . SVG Version: 6.00 Build 0)  -->
<!DOCTYPE svg PUBLIC "-//W3C//DTD SVG 1.1//EN" "http://www.w3.org/Graphics/SVG/1.1/DTD/svg11.dtd">
<svg version="1.1" id="Calque_1" xmlns="http://www.w3.org/2000/svg" xmlns:xlink="http://www.w3.org/1999/xlink" x="0px" y="0px"
	 viewBox="0 0 100 100" enable-background="new 0 0 100 100" xml:space="preserve">
<g>
	<path fill="none" stroke="#568DCB" stroke-linecap="round" stroke-linejoin="round" stroke-miterlimit="10" d="M49.8,66.6h2.8
		c0.2,0,0.4,0.2,0.5,0.4l0.6,3.2c0.1,0.3,0.3,0.4,0.6,0.4c0.5-0.1,1.4-0.3,2.2-0.6c0.2-0.1,0.3-0.3,0.3-0.5c0-3.2,2.9-11.4,3.5-13.2
		c0.1-0.2,0.3-0.3,0.5-0.3c1.7,0.1,8.9,0.5,10.9,0.7c0.2,0,0.5-0.1,0.5-0.3c0.8-2.3,0.9-5.6,0.9-6.7c0-0.2-0.2-0.4-0.4-0.5
		c-0.3-0.1-0.6-0.1-1.1-0.2c-0.2,0-0.4-0.2-0.4-0.5C71,39.2,58.6,37.1,56.2,36.8c-0.2,0-0.4,0.1-0.5,0.3l-2.5,6.2
		c-0.1,0.2-0.3,0.3-0.5,0.3h-3h0.4h-3c-0.2,0-0.4-0.1-0.5-0.3l-2.5-6.2c-0.1-0.2-0.3-0.3-0.5-0.3c-2.4,0.3-14.8,2.4-15.1,11.7
		c0,0.2-0.2,0.4-0.4,0.5c-0.5,0.1-0.8,0.2-1.1,0.2c-0.2,0.1-0.4,0.2-0.4,0.5c0,1.1,0.1,4.4,0.9,6.7c0.1,0.2,0.3,0.4,0.5,0.3
		c2-0.2,9.2-0.6,10.9-0.7c0.2,0,0.4,0.1,0.5,0.3c0.6,1.8,3.5,10,3.5,13.2c0,0.2,0.1,0.4,0.3,0.5c0.8,0.3,1.7,0.5,2.2,0.6
		c0.3,0.1,0.5-0.1,0.6-0.4l0.6-3.2c0-0.2,0.3-0.4,0.5-0.4h2.8"/>
	<path fill="none" stroke="#568DCB" stroke-linecap="round" stroke-linejoin="round" stroke-miterlimit="10" d="M65.7,34.4
		C83,57.3,57.2,83,34.4,65.7c0,0-0.1-0.1-0.1-0.1C17,42.7,42.7,17,65.6,34.3C65.6,34.3,65.7,34.4,65.7,34.4z"/>
	<path fill="none" stroke="#568DCB" stroke-linecap="round" stroke-linejoin="round" stroke-miterlimit="10" d="M50.2,35.4h2.2
		c0.4,0,0.7,0.5,0.4,0.9l-2.2,2.2c-0.2,0.2-0.5,0.2-0.7,0l-2.2-2.2c-0.3-0.3-0.1-0.9,0.4-0.9H50.2z"/>
	<path fill="none" stroke="#568DCB" stroke-linecap="round" stroke-linejoin="round" stroke-miterlimit="10" d="M60.3,46.9
		c2,2.8-1.1,5.9-3.9,3.9c-0.1,0-0.1-0.1-0.1-0.1c-2-2.8,1.1-5.9,3.9-3.9C60.2,46.8,60.3,46.8,60.3,46.9z"/>
	<path fill="none" stroke="#568DCB" stroke-linecap="round" stroke-linejoin="round" stroke-miterlimit="10" d="M43.9,46.9
		c2,2.8-1.1,5.9-3.9,3.9c-0.1,0-0.1-0.1-0.1-0.1c-2-2.8,1.1-5.9,3.9-3.9C43.8,46.8,43.8,46.8,43.9,46.9z"/>
	<path fill="none" stroke="#568DCB" stroke-linecap="round" stroke-linejoin="round" stroke-miterlimit="10" d="M59.1,59.7h-0.2
		l-1.7,0.7c-0.3,0.1-0.6,0-0.7-0.4l-0.7-3.3c0-0.2-0.3-0.4-0.5-0.4H50h0.2h-5.3c-0.2,0-0.4,0.2-0.5,0.4l-0.7,3.3
		c-0.1,0.3-0.4,0.5-0.7,0.4l-1.7-0.7h-0.2"/>
	<path fill="none" stroke="#568DCB" stroke-linecap="round" stroke-linejoin="round" stroke-miterlimit="10" d="M56.9,60.7l-1,0.4
		c-0.3,0.1-0.6-0.1-0.7-0.4l-0.3-1.8c0-0.2-0.2-0.4-0.5-0.4h-4.1h-0.1h-4.1c-0.2,0-0.5,0.2-0.5,0.4l-0.3,1.8c0,0.3-0.4,0.5-0.7,0.4
		l-1-0.4"/>
</g>
</svg>
