<?xml version="1.0" encoding="utf-8"?>
<!-- Generator: Adobe Illustrator 17.1.0, SVG Export Plug-In . SVG Version: 6.00 Build 0)  -->
<!DOCTYPE svg PUBLIC "-//W3C//DTD SVG 1.1//EN" "http://www.w3.org/Graphics/SVG/1.1/DTD/svg11.dtd">
<svg version="1.1" id="Calque_1" xmlns="http://www.w3.org/2000/svg" xmlns:xlink="http://www.w3.org/1999/xlink" x="0px" y="0px"
	 viewBox="0 0 100 100" enable-background="new 0 0 100 100" xml:space="preserve">
<path fill="none" stroke="#548DCA" stroke-linejoin="round" stroke-miterlimit="10" d="M51.079,47.235
	c2.176-3.682,5.623-10.397,7.612-14.621c0.188-0.4,0.021-0.888-0.381-1.07c-2.688-1.223-5.665-1.919-8.811-1.919
	c-5.265,0-10.073,1.918-13.798,5.075c-0.125,0.106-0.247,0.32-0.274,0.482c-1.119,6.617-2.472,15.913-2.438,22.001
	c0.002,0.398,0.329,0.746,0.725,0.783c3.388,0.321,9.721-0.391,12.319-0.915c0.6-0.121,1.025,0.269,0.951,0.876
	c-0.288,2.353-0.849,6.628-1.559,10.279c-0.278,1.431,0.326,1.756,1.35,0.718c5.203-5.279,16.349-18.06,20.223-24.737
	c0.563-0.971,0.13-1.501-0.938-1.155c-3.491,1.131-10.076,3.625-13.97,5.339C50.845,48.918,50.388,48.405,51.079,47.235z"/>
</svg>
