<?xml version="1.0" encoding="utf-8"?>
<!-- Generator: Adobe Illustrator 17.1.0, SVG Export Plug-In . SVG Version: 6.00 Build 0)  -->
<!DOCTYPE svg PUBLIC "-//W3C//DTD SVG 1.1//EN" "http://www.w3.org/Graphics/SVG/1.1/DTD/svg11.dtd">
<svg version="1.1" id="Calque_1" xmlns="http://www.w3.org/2000/svg" xmlns:xlink="http://www.w3.org/1999/xlink" x="0px" y="0px"
	 viewBox="0 0 100 100" enable-background="new 0 0 100 100" xml:space="preserve">
<path fill="none" stroke="#568DCB" stroke-linecap="round" stroke-linejoin="round" stroke-miterlimit="10" d="M64.057,39.861
	l-4.467-4.467c-0.442-0.442-0.463-1.137-0.046-1.554l1.947-1.947c0.416-0.416,1.112-0.395,1.554,0.046l4.467,4.467
	c0.442,0.442,0.463,1.138,0.046,1.554l-1.947,1.947C65.195,40.324,64.499,40.303,64.057,39.861z"/>
<path fill="none" stroke="#568DCB" stroke-linecap="round" stroke-linejoin="round" stroke-miterlimit="10" d="M63.812,39.616
	c0,0-2.295,3.854-0.64,7.264c0.555,1.143,0.319,2.514-0.579,3.412l-2.066,2.066c-0.212,0.212-1.017-0.162-1.237,0.058
	c-0.232,0.232,0.122,1.057-0.118,1.296c-1.103,1.103-2.281,2.281-3.477,3.477c-0.216,0.216-1.021-0.157-1.238,0.059
	c-0.191,0.191,0.206,0.972,0.015,1.164c-1.148,1.148-2.294,2.294-3.388,3.388c-0.269,0.269-1.138-0.041-1.399,0.221
	c-0.214,0.214,0.179,1-0.03,1.208l-4.765,4.765c-0.873,0.873-2.184,1.122-3.317,0.633c-1.486-0.641-3.68-1.928-6.251-4.499
	l-0.041-0.041c-2.571-2.571-3.858-4.765-4.499-6.251c-0.489-1.133-0.24-2.444,0.633-3.317l4.765-4.765
	c0.208-0.208,0.994,0.184,1.208-0.03c0.262-0.262-0.048-1.131,0.221-1.399c1.094-1.094,2.24-2.24,3.388-3.388
	c0.192-0.192,0.972,0.206,1.164,0.015c0.216-0.216-0.157-1.022,0.059-1.238c1.196-1.196,2.375-2.375,3.477-3.477
	c0.239-0.239,1.064,0.114,1.296-0.118c0.22-0.22-0.154-1.025,0.058-1.237l2.066-2.066c0.899-0.899,2.269-1.134,3.412-0.58
	c3.411,1.655,7.264-0.64,7.264-0.64"/>
</svg>
