<?xml version="1.0" encoding="utf-8"?>
<!-- Generator: Adobe Illustrator 17.1.0, SVG Export Plug-In . SVG Version: 6.00 Build 0)  -->
<!DOCTYPE svg PUBLIC "-//W3C//DTD SVG 1.1//EN" "http://www.w3.org/Graphics/SVG/1.1/DTD/svg11.dtd">
<svg version="1.1" id="Calque_1" xmlns="http://www.w3.org/2000/svg" xmlns:xlink="http://www.w3.org/1999/xlink" x="0px" y="0px"
	 viewBox="0 0 100 100" enable-background="new 0 0 100 100" xml:space="preserve">
<path fill="none" stroke="#568DCB" stroke-linecap="round" stroke-linejoin="round" stroke-miterlimit="10" d="M49.664,66.562h2.839
	c0.239,0,0.444,0.169,0.491,0.403l0.637,3.236c0.054,0.274,0.32,0.449,0.593,0.393c0.523-0.108,1.388-0.315,2.235-0.646
	c0.199-0.078,0.315-0.277,0.313-0.491c-0.029-3.202,2.871-11.394,3.516-13.175c0.075-0.208,0.271-0.336,0.492-0.323
	c1.711,0.104,8.919,0.545,10.924,0.744c0.233,0.023,0.458-0.109,0.53-0.332c0.755-2.315,0.855-5.599,0.867-6.725
	c0.002-0.237-0.155-0.435-0.386-0.486c-0.257-0.056-0.631-0.134-1.088-0.216c-0.233-0.042-0.398-0.242-0.407-0.478
	c-0.357-9.226-12.759-11.349-15.11-11.669c-0.228-0.031-0.44,0.098-0.526,0.311l-2.481,6.203c-0.076,0.19-0.26,0.314-0.464,0.314
	h-2.974h0.399h-2.974c-0.204,0-0.388-0.124-0.464-0.314l-2.481-6.203c-0.085-0.213-0.298-0.342-0.526-0.311
	c-2.351,0.32-14.753,2.442-15.11,11.669c-0.009,0.236-0.175,0.437-0.407,0.478c-0.458,0.082-0.831,0.16-1.088,0.216
	c-0.231,0.051-0.389,0.249-0.386,0.486c0.011,1.126,0.112,4.41,0.867,6.725c0.073,0.223,0.297,0.356,0.53,0.332
	c2.005-0.199,9.213-0.641,10.924-0.744c0.221-0.013,0.417,0.115,0.492,0.323c0.645,1.781,3.546,9.973,3.516,13.175
	c-0.002,0.213,0.114,0.413,0.313,0.491c0.847,0.331,1.712,0.538,2.235,0.646c0.273,0.056,0.539-0.119,0.593-0.393l0.637-3.236
	c0.046-0.234,0.252-0.403,0.491-0.403h2.839"/>
<path fill="none" stroke="#568DCB" stroke-linecap="round" stroke-linejoin="round" stroke-miterlimit="10" d="M65.577,34.396
	c17.325,22.855-8.463,48.643-31.318,31.318c-0.041-0.031-0.079-0.069-0.11-0.11c-17.325-22.855,8.463-48.643,31.318-31.318
	C65.508,34.317,65.546,34.355,65.577,34.396z"/>
<path fill="none" stroke="#568DCB" stroke-linecap="round" stroke-linejoin="round" stroke-miterlimit="10" d="M50.062,35.422h2.215
	c0.445,0,0.669,0.539,0.354,0.854l-2.215,2.215c-0.195,0.195-0.512,0.195-0.707,0l-2.215-2.215
	c-0.315-0.315-0.092-0.854,0.354-0.854H50.062z"/>
<path fill="none" stroke="#568DCB" stroke-linecap="round" stroke-linejoin="round" stroke-miterlimit="10" d="M60.152,46.875
	c2.038,2.808-1.078,5.925-3.887,3.887c-0.051-0.037-0.099-0.086-0.136-0.136c-2.038-2.808,1.078-5.925,3.887-3.887
	C60.066,46.775,60.115,46.824,60.152,46.875z"/>
<path fill="none" stroke="#568DCB" stroke-linecap="round" stroke-linejoin="round" stroke-miterlimit="10" d="M43.72,46.875
	c2.038,2.808-1.078,5.925-3.887,3.887c-0.051-0.037-0.099-0.086-0.136-0.136c-2.038-2.808,1.078-5.925,3.887-3.887
	C43.634,46.775,43.683,46.824,43.72,46.875z"/>
<path fill="none" stroke="#568DCB" stroke-linecap="round" stroke-linejoin="round" stroke-miterlimit="10" d="M58.926,59.667
	h-0.208l-1.686,0.749c-0.291,0.129-0.626-0.042-0.692-0.353l-0.705-3.333c-0.049-0.231-0.253-0.397-0.489-0.397h-5.282h0.199H44.78
	c-0.236,0-0.44,0.165-0.489,0.397l-0.705,3.333c-0.066,0.311-0.402,0.483-0.692,0.353l-1.686-0.749H41"/>
<path fill="none" stroke="#568DCB" stroke-linecap="round" stroke-linejoin="round" stroke-miterlimit="10" d="M56.786,60.667
	l-1.024,0.447c-0.302,0.132-0.647-0.06-0.695-0.387l-0.261-1.798c-0.036-0.246-0.246-0.428-0.495-0.428h-4.13h-0.12h-4.13
	c-0.248,0-0.459,0.182-0.495,0.428l-0.261,1.798c-0.047,0.326-0.392,0.518-0.695,0.387l-1.024-0.447"/>
</svg>
