<?xml version="1.0" encoding="utf-8"?>
<!-- Generator: Adobe Illustrator 17.1.0, SVG Export Plug-In . SVG Version: 6.00 Build 0)  -->
<!DOCTYPE svg PUBLIC "-//W3C//DTD SVG 1.1//EN" "http://www.w3.org/Graphics/SVG/1.1/DTD/svg11.dtd">
<svg version="1.1" id="Calque_1" xmlns="http://www.w3.org/2000/svg" xmlns:xlink="http://www.w3.org/1999/xlink" x="0px" y="0px"
	 viewBox="0 0 100 100" enable-background="new 0 0 100 100" xml:space="preserve">
<path fill="none" stroke="#568DCB" stroke-linecap="round" stroke-linejoin="round" stroke-miterlimit="10" d="M38.825,47.062
	h-2.088c-0.442,0-0.8-0.358-0.8-0.8v-2.088c0-0.442,0.358-0.8,0.8-0.8h2.088c0.442,0,0.8,0.358,0.8,0.8v2.088
	C39.625,46.704,39.267,47.062,38.825,47.062z"/>
<path fill="none" stroke="#568DCB" stroke-linecap="round" stroke-linejoin="round" stroke-miterlimit="10" d="M46.013,47.062
	h-2.088c-0.442,0-0.8-0.358-0.8-0.8v-2.088c0-0.442,0.358-0.8,0.8-0.8h2.088c0.442,0,0.8,0.358,0.8,0.8v2.088
	C46.812,46.704,46.454,47.062,46.013,47.062z"/>
<path fill="none" stroke="#568DCB" stroke-linecap="round" stroke-linejoin="round" stroke-miterlimit="10" d="M38.825,54.062
	h-2.088c-0.442,0-0.8-0.358-0.8-0.8v-2.088c0-0.442,0.358-0.8,0.8-0.8h2.088c0.442,0,0.8,0.358,0.8,0.8v2.088
	C39.625,53.704,39.267,54.062,38.825,54.062z"/>
<path fill="none" stroke="#568DCB" stroke-linecap="round" stroke-linejoin="round" stroke-miterlimit="10" d="M46.013,54.062
	h-2.088c-0.442,0-0.8-0.358-0.8-0.8v-2.088c0-0.442,0.358-0.8,0.8-0.8h2.088c0.442,0,0.8,0.358,0.8,0.8v2.088
	C46.812,53.704,46.454,54.062,46.013,54.062z"/>
<path fill="none" stroke="#568DCB" stroke-linecap="round" stroke-linejoin="round" stroke-miterlimit="10" d="M38.825,61.062
	h-2.088c-0.442,0-0.8-0.358-0.8-0.8v-2.088c0-0.442,0.358-0.8,0.8-0.8h2.088c0.442,0,0.8,0.358,0.8,0.8v2.088
	C39.625,60.704,39.267,61.062,38.825,61.062z"/>
<path fill="none" stroke="#568DCB" stroke-linecap="round" stroke-linejoin="round" stroke-miterlimit="10" d="M46.013,61.062
	h-2.088c-0.442,0-0.8-0.358-0.8-0.8v-2.088c0-0.442,0.358-0.8,0.8-0.8h2.088c0.442,0,0.8,0.358,0.8,0.8v2.088
	C46.812,60.704,46.454,61.062,46.013,61.062z"/>
<path fill="none" stroke="#568DCB" stroke-linecap="round" stroke-linejoin="round" stroke-miterlimit="10" d="M55.2,38.406h-2.088
	c-0.442,0-0.8-0.358-0.8-0.8v-2.088c0-0.442,0.358-0.8,0.8-0.8H55.2c0.442,0,0.8,0.358,0.8,0.8v2.088
	C56,38.048,55.642,38.406,55.2,38.406z"/>
<path fill="none" stroke="#568DCB" stroke-linecap="round" stroke-linejoin="round" stroke-miterlimit="10" d="M62.388,38.406H60.3
	c-0.442,0-0.8-0.358-0.8-0.8v-2.088c0-0.442,0.358-0.8,0.8-0.8h2.088c0.442,0,0.8,0.358,0.8,0.8v2.088
	C63.187,38.048,62.829,38.406,62.388,38.406z"/>
<path fill="none" stroke="#568DCB" stroke-linecap="round" stroke-linejoin="round" stroke-miterlimit="10" d="M55.2,45.406h-2.088
	c-0.442,0-0.8-0.358-0.8-0.8v-2.088c0-0.442,0.358-0.8,0.8-0.8H55.2c0.442,0,0.8,0.358,0.8,0.8v2.088
	C56,45.048,55.642,45.406,55.2,45.406z"/>
<path fill="none" stroke="#568DCB" stroke-linecap="round" stroke-linejoin="round" stroke-miterlimit="10" d="M62.388,45.406H60.3
	c-0.442,0-0.8-0.358-0.8-0.8v-2.088c0-0.442,0.358-0.8,0.8-0.8h2.088c0.442,0,0.8,0.358,0.8,0.8v2.088
	C63.187,45.048,62.829,45.406,62.388,45.406z"/>
<path fill="none" stroke="#568DCB" stroke-linecap="round" stroke-linejoin="round" stroke-miterlimit="10" d="M55.2,52.406h-2.088
	c-0.442,0-0.8-0.358-0.8-0.8v-2.088c0-0.442,0.358-0.8,0.8-0.8H55.2c0.442,0,0.8,0.358,0.8,0.8v2.088
	C56,52.048,55.642,52.406,55.2,52.406z"/>
<path fill="none" stroke="#568DCB" stroke-linecap="round" stroke-linejoin="round" stroke-miterlimit="10" d="M62.388,52.406H60.3
	c-0.442,0-0.8-0.358-0.8-0.8v-2.088c0-0.442,0.358-0.8,0.8-0.8h2.088c0.442,0,0.8,0.358,0.8,0.8v2.088
	C63.187,52.048,62.829,52.406,62.388,52.406z"/>
<path fill="none" stroke="#568DCB" stroke-linecap="round" stroke-linejoin="round" stroke-miterlimit="10" d="M55.2,61.062h-2.088
	c-0.442,0-0.8-0.358-0.8-0.8v-2.088c0-0.442,0.358-0.8,0.8-0.8H55.2c0.442,0,0.8,0.358,0.8,0.8v2.088
	C56,60.704,55.642,61.062,55.2,61.062z"/>
<path fill="none" stroke="#568DCB" stroke-linecap="round" stroke-linejoin="round" stroke-miterlimit="10" d="M62.388,61.062H60.3
	c-0.442,0-0.8-0.358-0.8-0.8v-2.088c0-0.442,0.358-0.8,0.8-0.8h2.088c0.442,0,0.8,0.358,0.8,0.8v2.088
	C63.187,60.704,62.829,61.062,62.388,61.062z"/>
<path fill="none" stroke="#568DCB" stroke-linecap="round" stroke-linejoin="round" stroke-miterlimit="10" d="M33.551,57.67
	c3.198,5.423,8.823,9.228,15.385,9.937c0.469,0.051,0.876-0.331,0.876-0.802V41.362c0-0.442-0.358-0.8-0.8-0.8H34.237
	c-0.442,0-0.8,0.358-0.8,0.8V57.25C33.437,57.397,33.476,57.543,33.551,57.67z"/>
<path fill="none" stroke="#568DCB" stroke-linecap="round" stroke-linejoin="round" stroke-miterlimit="10" d="M65.967,33.266
	c-0.378-0.399-0.77-0.784-1.178-1.152c-0.15-0.135-0.346-0.208-0.548-0.208H50.612c-0.442,0-0.8,0.358-0.8,0.8v34.976
	c0.445,0.029,0.888,0.068,1.34,0.068c5.839,0,11.089-2.464,14.813-6.39c0.143-0.151,0.222-0.354,0.222-0.563v-26.97
	C66.187,33.619,66.109,33.417,65.967,33.266z"/>
</svg>
