<?xml version="1.0" encoding="utf-8"?>
<!-- Generator: Adobe Illustrator 17.1.0, SVG Export Plug-In . SVG Version: 6.00 Build 0)  -->
<!DOCTYPE svg PUBLIC "-//W3C//DTD SVG 1.1//EN" "http://www.w3.org/Graphics/SVG/1.1/DTD/svg11.dtd">
<svg version="1.1" id="Calque_1" xmlns="http://www.w3.org/2000/svg" xmlns:xlink="http://www.w3.org/1999/xlink" x="0px" y="0px"
	 viewBox="0 0 100 100" enable-background="new 0 0 100 100" xml:space="preserve">
<g>
	<path fill="none" stroke="#568DCB" stroke-linecap="round" stroke-linejoin="round" stroke-miterlimit="10" d="M64.2,61h-31
		c-1.7,0-3-1.3-3-3v-6.7c0-1.7,1.3-3,3-3h31c1.7,0,3,1.3,3,3V58C67.2,59.6,65.9,61,64.2,61z"/>
	
		<line fill="none" stroke="#568DCB" stroke-linecap="round" stroke-linejoin="round" stroke-miterlimit="10" x1="34.8" y1="54.7" x2="34.8" y2="60.7"/>
	
		<line fill="none" stroke="#568DCB" stroke-linecap="round" stroke-linejoin="round" stroke-miterlimit="10" x1="32" y1="53" x2="32" y2="60.7"/>
	
		<line fill="none" stroke="#568DCB" stroke-linecap="round" stroke-linejoin="round" stroke-miterlimit="10" x1="38" y1="53" x2="38" y2="60.7"/>
	
		<line fill="none" stroke="#568DCB" stroke-linecap="round" stroke-linejoin="round" stroke-miterlimit="10" x1="41.2" y1="54.8" x2="41.2" y2="60.7"/>
	
		<line fill="none" stroke="#568DCB" stroke-linecap="round" stroke-linejoin="round" stroke-miterlimit="10" x1="44.4" y1="53" x2="44.4" y2="60.7"/>
	
		<line fill="none" stroke="#568DCB" stroke-linecap="round" stroke-linejoin="round" stroke-miterlimit="10" x1="47.6" y1="54.8" x2="47.6" y2="60.7"/>
	
		<line fill="none" stroke="#568DCB" stroke-linecap="round" stroke-linejoin="round" stroke-miterlimit="10" x1="50.8" y1="53" x2="50.8" y2="60.7"/>
	
		<line fill="none" stroke="#568DCB" stroke-linecap="round" stroke-linejoin="round" stroke-miterlimit="10" x1="54" y1="54.8" x2="54" y2="60.7"/>
	
		<line fill="none" stroke="#568DCB" stroke-linecap="round" stroke-linejoin="round" stroke-miterlimit="10" x1="57.2" y1="53" x2="57.2" y2="60.7"/>
	
		<line fill="none" stroke="#568DCB" stroke-linecap="round" stroke-linejoin="round" stroke-miterlimit="10" x1="60.3" y1="54.8" x2="60.3" y2="60.7"/>
	
		<line fill="none" stroke="#568DCB" stroke-linecap="round" stroke-linejoin="round" stroke-miterlimit="10" x1="63.5" y1="53" x2="63.5" y2="60.7"/>
	<path fill="none" stroke="#568DCB" stroke-linecap="round" stroke-linejoin="round" stroke-miterlimit="10" d="M32.5,48
		c0,0-0.4-16.8,16.2-16.8s16.4,16.2,16.2,17.1"/>
	<path fill="none" stroke="#568DCB" stroke-linecap="round" stroke-linejoin="round" stroke-miterlimit="10" d="M47.4,31.3
		c0.4,0,0.8,0,1.3,0c1.3,0,2.5,0.1,3.5,0.3c1.7-0.7,3-2.1,3-3.9c0-2.3-2.3-4.2-5.1-4.2S45,25.3,45,27.7C45,29.2,46,30.5,47.4,31.3z"
		/>
	<path fill="none" stroke="#568DCB" stroke-linecap="round" stroke-linejoin="round" stroke-miterlimit="10" d="M52.5,63.1
		c0.1-0.1,0.1-0.3-0.1-0.3c-2.5-0.1-11.3-0.5-12.6,0.2c-1.6,0.8-6.9,7.8-7.3,8.6s1.2,2.7,5,3.3c3.8,0.6,7.7,1.5,8.1,1.7
		s2.6,0.4,2.9-2.4C48.9,70.4,50.6,64.5,52.5,63.1z"/>
	<path fill="none" stroke="#568DCB" stroke-linecap="round" stroke-linejoin="round" stroke-miterlimit="10" d="M51.5,68.2
		c0,0,1.6-5.8,5.6-5.8c3.8,0,9.3,1.2,12.3,1.1c0.2,0,0.4,0.2,0.3,0.4c-0.2,1.1-0.3,2.3-3.8,4.6c-3.9,2.6-3,5-3.2,5.8
		C61.7,74.1,51.7,69.5,51.5,68.2z"/>
</g>
</svg>
