<?xml version="1.0" encoding="utf-8"?>
<!-- Generator: Adobe Illustrator 17.1.0, SVG Export Plug-In . SVG Version: 6.00 Build 0)  -->
<!DOCTYPE svg PUBLIC "-//W3C//DTD SVG 1.1//EN" "http://www.w3.org/Graphics/SVG/1.1/DTD/svg11.dtd">
<svg version="1.1" id="Calque_1" xmlns="http://www.w3.org/2000/svg" xmlns:xlink="http://www.w3.org/1999/xlink" x="0px" y="0px"
	 viewBox="0 0 100 100" enable-background="new 0 0 100 100" xml:space="preserve">
<g>
	<path fill="none" stroke="#568DCB" stroke-miterlimit="10" d="M29.813,43.153l11.397-7.648c0.143-0.096,0.4-0.172,0.572-0.17
		l15.992,0.241c0.153,0.002,0.385,0.071,0.515,0.152l11.615,7.269c0.586,0.367,0.665,1.066,0.177,1.555L50.51,64.123
		c-0.389,0.389-1.025,0.389-1.414,0L29.663,44.69C29.19,44.217,29.258,43.525,29.813,43.153z"/>
	<path fill="none" stroke="#568DCB" stroke-miterlimit="10" d="M58.053,35.58l-7.855,3.253c-0.217,0.09-0.57,0.086-0.785-0.009
		l-6.188-2.723c-0.965-0.425-1.588,0.074-1.384,1.109l2.032,10.302c0.007,0.037,0.023,0.096,0.035,0.131l4.981,14.938
		c0.503,1.465,1.351,1.474,1.885,0.02l5.363-15.023"/>
	<path fill="none" stroke="#568DCB" stroke-miterlimit="10" d="M29.595,43.83l14.173,3.72c0.065,0.016,0.174,0.03,0.241,0.03h11.998
		c0.071,0,0.186-0.015,0.255-0.033l13.958-3.884"/>
	<path fill="none" stroke="#568DCB" stroke-miterlimit="10" d="M43.887,47.58"/>
	<line fill="none" stroke="#568DCB" stroke-miterlimit="10" x1="58.074" y1="35.81" x2="56.137" y2="47.58"/>
	<path fill="none" stroke="#568DCB" stroke-miterlimit="10" d="M43.887,47.58l5.123-7.432c0.437-0.633,1.169-0.646,1.627-0.028
		l5.375,7.251"/>
</g>
</svg>
