<?xml version="1.0" encoding="utf-8"?>
<!-- Generator: Adobe Illustrator 17.1.0, SVG Export Plug-In . SVG Version: 6.00 Build 0)  -->
<!DOCTYPE svg PUBLIC "-//W3C//DTD SVG 1.1//EN" "http://www.w3.org/Graphics/SVG/1.1/DTD/svg11.dtd">
<svg version="1.1" id="Calque_1" xmlns="http://www.w3.org/2000/svg" xmlns:xlink="http://www.w3.org/1999/xlink" x="0px" y="0px"
	 viewBox="0 0 100 100" enable-background="new 0 0 100 100" xml:space="preserve">
<path fill="none" stroke="#568DCB" stroke-miterlimit="10" d="M66.818,47.436c1.791-0.003,3.043-1.735,2.534-3.452
	c-2.555-8.616-10.532-14.901-19.976-14.901c-9.469,0-17.462,6.317-19.996,14.966c-0.504,1.719,0.753,3.448,2.545,3.445
	L66.818,47.436z"/>
<path fill="none" stroke="#568DCB" stroke-linejoin="round" stroke-miterlimit="10" d="M51.906,58.016l-3.532,4.45
	c-0.393,0.455-1.1,0.45-1.486-0.01l-3.466-4.423l-0.026-0.039l-9.89,0.036c-1.568,0.006-2.559,1.741-1.717,3.063
	c3.697,5.807,10.192,9.659,17.586,9.659c7.448,0,13.982-3.908,17.666-9.785c0.833-1.329-0.17-3.058-1.738-3.052l-13.323,0.048
	L51.906,58.016z"/>
<circle fill="none" stroke="#568DCB" stroke-miterlimit="10" cx="47.437" cy="39.5" r="1.25"/>
<circle fill="none" stroke="#568DCB" stroke-miterlimit="10" cx="55.25" cy="38.5" r="1.25"/>
<circle fill="none" stroke="#568DCB" stroke-miterlimit="10" cx="62.25" cy="39.375" r="1.25"/>
<circle fill="none" stroke="#568DCB" stroke-miterlimit="10" cx="56.875" cy="33.938" r="1.25"/>
<circle fill="none" stroke="#568DCB" stroke-miterlimit="10" cx="49.875" cy="32.938" r="1.25"/>
<circle fill="none" stroke="#568DCB" stroke-miterlimit="10" cx="43.437" cy="33.875" r="1.25"/>
<circle fill="none" stroke="#568DCB" stroke-miterlimit="10" cx="36" cy="40.75" r="1.25"/>
<path fill="none" stroke="#568DCB" stroke-linejoin="round" stroke-miterlimit="10" d="M37.516,55.438h-6.985
	c-1.363,0-2.469-1.245-2.469-2.781l0,0c0-1.536,1.105-2.781,2.469-2.781h3.844h0.016l3.303,5.512
	c0.232,0.405,0.805,0.437,1.081,0.06l3.867-5.556l0.031-0.016h11.995h0.052l3.362,3.05c0.369,0.352,0.954,0.337,1.306-0.033
	l2.864-3.017h0.078h5.641c1.363,0,2.469,1.245,2.469,2.781l0,0c0,1.536-1.105,2.781-2.469,2.781H38.938"/>
</svg>
