<?xml version="1.0" encoding="utf-8"?>
<!-- Generator: Adobe Illustrator 17.1.0, SVG Export Plug-In . SVG Version: 6.00 Build 0)  -->
<!DOCTYPE svg PUBLIC "-//W3C//DTD SVG 1.1//EN" "http://www.w3.org/Graphics/SVG/1.1/DTD/svg11.dtd">
<svg version="1.1" id="Calque_1" xmlns="http://www.w3.org/2000/svg" xmlns:xlink="http://www.w3.org/1999/xlink" x="0px" y="0px"
	 viewBox="27.7 32.4 43.5 34.2" enable-background="new 27.7 32.4 43.5 34.2" xml:space="preserve">
<path fill="none" stroke="#0078FF" stroke-miterlimit="10" d="M28.2,49.9c0,5.9,2.4,11.3,6.3,15.1c0.7,0.7,1.6,1.1,2.6,1.1h24.6
	c1,0,1.9-0.4,2.6-1.1c3.9-3.9,6.3-9.2,6.3-15.1c0-6.4-2.9-12.2-7.4-16.1c-0.7-0.6-1.6-0.9-2.5-0.9H38c-0.9,0-1.8,0.3-2.5,0.9
	C31,37.8,28.2,43.5,28.2,49.9z"/>
<path fill="none" stroke="#0078FF" stroke-miterlimit="10" d="M31.2,49.9c0,5.1,2.1,9.6,5.4,12.9c0.6,0.6,1.4,0.9,2.3,0.9h9
	c0.2,0,0.5-0.1,0.6-0.3l0.5-0.6c0.3-0.4,0.9-0.4,1.3,0l0.5,0.6c0.2,0.2,0.4,0.3,0.6,0.3H60c0.9,0,1.7-0.3,2.3-0.9
	c3.3-3.3,5.4-7.9,5.4-12.9c0-5.5-2.4-10.4-6.3-13.7c-0.6-0.5-1.3-0.8-2.1-0.8h-7.7c-0.4,0-0.7,0.2-0.9,0.4l-0.1,0.1
	c-0.5,0.6-1.4,0.6-1.9,0l0,0c-0.2-0.3-0.6-0.5-1-0.5h-8c-0.8,0-1.5,0.3-2.1,0.8C33.7,39.5,31.2,44.4,31.2,49.9z"/>
<line fill="none" stroke="#0078FF" stroke-linecap="round" stroke-miterlimit="10" x1="38.2" y1="38.6" x2="45.4" y2="38.6"/>
<line fill="none" stroke="#0078FF" stroke-linecap="round" stroke-miterlimit="10" x1="36.3" y1="42.8" x2="45.4" y2="42.8"/>
<line fill="none" stroke="#0078FF" stroke-linecap="round" stroke-miterlimit="10" x1="34.5" y1="47.1" x2="45.4" y2="47.1"/>
<line fill="none" stroke="#0078FF" stroke-linecap="round" stroke-miterlimit="10" x1="35.5" y1="51.3" x2="45.4" y2="51.3"/>
<line fill="none" stroke="#0078FF" stroke-linecap="round" stroke-miterlimit="10" x1="37.1" y1="55.6" x2="45.4" y2="55.6"/>
<line fill="none" stroke="#0078FF" stroke-linecap="round" stroke-miterlimit="10" x1="38.2" y1="59.8" x2="45.4" y2="59.8"/>
<line fill="none" stroke="#0078FF" stroke-linecap="round" stroke-miterlimit="10" x1="59.4" y1="38.6" x2="52.3" y2="38.6"/>
<line fill="none" stroke="#0078FF" stroke-linecap="round" stroke-miterlimit="10" x1="61.4" y1="42.8" x2="52.3" y2="42.8"/>
<line fill="none" stroke="#0078FF" stroke-linecap="round" stroke-miterlimit="10" x1="63.2" y1="47.1" x2="52.3" y2="47.1"/>
<line fill="none" stroke="#0078FF" stroke-linecap="round" stroke-miterlimit="10" x1="59.4" y1="59.8" x2="52.3" y2="59.8"/>
<path fill="none" stroke="#0078FF" stroke-linecap="round" stroke-miterlimit="10" d="M60.2,57h-7.1c-0.6,0-1.1-0.5-1.1-1.1v-4.6
	c0-0.6,0.5-1.1,1.1-1.1h7.1c0.6,0,1.1,0.5,1.1,1.1v4.6C61.4,56.5,60.9,57,60.2,57z"/>
</svg>
