<?xml version="1.0" encoding="utf-8"?>
<!-- Generator: Adobe Illustrator 17.1.0, SVG Export Plug-In . SVG Version: 6.00 Build 0)  -->
<!DOCTYPE svg PUBLIC "-//W3C//DTD SVG 1.1//EN" "http://www.w3.org/Graphics/SVG/1.1/DTD/svg11.dtd">
<svg version="1.1" id="Calque_1" xmlns="http://www.w3.org/2000/svg" xmlns:xlink="http://www.w3.org/1999/xlink" x="0px" y="0px"
	 viewBox="0 0 100 100" enable-background="new 0 0 100 100" xml:space="preserve">
<path fill="none" stroke="#568DCB" stroke-miterlimit="10" d="M28.18,49.917c0,5.923,2.428,11.273,6.336,15.129
	c0.701,0.692,1.648,1.08,2.633,1.08h24.605c0.985,0,1.932-0.388,2.633-1.08c3.908-3.855,6.336-9.205,6.336-15.129
	c0-6.42-2.858-12.16-7.357-16.058c-0.684-0.592-1.557-0.921-2.462-0.921H37.999c-0.905,0-1.778,0.329-2.462,0.921
	C31.037,37.756,28.18,43.496,28.18,49.917z"/>
<path fill="none" stroke="#568DCB" stroke-miterlimit="10" d="M31.242,49.861c0,5.058,2.068,9.627,5.398,12.925
	c0.608,0.602,1.424,0.949,2.279,0.949h8.996c0.25,0,0.485-0.116,0.638-0.313l0.456-0.59c0.321-0.415,0.946-0.418,1.271-0.007
	l0.477,0.604c0.153,0.194,0.386,0.306,0.633,0.306h8.591c0.855,0,1.671-0.347,2.279-0.949c3.33-3.298,5.398-7.868,5.398-12.925
	c0-5.485-2.436-10.39-6.275-13.726c-0.592-0.515-1.346-0.809-2.131-0.809l-7.73,0c-0.36,0-0.701,0.164-0.926,0.446l-0.082,0.102
	c-0.487,0.612-1.424,0.591-1.883-0.042l-0.013-0.018c-0.222-0.307-0.579-0.489-0.958-0.489l-8.015,0
	c-0.785,0-1.538,0.294-2.131,0.809C33.679,39.471,31.242,44.376,31.242,49.861z"/>
<line fill="none" stroke="#568DCB" stroke-linecap="round" stroke-miterlimit="10" x1="38.219" y1="38.562" x2="45.375" y2="38.562"/>
<line fill="none" stroke="#568DCB" stroke-linecap="round" stroke-miterlimit="10" x1="36.281" y1="42.812" x2="45.375" y2="42.812"/>
<line fill="none" stroke="#568DCB" stroke-linecap="round" stroke-miterlimit="10" x1="34.5" y1="47.062" x2="45.375" y2="47.062"/>
<line fill="none" stroke="#568DCB" stroke-linecap="round" stroke-miterlimit="10" x1="35.531" y1="51.312" x2="45.375" y2="51.312"/>
<line fill="none" stroke="#568DCB" stroke-linecap="round" stroke-miterlimit="10" x1="37.125" y1="55.562" x2="45.375" y2="55.562"/>
<line fill="none" stroke="#568DCB" stroke-linecap="round" stroke-miterlimit="10" x1="38.219" y1="59.812" x2="45.375" y2="59.812"/>
<line fill="none" stroke="#568DCB" stroke-linecap="round" stroke-miterlimit="10" x1="59.438" y1="38.562" x2="52.281" y2="38.562"/>
<line fill="none" stroke="#568DCB" stroke-linecap="round" stroke-miterlimit="10" x1="61.375" y1="42.812" x2="52.281" y2="42.812"/>
<line fill="none" stroke="#568DCB" stroke-linecap="round" stroke-miterlimit="10" x1="63.156" y1="47.062" x2="52.281" y2="47.062"/>
<line fill="none" stroke="#568DCB" stroke-linecap="round" stroke-miterlimit="10" x1="59.438" y1="59.812" x2="52.281" y2="59.812"/>
<path fill="none" stroke="#568DCB" stroke-linecap="round" stroke-miterlimit="10" d="M60.248,56.969h-7.121
	c-0.622,0-1.127-0.504-1.127-1.127v-4.59c0-0.622,0.504-1.127,1.127-1.127h7.121c0.622,0,1.127,0.504,1.127,1.127v4.59
	C61.375,56.464,60.871,56.969,60.248,56.969z"/>
</svg>
