<?xml version="1.0" encoding="utf-8"?>
<!-- Generator: Adobe Illustrator 17.1.0, SVG Export Plug-In . SVG Version: 6.00 Build 0)  -->
<!DOCTYPE svg PUBLIC "-//W3C//DTD SVG 1.1//EN" "http://www.w3.org/Graphics/SVG/1.1/DTD/svg11.dtd">
<svg version="1.1" id="Calque_1" xmlns="http://www.w3.org/2000/svg" xmlns:xlink="http://www.w3.org/1999/xlink" x="0px" y="0px"
	 viewBox="0 0 100 100" enable-background="new 0 0 100 100" xml:space="preserve">
<path fill="none" stroke="#568DCB" stroke-miterlimit="10" d="M58.555,54.741c-0.136,0.105-0.212,0.276-0.198,0.447
	c0.074,0.9,0.643,3.53-0.023,4.103c-1.145,0.984-2.038,0.14-3.042-2.625c-0.998-2.751-3.167-11.208-14.917-12.833
	c-0.542,0.25-0.75,1.792-0.292,2.083c0,0,10.891,1.792,12.042,12.208c1.156,10.469,17.278,12.529,15.681-2.947
	c-0.011-0.11-0.05-0.212-0.124-0.294"/>
<path fill="none" stroke="#568DCB" stroke-miterlimit="10" d="M58.375,54.896c0,0,3.396,2.646,9.417,0.125"/>
<path fill="none" stroke="#568DCB" stroke-miterlimit="10" d="M61.969,53.609c-1.094,0.074-2.234,0.224-3.414,1.132
	c-0.136,0.105-0.212,0.276-0.198,0.447c0.074,0.9,0.643,3.53-0.023,4.103c-1.145,0.984-2.038,0.14-3.042-2.625
	c-0.998-2.751-3.167-11.208-14.917-12.833c-0.542,0.25-0.75,1.792-0.292,2.083c0,0,10.891,1.792,12.042,12.208
	c1.156,10.469,17.278,12.529,15.681-2.947c-0.011-0.11-0.073-0.196-0.124-0.294C67.683,54.884,67.146,53.26,61.969,53.609z"/>
<path fill="none" stroke="#568DCB" stroke-miterlimit="10" d="M49.499,47.405c2.115-1.656,5.015-3.015,9.041-3.572
	c0.542,0.25,0.75,1.792,0.292,2.083c0,0-3.939,0.648-7.329,3.43"/>
<path fill="none" stroke="#568DCB" stroke-miterlimit="10" d="M47.395,49.413c-2.398,2.78-3.247,5.807-3.772,7.254
	c-1.004,2.765-1.896,3.609-3.042,2.625c-0.667-0.573-0.098-3.204-0.023-4.103c0.014-0.171-0.068-0.334-0.198-0.447
	c0,0-1.897-1.418-5.715-1.096c-2.884,0.244-3.099,0.887-3.413,1.238c-0.074,0.082-0.112,0.185-0.124,0.294
	c-1.597,15.477,14.525,13.416,15.681,2.947c0.311-2.814,1.332-4.998,2.658-6.688"/>
<path fill="none" stroke="#568DCB" stroke-miterlimit="10" d="M31.167,54.854c0,0,3.792,2.583,9.375,0.146"/>
<path fill="none" stroke="#568DCB" stroke-linejoin="round" stroke-miterlimit="10" d="M37.578,51.938
	c0.919-0.176,0.023-2.034,0.234-4.25c0.875-9.188,5.875-6.812,9.625-10.125s2.938-1.062,3-0.875
	c0.063,0.188-1.312,4.188,4.875,3.188c6.188-1,7.543,5.907,6.766,11.609c-0.094,0.688,3.141,0.703,3.203,0.141
	s1.774-5.968,1.906-9.5c0.156-4.188-4.75-12.938-17.875-12.938s-16.5,9.5-15.875,13.625c0.484,3.197,0.656,7.338,0.719,8.953
	C34.156,51.766,35.297,52.375,37.578,51.938z"/>
<path fill="none" stroke="#568DCB" stroke-miterlimit="10" d="M67.479,52.104"/>
</svg>
