<?xml version="1.0" encoding="utf-8"?>
<!-- Generator: Adobe Illustrator 17.1.0, SVG Export Plug-In . SVG Version: 6.00 Build 0)  -->
<!DOCTYPE svg PUBLIC "-//W3C//DTD SVG 1.1//EN" "http://www.w3.org/Graphics/SVG/1.1/DTD/svg11.dtd">
<svg version="1.1" id="Calque_1" xmlns="http://www.w3.org/2000/svg" xmlns:xlink="http://www.w3.org/1999/xlink" x="0px" y="0px"
	 viewBox="0 0 100 100" enable-background="new 0 0 100 100" xml:space="preserve">
<path fill="none" stroke="#568DCB" stroke-miterlimit="10" d="M58.952,41.833h-2.25v5.083c0,0-0.625,5.25,9.183,15.674
	c0.716,0.761,0.746,1.987,0.032,2.748c-1.952,2.081-5.763,5.263-14.048,5.328H51.75c-8.285-0.065-12.096-3.246-14.048-5.328
	c-0.715-0.762-0.684-1.988,0.032-2.748c9.808-10.424,9.183-15.674,9.183-15.674v-5.083h-2.25"/>
<path fill="none" stroke="#568DCB" stroke-miterlimit="10" d="M41.312,62.316l2.737-2.874c0.633-0.664,1.636-0.813,2.434-0.361
	l2.919,1.653c0.57,0.323,1.263,0.346,1.853,0.062l4.583-2.207c0.739-0.356,1.62-0.224,2.223,0.331l3.254,2.998
	c0.821,0.757,0.863,2.03,0.101,2.846c-1.475,1.581-4.444,3.735-9.667,3.735c-6.145,0-8.961-1.838-10.463-3.447
	C40.567,64.281,40.584,63.081,41.312,62.316z"/>
<circle fill="none" stroke="#568DCB" stroke-miterlimit="10" cx="50.938" cy="45.312" r="1.812"/>
<circle fill="none" stroke="#568DCB" stroke-miterlimit="10" cx="54.375" cy="38.938" r="1.812"/>
<circle fill="none" stroke="#568DCB" stroke-miterlimit="10" cx="57.938" cy="33" r="1.812"/>
<circle fill="none" stroke="#568DCB" stroke-miterlimit="10" cx="65.312" cy="39.938" r="1.812"/>
<circle fill="none" stroke="#568DCB" stroke-miterlimit="10" cx="66.188" cy="48.125" r="1.812"/>
<circle fill="none" stroke="#568DCB" stroke-miterlimit="10" cx="49.688" cy="30.938" r="1.812"/>
<circle fill="none" stroke="#568DCB" stroke-miterlimit="10" cx="39.062" cy="35.875" r="1.812"/>
<circle fill="none" stroke="#568DCB" stroke-miterlimit="10" cx="34.312" cy="43.062" r="1.812"/>
<circle fill="none" stroke="#568DCB" stroke-miterlimit="10" cx="33.188" cy="51" r="1.812"/>
<circle fill="none" stroke="#568DCB" stroke-miterlimit="10" cx="40.5" cy="42.625" r="1.812"/>
<circle fill="none" stroke="#568DCB" stroke-miterlimit="10" cx="46" cy="36.125" r="1.812"/>
<circle fill="none" stroke="#568DCB" stroke-miterlimit="10" cx="52.188" cy="53.875" r="1.812"/>
</svg>
