<?xml version="1.0" encoding="utf-8"?>
<!-- Generator: Adobe Illustrator 17.1.0, SVG Export Plug-In . SVG Version: 6.00 Build 0)  -->
<!DOCTYPE svg PUBLIC "-//W3C//DTD SVG 1.1//EN" "http://www.w3.org/Graphics/SVG/1.1/DTD/svg11.dtd">
<svg version="1.1" id="Calque_1" xmlns="http://www.w3.org/2000/svg" xmlns:xlink="http://www.w3.org/1999/xlink" x="0px" y="0px"
	 viewBox="0 0 100 100" enable-background="new 0 0 100 100" xml:space="preserve">
<path fill="none" stroke="#568DCB" stroke-linejoin="round" stroke-miterlimit="10" d="M66.125,37.809
	c0-0.687-0.222-1.365-0.666-1.89c-3.896-4.607-9.703-7.544-16.209-7.544c-0.035,2.137-0.029,5.003-0.031,6.969
	c-0.954-0.008-1.935-0.028-3.625-0.062c-1.281-0.026,0.431-3.024-1.438-2.969c-3.336,0.099-11.212-0.062-11.531,0.312
	c-0.43,0.519-0.375,4.655-0.375,5.329v23.341c0,0.674,0.214,1.339,0.644,1.859c3.896,4.709,9.767,7.721,16.356,7.721
	c6.506,0,12.313-2.937,16.209-7.544c0.444-0.525,0.666-1.203,0.666-1.89V37.809z"/>
<path fill="none" stroke="#568DCB" stroke-linejoin="round" stroke-miterlimit="10" d="M52.6,30.887
	c2.483,0.376,8.251,1.72,10.396,6.219c0.045,0.094,0.076,0.191,0.094,0.293c0.112,0.641,0.167,1.383,0.191,2.131
	c0.031,0.962-1.187,1.414-1.779,0.654c-1.506-1.932-4.142-3.888-8.984-4.103c-0.518-0.023-0.926-0.451-0.955-0.968
	c-0.068-1.206-0.099-2.393-0.114-3.225C51.439,31.268,51.986,30.794,52.6,30.887z"/>
<line fill="none" stroke="#568DCB" stroke-linecap="round" stroke-linejoin="round" stroke-miterlimit="10" x1="42.812" y1="56.062" x2="56.125" y2="42.75"/>
<line fill="none" stroke="#568DCB" stroke-linecap="round" stroke-linejoin="round" stroke-miterlimit="10" x1="42.812" y1="42.75" x2="56.125" y2="56.062"/>
</svg>
