<?xml version="1.0" encoding="utf-8"?>
<!-- Generator: Adobe Illustrator 17.1.0, SVG Export Plug-In . SVG Version: 6.00 Build 0)  -->
<!DOCTYPE svg PUBLIC "-//W3C//DTD SVG 1.1//EN" "http://www.w3.org/Graphics/SVG/1.1/DTD/svg11.dtd">
<svg version="1.1" id="Calque_1" xmlns="http://www.w3.org/2000/svg" xmlns:xlink="http://www.w3.org/1999/xlink" x="0px" y="0px"
	 viewBox="0 0 100 100" enable-background="new 0 0 100 100" xml:space="preserve">
<path fill="none" stroke="#568DCB" stroke-linecap="round" stroke-linejoin="round" stroke-miterlimit="10" d="M59.968,61.667
	c0,0-3.917-8.958-4.958-11.875c-1.042-2.917-0.417-4.833-0.417-4.833l1.215-3.893c0.042-0.133-0.017-0.184-0.138-0.114
	c-2.051,1.183-5.411,1.956-9.212,1.956c-3.648,0-6.884-0.713-8.952-1.817c-0.117-0.063-0.175-0.011-0.136,0.116l1.171,3.753
	c0,0,0.625,1.917-0.417,4.833c-1.042,2.917-4.958,11.875-4.958,11.875s-2.208,4,2.042,6.292c0,0,4.583,2.875,11.333,2.875h0.051
	c6.75,0,11.333-2.875,11.333-2.875C62.176,65.667,59.968,61.667,59.968,61.667z"/>
<path fill="none" stroke="#568DCB" stroke-linecap="round" stroke-linejoin="round" stroke-miterlimit="10" d="M46.567,40.875
	c-6.317,0-11.438-2.49-11.438-5.562s5.121-5.562,11.438-5.562c0,0,15.606-1.487,20.3,15.395c0.034,0.123-0.141,0.189-0.187,0.069
	c-1.531-3.999-5.041-9.648-12.118-6.339C53.062,39.688,49.697,40.875,46.567,40.875z"/>
</svg>
