<?xml version="1.0" encoding="utf-8"?>
<!-- Generator: Adobe Illustrator 17.1.0, SVG Export Plug-In . SVG Version: 6.00 Build 0)  -->
<!DOCTYPE svg PUBLIC "-//W3C//DTD SVG 1.1//EN" "http://www.w3.org/Graphics/SVG/1.1/DTD/svg11.dtd">
<svg version="1.1" id="Calque_1" xmlns="http://www.w3.org/2000/svg" xmlns:xlink="http://www.w3.org/1999/xlink" x="0px" y="0px"
	 viewBox="0 0 100 100" enable-background="new 0 0 100 100" xml:space="preserve">
<path fill="none" stroke="#568DCB" stroke-linecap="round" stroke-linejoin="round" stroke-miterlimit="10" d="M63.833,61.417h-31
	c-1.657,0-3-1.343-3-3V51.75c0-1.657,1.343-3,3-3h31c1.657,0,3,1.343,3,3v6.667C66.833,60.074,65.49,61.417,63.833,61.417z"/>
<line fill="none" stroke="#568DCB" stroke-linecap="round" stroke-linejoin="round" stroke-miterlimit="10" x1="34.437" y1="55.188" x2="34.437" y2="61.188"/>
<line fill="none" stroke="#568DCB" stroke-linecap="round" stroke-linejoin="round" stroke-miterlimit="10" x1="31.625" y1="53.5" x2="31.625" y2="61.188"/>
<line fill="none" stroke="#568DCB" stroke-linecap="round" stroke-linejoin="round" stroke-miterlimit="10" x1="37.625" y1="53.5" x2="37.625" y2="61.188"/>
<line fill="none" stroke="#568DCB" stroke-linecap="round" stroke-linejoin="round" stroke-miterlimit="10" x1="40.812" y1="55.219" x2="40.812" y2="61.188"/>
<line fill="none" stroke="#568DCB" stroke-linecap="round" stroke-linejoin="round" stroke-miterlimit="10" x1="44" y1="53.5" x2="44" y2="61.188"/>
<line fill="none" stroke="#568DCB" stroke-linecap="round" stroke-linejoin="round" stroke-miterlimit="10" x1="47.187" y1="55.219" x2="47.187" y2="61.188"/>
<line fill="none" stroke="#568DCB" stroke-linecap="round" stroke-linejoin="round" stroke-miterlimit="10" x1="50.375" y1="53.5" x2="50.375" y2="61.188"/>
<line fill="none" stroke="#568DCB" stroke-linecap="round" stroke-linejoin="round" stroke-miterlimit="10" x1="53.562" y1="55.219" x2="53.562" y2="61.188"/>
<line fill="none" stroke="#568DCB" stroke-linecap="round" stroke-linejoin="round" stroke-miterlimit="10" x1="56.75" y1="53.5" x2="56.75" y2="61.188"/>
<line fill="none" stroke="#568DCB" stroke-linecap="round" stroke-linejoin="round" stroke-miterlimit="10" x1="59.937" y1="55.219" x2="59.937" y2="61.188"/>
<line fill="none" stroke="#568DCB" stroke-linecap="round" stroke-linejoin="round" stroke-miterlimit="10" x1="63.125" y1="53.5" x2="63.125" y2="61.188"/>
<path fill="none" stroke="#568DCB" stroke-linecap="round" stroke-linejoin="round" stroke-miterlimit="10" d="M32.062,48.5
	c0,0-0.375-16.812,16.188-16.812s16.437,16.25,16.187,17.062"/>
<path fill="none" stroke="#568DCB" stroke-linecap="round" stroke-linejoin="round" stroke-miterlimit="10" d="M46.997,31.728
	c0.409-0.022,0.821-0.04,1.253-0.04c1.282,0,2.452,0.107,3.541,0.287c1.743-0.674,2.959-2.139,2.959-3.85
	c0-2.347-2.276-4.25-5.083-4.25c-2.807,0-5.083,1.903-5.083,4.25C44.583,29.651,45.553,30.978,46.997,31.728z"/>
<path fill="none" stroke="#568DCB" stroke-linecap="round" stroke-linejoin="round" stroke-miterlimit="10" d="M52.11,63.529
	c0.13-0.098,0.063-0.303-0.099-0.311c-2.489-0.118-11.279-0.485-12.636,0.158c-1.583,0.75-6.917,7.75-7.292,8.625
	c-0.375,0.875,1.167,2.667,4.958,3.292c3.792,0.625,7.667,1.5,8.125,1.667c0.458,0.167,2.583,0.401,2.917-2.417
	C48.515,70.896,50.233,64.942,52.11,63.529z"/>
<path fill="none" stroke="#568DCB" stroke-linecap="round" stroke-linejoin="round" stroke-miterlimit="10" d="M51.094,68.688
	c0,0,1.594-5.812,5.594-5.812c3.822,0,9.269,1.198,12.337,1.087c0.209-0.008,0.366,0.172,0.328,0.377
	c-0.203,1.105-0.306,2.347-3.759,4.629c-3.875,2.562-2.969,5-3.188,5.844C61.312,74.562,51.25,69.969,51.094,68.688z"/>
</svg>
