<?xml version="1.0" encoding="utf-8"?>
<!-- Generator: Adobe Illustrator 17.1.0, SVG Export Plug-In . SVG Version: 6.00 Build 0)  -->
<!DOCTYPE svg PUBLIC "-//W3C//DTD SVG 1.1//EN" "http://www.w3.org/Graphics/SVG/1.1/DTD/svg11.dtd">
<svg version="1.1" id="Calque_1" xmlns="http://www.w3.org/2000/svg" xmlns:xlink="http://www.w3.org/1999/xlink" x="0px" y="0px"
	 viewBox="0 0 100 100" enable-background="new 0 0 100 100" xml:space="preserve">
<path fill="none" stroke="#568DCB" stroke-miterlimit="10" d="M46.234,65.643l18.597-18.597c0.102-0.093,0.208-0.178,0.306-0.277
	c3.271-3.271,3.271-8.573,0-11.844c-3.271-3.271-8.573-3.271-11.844,0c-0.098,0.098-0.184,0.204-0.277,0.306L34.419,53.829
	c-0.102,0.093-0.208,0.178-0.306,0.277c-0.098,0.098-0.184,0.204-0.277,0.306l-0.15,0.15l0.008,0.008
	c-2.837,3.29-2.702,8.258,0.42,11.38s8.089,3.256,11.38,0.42l0.008,0.008l0.15-0.15c0.102-0.093,0.208-0.178,0.306-0.277
	C46.055,65.851,46.141,65.745,46.234,65.643z"/>
<line fill="none" stroke="#568DCB" stroke-miterlimit="10" x1="43.865" y1="44.471" x2="55.532" y2="56.139"/>
<line fill="none" stroke="#568DCB" stroke-linecap="round" stroke-miterlimit="10" x1="37.678" y1="50.629" x2="42.245" y2="50.629"/>
<line fill="none" stroke="#568DCB" stroke-linecap="round" stroke-miterlimit="10" x1="39.858" y1="48.449" x2="44.425" y2="48.449"/>
<line fill="none" stroke="#568DCB" stroke-linecap="round" stroke-miterlimit="10" x1="42.038" y1="46.269" x2="45.427" y2="46.269"/>
<line fill="none" stroke="#568DCB" stroke-linecap="round" stroke-miterlimit="10" x1="35.527" y1="52.78" x2="40.035" y2="52.78"/>
<line fill="none" stroke="#568DCB" stroke-linecap="round" stroke-miterlimit="10" x1="33.524" y1="54.931" x2="38.002" y2="54.931"/>
<line fill="none" stroke="#568DCB" stroke-linecap="round" stroke-miterlimit="10" x1="32.257" y1="57.081" x2="36.072" y2="57.081"/>
<line fill="none" stroke="#568DCB" stroke-linecap="round" stroke-miterlimit="10" x1="31.815" y1="59.232" x2="35.306" y2="59.232"/>
<line fill="none" stroke="#568DCB" stroke-linecap="round" stroke-miterlimit="10" x1="31.785" y1="61.383" x2="34.79" y2="61.383"/>
<line fill="none" stroke="#568DCB" stroke-linecap="round" stroke-miterlimit="10" x1="32.463" y1="63.534" x2="35.056" y2="63.534"/>
<line fill="none" stroke="#568DCB" stroke-linecap="round" stroke-miterlimit="10" x1="34.083" y1="65.743" x2="36.676" y2="65.743"/>
</svg>
