<?xml version="1.0" encoding="utf-8"?>
<!-- Generator: Adobe Illustrator 17.1.0, SVG Export Plug-In . SVG Version: 6.00 Build 0)  -->
<!DOCTYPE svg PUBLIC "-//W3C//DTD SVG 1.1//EN" "http://www.w3.org/Graphics/SVG/1.1/DTD/svg11.dtd">
<svg version="1.1" id="Calque_1" xmlns="http://www.w3.org/2000/svg" xmlns:xlink="http://www.w3.org/1999/xlink" x="0px" y="0px"
	 viewBox="0 0 100 100" enable-background="new 0 0 100 100" xml:space="preserve">
<path fill="none" stroke="#568DCB" stroke-linecap="round" stroke-linejoin="round" stroke-miterlimit="10" d="M64.084,58.438
	h-29.24c-1.38,0-2.499-1.346-2.499-3.007V36.632c0-1.661,1.119-3.007,2.499-3.007h29.24c1.38,0,2.499,1.346,2.499,3.007v18.799
	C66.583,57.091,65.464,58.438,64.084,58.438z"/>
<path fill="none" stroke="#568DCB" stroke-linecap="round" stroke-linejoin="round" stroke-miterlimit="10" d="M61.958,55.681H36.97
	c-1.18,0-2.136-1.047-2.136-2.339V38.72c0-1.292,0.956-2.339,2.136-2.339h24.987c1.18,0,2.136,1.047,2.136,2.339v14.622
	C64.093,54.634,63.137,55.681,61.958,55.681z"/>
<path fill="none" stroke="#568DCB" stroke-linecap="round" stroke-linejoin="round" stroke-miterlimit="10" d="M42,58.601
	c0,0-1.062,4.961-3.104,5.399c-1.937,0.415-3.229,2.562,0.104,2.562s10.464,0,10.464,0"/>
<path fill="none" stroke="#568DCB" stroke-linecap="round" stroke-linejoin="round" stroke-miterlimit="10" d="M56.928,58.438
	c0,0,1.062,5.125,3.104,5.562c1.937,0.415,3.229,2.562-0.104,2.562s-10.464,0-10.464,0"/>
</svg>
