<?xml version="1.0" encoding="utf-8"?>
<!-- Generator: Adobe Illustrator 17.1.0, SVG Export Plug-In . SVG Version: 6.00 Build 0)  -->
<!DOCTYPE svg PUBLIC "-//W3C//DTD SVG 1.1//EN" "http://www.w3.org/Graphics/SVG/1.1/DTD/svg11.dtd">
<svg version="1.1" id="Calque_1" xmlns="http://www.w3.org/2000/svg" xmlns:xlink="http://www.w3.org/1999/xlink" x="0px" y="0px"
	 viewBox="32.4 33 35.2 34" enable-background="new 32.4 33 35.2 34" xml:space="preserve">
<g>
	<path fill="none" stroke="#0078FF" stroke-linecap="round" stroke-linejoin="round" stroke-miterlimit="10" d="M64.6,58.3H35.4
		c-1.4,0-2.5-1.3-2.5-3V36.5c0-1.7,1.1-3,2.5-3h29.2c1.4,0,2.5,1.3,2.5,3v18.8C67.1,57,66,58.3,64.6,58.3z"/>
	<path fill="none" stroke="#0078FF" stroke-linecap="round" stroke-linejoin="round" stroke-miterlimit="10" d="M62.5,55.6h-25
		c-1.2,0-2.1-1-2.1-2.3V38.6c0-1.3,1-2.3,2.1-2.3h25c1.2,0,2.1,1,2.1,2.3v14.6C64.6,54.5,63.7,55.6,62.5,55.6z"/>
	<path fill="none" stroke="#0078FF" stroke-linecap="round" stroke-linejoin="round" stroke-miterlimit="10" d="M57.5,58.3
		c0,0,1.1,5.1,3.1,5.6c1.9,0.4,3.2,2.6-0.1,2.6s-10.5,0-10.5,0s-7.1,0-10.5,0s-2-2.1-0.1-2.6c2-0.4,3.1-5.4,3.1-5.4"/>
</g>
</svg>
