<?xml version="1.0" encoding="utf-8"?>
<!-- Generator: Adobe Illustrator 17.1.0, SVG Export Plug-In . SVG Version: 6.00 Build 0)  -->
<!DOCTYPE svg PUBLIC "-//W3C//DTD SVG 1.1//EN" "http://www.w3.org/Graphics/SVG/1.1/DTD/svg11.dtd">
<svg version="1.1" id="Calque_1" xmlns="http://www.w3.org/2000/svg" xmlns:xlink="http://www.w3.org/1999/xlink" x="0px" y="0px"
	 viewBox="0 0 100 100" enable-background="new 0 0 100 100" xml:space="preserve">
<g>
	<path fill="none" d="M34.419,42.259l-0.846,0.846c-0.303,0.303-0.303,0.796-0.001,1.099l2.987,2.987l1.945-1.945l-2.987-2.987
		C35.215,41.956,34.722,41.956,34.419,42.259z"/>
	<path fill="none" d="M40.312,36.366l-0.846,0.846c-0.302,0.302-0.302,0.795,0,1.098l2.987,2.987l1.945-1.945l-2.987-2.987
		C41.108,36.063,40.615,36.063,40.312,36.366z"/>
	
		<rect x="31.912" y="53.755" transform="matrix(-0.7071 0.7071 -0.7071 -0.7071 94.8372 68.2327)" fill="none" width="2.75" height="0.005"/>
	
		<rect x="37.704" y="52.473" transform="matrix(-0.7071 -0.7071 0.7071 -0.7071 39.0203 123.8592)" fill="none" width="14.917" height="2.75"/>
	
		<rect x="31.811" y="58.366" transform="matrix(-0.7071 -0.7071 0.7071 -0.7071 24.795 129.7515)" fill="none" width="14.917" height="2.75"/>
	<path fill="none" d="M68.162,54.124l0.847-0.847c0.302-0.302,0.302-0.795,0-1.098l-3.222-3.222l-1.945,1.945l3.222,3.222
		C67.367,54.427,67.86,54.427,68.162,54.124z"/>
	
		<rect x="34.758" y="55.003" transform="matrix(-0.7071 -0.7071 0.7071 -0.7071 31.9077 126.8053)" fill="none" width="14.917" height="3.583"/>
	
		<rect x="34.442" y="50.809" transform="matrix(-0.7071 0.7071 -0.7071 -0.7071 97.7833 61.12)" fill="none" width="3.583" height="0.005"/>
	<path fill="none" d="M46.205,30.473l-0.847,0.847c-0.302,0.302-0.302,0.795,0,1.098l2.987,2.987l1.945-1.945l-2.987-2.987
		C47,30.171,46.507,30.171,46.205,30.473z"/>
	
		<rect x="49.59" y="36.078" transform="matrix(-0.7071 0.7071 -0.7071 -0.7071 112.5148 25.555)" fill="none" width="2.75" height="0.005"/>
	
		<rect x="52.156" y="33.22" transform="matrix(-0.7071 0.7071 -0.7071 -0.7071 115.3726 18.6557)" fill="none" width="3.333" height="0.005"/>
	
		<rect x="37.804" y="47.863" transform="matrix(-0.7071 0.7071 -0.7071 -0.7071 100.7295 54.0073)" fill="none" width="2.75" height="0.005"/>
	
		<rect x="46.227" y="39.024" transform="matrix(-0.7071 0.7071 -0.7071 -0.7071 109.5687 32.6677)" fill="none" width="3.583" height="0.005"/>
	
		<rect x="40.334" y="44.916" transform="matrix(-0.7071 0.7071 -0.7071 -0.7071 103.676 46.8938)" fill="none" width="3.584" height="0.005"/>
	
		<rect x="43.697" y="41.97" transform="matrix(-0.7071 0.7071 -0.7071 -0.7071 106.6225 39.7803)" fill="none" width="2.75" height="0.005"/>
	
		<rect x="65.542" y="44.109" transform="matrix(-0.7071 -0.7071 0.7071 -0.7071 80.9424 125.0785)" fill="none" width="1.667" height="3.333"/>
	
		<rect x="59.738" y="49.788" transform="matrix(-0.7071 -0.7071 0.7071 -0.7071 66.9304 130.8824)" fill="none" width="1.667" height="3.583"/>
	
		<rect x="56.792" y="53.151" transform="matrix(-0.7071 -0.7071 0.7071 -0.7071 59.8178 133.8286)" fill="none" width="1.667" height="2.75"/>
	
		<rect x="50.899" y="59.044" transform="matrix(-0.7071 -0.7071 0.7071 -0.7071 45.5908 139.7216)" fill="none" width="1.667" height="2.75"/>
	
		<rect x="47.953" y="61.573" transform="matrix(-0.7071 -0.7071 0.7071 -0.7071 38.4781 142.6678)" fill="none" width="1.667" height="3.583"/>
	
		<rect x="62.685" y="47.258" transform="matrix(-0.7071 -0.7071 0.7071 -0.7071 74.0431 127.9362)" fill="none" width="1.667" height="2.75"/>
	<path fill="none" d="M57.95,56.794l3.222,3.222c0.302,0.302,0.795,0.302,1.098,0l0.846-0.846c0.303-0.303,0.303-0.796,0.001-1.099
		l-3.222-3.222L57.95,56.794z"/>
	<path fill="none" d="M52.057,62.687l3.222,3.222c0.302,0.302,0.795,0.302,1.099-0.001l0.846-0.846c0.302-0.302,0.302-0.795,0-1.098
		l-3.222-3.222L52.057,62.687z"/>
	
		<rect x="46.543" y="43.218" transform="matrix(-0.7071 -0.7071 0.7071 -0.7071 60.36 115.02)" fill="none" width="14.917" height="3.583"/>
	
		<rect x="45.007" y="64.936" transform="matrix(-0.7071 -0.7071 0.7071 -0.7071 31.3654 145.6139)" fill="none" width="1.667" height="2.75"/>
	
		<rect x="43.597" y="46.58" transform="matrix(-0.7071 -0.7071 0.7071 -0.7071 53.2473 117.9661)" fill="none" width="14.917" height="2.75"/>
	
		<rect x="49.489" y="40.688" transform="matrix(-0.7071 -0.7071 0.7071 -0.7071 67.4727 112.0738)" fill="none" width="14.917" height="2.75"/>
	
		<rect x="52.347" y="37.539" transform="matrix(-0.7071 -0.7071 0.7071 -0.7071 74.3719 109.2161)" fill="none" width="14.917" height="3.333"/>
	<path fill="#568DCB" d="M31.374,53.789l1.945-1.945l0.707-0.707l2.534-2.534l0.707-0.707l1.945-1.945l0.707-0.707l2.534-2.534
		l0.707-0.707l1.945-1.945l0.707-0.707l2.534-2.534l0.707-0.707l1.945-1.945l0.707-0.707l2.357-2.357l0.707-0.707l0.416-0.416
		l0.563-0.563c-0.374-0.112-0.754-0.191-1.132-0.282l-0.554,0.554l-0.846-0.846c-0.544-0.092-1.09-0.175-1.639-0.224l1.778,1.778
		l-2.357,2.357l-2.987-2.987c-0.693-0.693-1.82-0.693-2.512,0l-0.847,0.847c-0.693,0.693-0.693,1.82,0,2.512l2.987,2.987
		l-2.534,2.534l-2.987-2.987c-0.693-0.693-1.82-0.693-2.513,0.001l-0.846,0.846c-0.693,0.693-0.693,1.82,0,2.512l2.987,2.987
		l-2.534,2.534l-2.987-2.987c-0.693-0.693-1.82-0.693-2.512,0l-0.846,0.846c-0.693,0.693-0.693,1.82-0.001,2.513l2.987,2.987
		l-2.534,2.534l-2.987-2.987c-0.442-0.442-1.061-0.599-1.631-0.477c-0.05,0.383-0.094,0.765-0.122,1.149
		c0.304-0.258,0.759-0.253,1.046,0.035l2.987,2.987l-1.945,1.945l-2.102-2.102c0.032,0.525,0.084,1.047,0.155,1.569l1.24,1.24
		l-0.849,0.849c0.091,0.378,0.17,0.759,0.282,1.132l1.274-1.274L31.374,53.789z M36.559,47.19l-2.987-2.987
		c-0.302-0.302-0.302-0.795,0.001-1.099l0.846-0.846c0.302-0.302,0.795-0.302,1.098,0l2.987,2.987L36.559,47.19z M42.452,41.297
		l-2.987-2.987c-0.302-0.302-0.302-0.795,0-1.098l0.846-0.846c0.303-0.303,0.796-0.303,1.099-0.001l2.987,2.987L42.452,41.297z
		 M48.345,35.404l-2.987-2.987c-0.302-0.302-0.302-0.795,0-1.098l0.847-0.847c0.302-0.302,0.795-0.302,1.098,0l2.987,2.987
		L48.345,35.404z"/>
	<path fill="#568DCB" d="M66.317,36.643l-3.596-3.596c-1.19-0.935-2.456-1.718-3.776-2.362l9.734,9.734
		C68.035,39.099,67.252,37.832,66.317,36.643z"/>
	<g>
		<polygon fill="none" points="63.116,50.176 63.135,50.195 65.08,48.25 65.061,48.232 63.647,49.646 		"/>
		<polygon fill="none" points="65.768,47.525 65.787,47.543 68.144,45.186 68.125,45.168 66.298,46.994 		"/>
		<polygon fill="none" points="59.876,53.417 59.894,53.436 62.428,50.902 62.409,50.883 60.406,52.887 		"/>
		
			<rect x="34.758" y="55.003" transform="matrix(-0.7071 -0.7071 0.7071 -0.7071 31.9077 126.8053)" fill="none" width="14.917" height="3.583"/>
		
			<rect x="37.704" y="52.473" transform="matrix(-0.7071 -0.7071 0.7071 -0.7071 39.0203 123.8592)" fill="none" width="14.917" height="2.75"/>
		<polygon fill="none" points="57.224,56.069 57.243,56.087 59.187,54.143 59.169,54.124 57.754,55.538 		"/>
		
			<rect x="31.811" y="58.366" transform="matrix(-0.7071 -0.7071 0.7071 -0.7071 24.795 129.7515)" fill="none" width="14.917" height="2.75"/>
		<polygon fill="none" points="45.439,67.854 45.457,67.873 47.402,65.928 47.383,65.909 45.969,67.324 		"/>
		<polygon fill="none" points="53.983,59.31 54.001,59.329 56.536,56.794 56.517,56.776 54.513,58.78 		"/>
		<polygon fill="none" points="51.331,61.962 51.35,61.98 53.294,60.036 53.276,60.017 51.861,61.431 		"/>
		<polygon fill="none" points="48.09,65.202 48.109,65.221 50.643,62.687 50.624,62.669 48.621,64.672 		"/>
		<path fill="none" d="M57.95,56.794l3.222,3.222c0.302,0.302,0.795,0.302,1.098,0l0.846-0.846c0.303-0.303,0.303-0.796,0.001-1.099
			l-3.222-3.222L57.95,56.794z"/>
		<path fill="none" d="M52.057,62.687l3.222,3.222c0.302,0.302,0.795,0.302,1.099-0.001l0.846-0.846
			c0.302-0.302,0.302-0.795,0-1.098l-3.222-3.222L52.057,62.687z"/>
		
			<rect x="52.347" y="37.539" transform="matrix(-0.7071 -0.7071 0.7071 -0.7071 74.3719 109.2161)" fill="none" width="14.917" height="3.333"/>
		<path fill="none" d="M68.162,54.124l0.847-0.847c0.302-0.302,0.302-0.795,0-1.098l-3.222-3.222l-1.945,1.945l3.222,3.222
			C67.367,54.427,67.86,54.427,68.162,54.124z"/>
		
			<rect x="40.65" y="49.11" transform="matrix(-0.7071 -0.7071 0.7071 -0.7071 46.1338 120.9127)" fill="none" width="14.917" height="3.584"/>
		
			<rect x="46.543" y="43.218" transform="matrix(-0.7071 -0.7071 0.7071 -0.7071 60.36 115.02)" fill="none" width="14.917" height="3.583"/>
		
			<rect x="49.489" y="40.688" transform="matrix(-0.7071 -0.7071 0.7071 -0.7071 67.4727 112.0738)" fill="none" width="14.917" height="2.75"/>
		
			<rect x="43.597" y="46.58" transform="matrix(-0.7071 -0.7071 0.7071 -0.7071 53.2473 117.9661)" fill="none" width="14.917" height="2.75"/>
		<path fill="#568DCB" d="M43.572,67.401l0.53-0.53l0.177-0.177l0.53-0.53l1.414-1.414l0.53-0.53l0.177-0.177l0.53-0.53l2.003-2.003
			l0.53-0.53l0.177-0.177l0.53-0.53l1.414-1.414l0.53-0.53l0.177-0.177l0.53-0.53l2.004-2.004l0.53-0.53l0.177-0.177l0.53-0.53
			l1.414-1.414l0.53-0.53l0.177-0.177l0.53-0.53l2.003-2.003l0.53-0.53l0.177-0.177l0.53-0.53l1.414-1.414l0.53-0.53l0.177-0.177
			l0.53-0.53l1.826-1.826l0.53-0.53l0.177-0.177l0.53-0.53l0.416-0.416l0.655-0.655c-0.133-0.327-0.298-0.644-0.448-0.966
			l-1.86,1.86L56.417,32.046l1.731-1.731c-0.332-0.145-0.666-0.282-1.004-0.41l-1.434,1.434l-0.003-0.003l-0.707,0.707l0.003,0.003
			l-2.357,2.357l-0.003-0.003l-0.707,0.707l0.003,0.003l-1.945,1.945l-0.003-0.003l-0.707,0.707l0.003,0.003l-2.534,2.534
			l-0.003-0.003l-0.707,0.707l0.003,0.003l-1.945,1.945l-0.003-0.003l-0.707,0.707l0.003,0.003l-2.534,2.534l-0.003-0.003
			l-0.707,0.707l0.003,0.003l-1.945,1.945l-0.003-0.003l-0.707,0.707l0.003,0.003l-2.534,2.534l-0.003-0.003l-0.707,0.707
			l0.003,0.003l-1.945,1.945l-0.003-0.003l-0.707,0.707l0.003,0.003l-1.728,1.728c0.127,0.338,0.265,0.672,0.41,1.004l2.025-2.025
			l10.548,10.548l-2.155,2.155c0.322,0.15,0.639,0.315,0.966,0.448l0.338-0.338l0.814-0.814L43.572,67.401z M43.572,65.987
			L33.024,55.439l1.945-1.945l10.548,10.548L43.572,65.987z M46.223,63.335L35.675,52.787l2.534-2.534l10.548,10.548L46.223,63.335z
			 M49.464,60.094L38.916,49.547l1.945-1.945L51.408,58.15L49.464,60.094z M52.116,57.443L41.568,46.895l2.534-2.534L54.65,54.909
			L52.116,57.443z M55.357,54.201L44.809,43.654l1.945-1.945l10.548,10.548L55.357,54.201z M58.009,51.55L47.461,41.002l2.534-2.534
			l10.548,10.548L58.009,51.55z M61.249,48.309L50.701,37.761l1.945-1.945l10.548,10.548L61.249,48.309z M63.901,45.657
			L53.353,35.11l2.357-2.357l10.548,10.548L63.901,45.657z"/>
		<path fill="#568DCB" d="M66.357,54.831c0.693,0.693,1.82,0.693,2.512,0l0.847-0.847c0.693-0.693,0.693-1.82,0-2.512l-3.222-3.222
			l2.357-2.357l1.895,1.895c-0.049-0.549-0.132-1.094-0.224-1.639l-0.964-0.964l0.626-0.626c-0.093-0.374-0.183-0.748-0.297-1.118
			l-1.036,1.036l-0.019-0.019l-0.177,0.177l-0.53,0.53l0.019,0.019l-2.357,2.357l-0.019-0.019l-0.177,0.177l-0.53,0.53l0.019,0.019
			l-1.945,1.945l-0.019-0.019l-0.177,0.177l-0.53,0.53l0.019,0.019l-2.534,2.534l-0.019-0.019l-0.177,0.177l-0.53,0.53l0.019,0.019
			l-1.945,1.945l-0.019-0.019l-0.177,0.177l-0.53,0.53l0.019,0.019l-2.534,2.534l-0.019-0.019l-0.177,0.177l-0.53,0.53l0.019,0.019
			L51.35,61.98l-0.019-0.019l-0.177,0.177l-0.53,0.53l0.019,0.019l-2.534,2.534l-0.019-0.019l-0.177,0.177l-0.53,0.53l0.019,0.019
			l-1.945,1.945l-0.019-0.019l-0.177,0.177l-0.53,0.53l0.019,0.019L43.42,69.91c0.369,0.114,0.744,0.203,1.118,0.297l0.92-0.92
			l1.358,1.358c0.522,0.071,1.044,0.123,1.569,0.155l-2.219-2.219l1.945-1.945l3.222,3.222c0.249,0.249,0.281,0.623,0.119,0.918
			c0.363-0.03,0.723-0.083,1.085-0.132c0.071-0.53-0.09-1.086-0.497-1.493l-3.222-3.222l2.534-2.534l3.222,3.222
			c0.693,0.693,1.82,0.693,2.513-0.001l0.846-0.846c0.693-0.693,0.693-1.82,0-2.512l-3.222-3.222l2.534-2.534l3.222,3.222
			c0.693,0.693,1.82,0.693,2.512,0l0.846-0.846c0.693-0.693,0.693-1.82,0.001-2.513l-3.222-3.222l2.534-2.534L66.357,54.831z
			 M65.787,48.958l3.222,3.222c0.302,0.302,0.302,0.795,0,1.098l-0.847,0.847c-0.302,0.302-0.795,0.302-1.098,0l-3.222-3.222
			L65.787,48.958z M57.223,63.965c0.302,0.302,0.302,0.795,0,1.098l-0.846,0.846c-0.303,0.303-0.796,0.303-1.099,0.001l-3.222-3.222
			l1.945-1.945L57.223,63.965z M63.116,58.072c0.302,0.302,0.302,0.795-0.001,1.099l-0.846,0.846c-0.302,0.302-0.795,0.302-1.098,0
			l-3.222-3.222l1.945-1.945L63.116,58.072z"/>
	</g>
</g>
</svg>
