<?xml version="1.0" encoding="utf-8"?>
<!-- Generator: Adobe Illustrator 17.1.0, SVG Export Plug-In . SVG Version: 6.00 Build 0)  -->
<!DOCTYPE svg PUBLIC "-//W3C//DTD SVG 1.1//EN" "http://www.w3.org/Graphics/SVG/1.1/DTD/svg11.dtd">
<svg version="1.1" id="Calque_1" xmlns="http://www.w3.org/2000/svg" xmlns:xlink="http://www.w3.org/1999/xlink" x="0px" y="0px"
	 viewBox="28.8 30.3 42.6 40.1" enable-background="new 28.8 30.3 42.6 40.1" xml:space="preserve">
<path fill="none" stroke="#0078FF" stroke-miterlimit="10" d="M49.2,61.1c0.1,0.8,0,1.2,0,2.1c0,2.6-1.9,3.5-4.2,3.7
	c-2.4,0.2-2.5,1.1-0.2,1.9c1.9,0.6,3.9,1.1,5.6,1.1"/>
<path fill="none" stroke="#0078FF" stroke-miterlimit="10" d="M51.8,57.4c1-2.7,3.3-4.4,8.2-5c7-1,10.2-1.8,10.9-4.7
	c0.2-0.7-0.3-1.2-1-1.2H50.1h0.1H30.4c-0.7,0-1.1,0.6-1,1.2c0.7,2.8,3.9,3.7,10.9,4.7c4.5,0.6,6.7,2.6,7.9,4.8"/>
<path fill="none" stroke="#0078FF" stroke-miterlimit="10" d="M49.8,69.9c1.7,0,3.8-0.5,5.6-1.1c2.3-0.8,2.2-1.7-0.2-1.9
	c-2.2-0.2-4.2-1.1-4.2-3.7c0-0.8,0-1.6,0.1-2.3"/>
<path fill="none" stroke="#0078FF" stroke-linecap="round" stroke-miterlimit="10" d="M49.2,61.2c0,0-3,1.4-5.8,0.8
	c-2-0.5-2.4-0.1-0.8,1.3c1.1,1,4,1.6,6.5,0.4"/>
<path fill="none" stroke="#0078FF" stroke-miterlimit="10" d="M39.9,52.3c0,0,0.7,4.7,11.4,5.4c1.3,0.1,3.1,0.8,3.2,2.1
	c-0.1,2.1-5.6,1.9-12-0.4c-6.2-2.3-7-6.2-6.9-7.8"/>
<path fill="none" stroke="#0078FF" stroke-miterlimit="10" d="M35.2,46.2c0,0,1.2-9.2,9.6-11.2c0.4-0.1,0.8-0.6,0.7-1
	c-0.1-1.8,0.2-3.8,4.1-3c4.6,0.9,17.9,5.5,5.7,10.3c0,0-8.4,3.7-9.3-0.8c-0.1-0.5-0.7-0.8-1.2-0.7c-1.8,0.3-4.9,1.6-5.5,6.6"/>
</svg>
