<?xml version="1.0" encoding="utf-8"?>
<!-- Generator: Adobe Illustrator 17.1.0, SVG Export Plug-In . SVG Version: 6.00 Build 0)  -->
<!DOCTYPE svg PUBLIC "-//W3C//DTD SVG 1.1//EN" "http://www.w3.org/Graphics/SVG/1.1/DTD/svg11.dtd">
<svg version="1.1" id="Calque_1" xmlns="http://www.w3.org/2000/svg" xmlns:xlink="http://www.w3.org/1999/xlink" x="0px" y="0px"
	 viewBox="0 0 100 100" enable-background="new 0 0 100 100" xml:space="preserve">
<path fill="none" stroke="#548DCA" stroke-miterlimit="10" d="M49.219,61.094c0.069,0.805,0.023,1.158,0.023,2.073
	c0,2.588-1.931,3.487-4.15,3.665c-2.434,0.196-2.539,1.145-0.23,1.938c1.879,0.645,3.899,1.147,5.63,1.147"/>
<path fill="none" stroke="#548DCA" stroke-miterlimit="10" d="M51.758,57.378c1.008-2.67,3.285-4.365,8.25-5.045
	c6.978-0.955,10.201-1.845,10.867-4.668c0.162-0.687-0.27-1.249-0.975-1.249H50.091h0.068H30.351c-0.706,0-1.138,0.562-0.975,1.249
	c0.666,2.823,3.889,3.713,10.867,4.668c4.476,0.613,6.736,2.599,7.883,4.833"/>
<path fill="none" stroke="#548DCA" stroke-miterlimit="10" d="M49.758,69.917c1.731,0,3.75-0.502,5.63-1.147
	c2.31-0.792,2.204-1.742-0.23-1.938c-2.219-0.178-4.15-1.077-4.15-3.665c0-0.796,0.019-1.551,0.069-2.264"/>
<path fill="none" stroke="#548DCA" stroke-linecap="round" stroke-miterlimit="10" d="M49.234,61.219c0,0-3.026,1.427-5.754,0.81
	c-2.036-0.461-2.353-0.064-0.811,1.342c1.066,0.972,3.986,1.577,6.518,0.359"/>
<path fill="none" stroke="#548DCA" stroke-miterlimit="10" d="M39.906,52.312c0,0,0.74,4.677,11.427,5.396
	c1.312,0.094,3.135,0.792,3.229,2.135c-0.125,2.062-5.602,1.921-12-0.438c-6.188-2.281-7.031-6.219-6.938-7.812"/>
<path fill="none" stroke="#548DCA" stroke-miterlimit="10" d="M35.167,46.167c0,0,1.173-9.228,9.58-11.169
	c0.444-0.102,0.776-0.584,0.739-1.037c-0.148-1.814,0.17-3.789,4.139-3.002c4.625,0.917,17.875,5.458,5.708,10.333
	c0,0-8.399,3.717-9.333-0.75c-0.108-0.515-0.669-0.838-1.186-0.743c-1.792,0.331-4.893,1.551-5.482,6.617"/>
</svg>
