<?xml version="1.0" encoding="utf-8"?>
<!-- Generator: Adobe Illustrator 17.1.0, SVG Export Plug-In . SVG Version: 6.00 Build 0)  -->
<!DOCTYPE svg PUBLIC "-//W3C//DTD SVG 1.1//EN" "http://www.w3.org/Graphics/SVG/1.1/DTD/svg11.dtd">
<svg version="1.1" id="Calque_1" xmlns="http://www.w3.org/2000/svg" xmlns:xlink="http://www.w3.org/1999/xlink" x="0px" y="0px"
	 viewBox="0 0 100 100" enable-background="new 0 0 100 100" xml:space="preserve">
<path fill="none" stroke="#568DCB" stroke-miterlimit="10" d="M34.875,63.491c0,0.883,0.393,1.715,1.058,2.295
	C39.665,69.033,44.54,71,49.875,71s10.21-1.967,13.942-5.214c0.666-0.579,1.058-1.412,1.058-2.295V36.009
	c0-0.883-0.393-1.715-1.058-2.295C60.085,30.467,55.21,28.5,49.875,28.5s-10.21,1.967-13.942,5.214
	c-0.666,0.579-1.058,1.412-1.058,2.295V63.491z"/>
<g>
	<path fill="none" stroke="#568DCB" stroke-linecap="round" stroke-linejoin="round" stroke-miterlimit="10" d="M61.349,47.558
		c-9.104,1.491-14.09,1.491-23.193,0.001c-0.339-0.056-0.596-0.356-0.596-0.7c0-1.896,0-3.103,0-4.946
		c0-0.432,0.395-0.762,0.822-0.692c8.886,1.442,13.856,1.442,22.744-0.001c0.424-0.069,0.816,0.255,0.816,0.684v4.964
		C61.941,47.209,61.686,47.503,61.349,47.558z"/>
</g>
<path fill="none" stroke="#568DCB" stroke-miterlimit="10" d="M65.083,42.875c0,0,2.792-2.219,3.5-3.042
	c0.375,0.833,0.854,1.854,0.854,1.854s-2.281,4.094-4.25,4.562C65,45.188,65.083,42.875,65.083,42.875z"/>
<path fill="none" stroke="#568DCB" stroke-miterlimit="10" d="M34.857,42.875c0,0-2.792-2.219-3.5-3.042
	c-0.375,0.833-0.854,1.854-0.854,1.854s2.281,4.094,4.25,4.562C34.94,45.188,34.857,42.875,34.857,42.875z"/>
</svg>
