<?xml version="1.0" encoding="utf-8"?>
<!-- Generator: Adobe Illustrator 17.1.0, SVG Export Plug-In . SVG Version: 6.00 Build 0)  -->
<!DOCTYPE svg PUBLIC "-//W3C//DTD SVG 1.1//EN" "http://www.w3.org/Graphics/SVG/1.1/DTD/svg11.dtd">
<svg version="1.1" id="Calque_1" xmlns="http://www.w3.org/2000/svg" xmlns:xlink="http://www.w3.org/1999/xlink" x="0px" y="0px"
	 viewBox="30.3 31.9 37.5 36.8" enable-background="new 30.3 31.9 37.5 36.8" xml:space="preserve">
<g id="clé_à_molette">
	<g>
		<path fill="none" stroke="#0078FF" stroke-miterlimit="10" d="M36.6,63.9c-1.2,1.2-0.9,3.3,0.8,4.1c0.9,0.4,2,0.1,2.8-0.6l0,0
			l17.4-16.9c0.4-0.3,0.8-0.6,1.3-0.6c2.5-0.2,10.4-1.6,7.7-12.4c-0.5-1.1-3.6,10.5-8.9,6.7c-2.6-1.9-4.6-3.6-6.2-4.7
			c-0.1-0.1-0.3,0-0.3,0.2C51.9,50.1,36.7,63.8,36.6,63.9L36.6,63.9z"/>
	</g>
	<path fill="none" stroke="#0078FF" stroke-linejoin="round" stroke-miterlimit="10" d="M53.1,40.5c0,0,0.6-5.2,8.7-6.1
		c0.1,0,0.2,0.1,0.1,0.2c-1.4,1.6-7.4,7.2-4.1,9.7"/>
	<path fill="none" stroke="#0078FF" stroke-miterlimit="10" d="M55.3,48.7l-2.7-1.1c-0.4-0.2-0.5-0.6-0.4-0.9l0.7-1.7
		c0.2-0.4,0.6-0.5,0.9-0.4l2.7,1.1c0.4,0.2,0.5,0.6,0.4,0.9l-0.7,1.7C56.1,48.7,55.7,48.9,55.3,48.7z"/>
	<path fill="none" stroke="#0078FF" stroke-miterlimit="10" d="M40.5,65L39.4,66c-0.4,0.4-1,0.4-1.4,0l0,0c-0.4-0.4-0.4-1,0-1.4
		l1.1-1.1c0.4-0.4,1-0.4,1.4,0l0,0C40.8,64,40.8,64.6,40.5,65z"/>
	<line fill="none" stroke="#0078FF" stroke-linecap="round" stroke-miterlimit="10" x1="42.2" y1="63" x2="53.3" y2="52"/>
	<line fill="none" stroke="#0078FF" stroke-linecap="round" stroke-miterlimit="10" x1="41" y1="61.9" x2="52.1" y2="50.9"/>
</g>
<g>
	<line fill="none" stroke="#0078FF" stroke-linecap="round" stroke-miterlimit="10" x1="49.2" y1="47.7" x2="42.9" y2="41.4"/>
	<path fill="none" stroke="#0078FF" stroke-linecap="round" stroke-miterlimit="10" d="M51.8,56.1l10.1,11l0.1,0.1c1,1,2.6,1,3.5,0
		s1-2.6,0-3.5l-0.1-0.1L54.8,53.2"/>
	<line fill="none" stroke="#0078FF" stroke-linecap="round" stroke-miterlimit="10" x1="40.7" y1="43.9" x2="47.3" y2="51.2"/>
</g>
<path fill="none" stroke="#0078FF" stroke-linecap="round" stroke-miterlimit="10" d="M40.8,43.3l1.6-1.7c0.3-0.3,0.4-0.8,0.1-1.2
	l-1.4-2.1c0,0-2.7-4,7.8-4.5c0.1,0,0.2-0.2,0.1-0.3c-2.2-1.3-8.9-2.4-14.6,4.3c-0.6,0.8,0.2,1.2,0.5,1.9c0.2,0.7-1.3,3.1-1.8,3
	c-0.4-0.1-1-0.2-1.2,0.2c-0.3,0.6-0.7,1.8-0.9,2.3c-0.2,0.5,0,1.1,0.5,1.3l2.1,0.8c0.4,0.2,0.9,0,1.2-0.4l1-1.6
	c0.4-0.5-0.1-0.9-0.3-1.2c-0.5-0.6-0.2-0.6,0.9-2.2c0.5-0.9,1.6-0.4,3.1,1.4C39.7,43.7,40.4,43.7,40.8,43.3z"/>
<path fill="none" stroke="#0078FF" stroke-miterlimit="10" d="M62.9,65.9l-1.1-1.1c-0.4-0.4-0.4-1,0-1.4l0,0c0.4-0.4,1-0.4,1.4,0
	l1.1,1.1c0.4,0.4,0.4,1,0,1.4l0,0C63.9,66.3,63.2,66.3,62.9,65.9z"/>
</svg>
