<?xml version="1.0" encoding="utf-8"?>
<!-- Generator: Adobe Illustrator 17.1.0, SVG Export Plug-In . SVG Version: 6.00 Build 0)  -->
<!DOCTYPE svg PUBLIC "-//W3C//DTD SVG 1.1//EN" "http://www.w3.org/Graphics/SVG/1.1/DTD/svg11.dtd">
<svg version="1.1" id="Calque_1" xmlns="http://www.w3.org/2000/svg" xmlns:xlink="http://www.w3.org/1999/xlink" x="0px" y="0px"
	 viewBox="0 0 100 100" enable-background="new 0 0 100 100" xml:space="preserve">
<g id="clé_à_molette">
	<g>
		<path fill="none" stroke="#568DCB" stroke-miterlimit="10" d="M36.607,63.909c-1.2,1.2-0.925,3.316,0.825,4.096
			c0.933,0.416,2.035,0.115,2.757-0.607l0.012-0.012l17.427-16.947c0.359-0.349,0.833-0.551,1.332-0.585
			c2.529-0.171,10.412-1.561,7.705-12.354c-0.477-1.119-3.583,10.542-8.875,6.708c-2.612-1.892-4.625-3.582-6.151-4.733
			c-0.144-0.108-0.335,0.005-0.325,0.185c0.551,10.391-14.649,24.19-14.649,24.19L36.607,63.909z"/>
	</g>
	<path fill="none" stroke="#568DCB" stroke-linejoin="round" stroke-miterlimit="10" d="M53.125,40.458c0,0,0.57-5.175,8.683-6.096
		c0.095-0.011,0.162,0.103,0.097,0.173c-1.438,1.567-7.429,7.151-4.134,9.651"/>
	<path fill="none" stroke="#568DCB" stroke-miterlimit="10" d="M55.338,48.722l-2.726-1.129c-0.363-0.15-0.535-0.566-0.385-0.929
		l0.712-1.718c0.15-0.363,0.566-0.535,0.929-0.385l2.726,1.129c0.363,0.15,0.535,0.566,0.385,0.929l-0.712,1.718
		C56.117,48.699,55.701,48.872,55.338,48.722z"/>
	<path fill="none" stroke="#568DCB" stroke-miterlimit="10" d="M40.459,64.978l-1.068,1.068c-0.373,0.373-0.979,0.373-1.352-0.001
		l-0.022-0.022c-0.374-0.374-0.374-0.979-0.001-1.352l1.068-1.068c0.373-0.373,0.979-0.373,1.352,0.001l0.022,0.022
		C40.832,63.999,40.833,64.604,40.459,64.978z"/>
	
		<line fill="none" stroke="#568DCB" stroke-linecap="round" stroke-miterlimit="10" x1="42.24" y1="63.031" x2="53.302" y2="51.969"/>
	
		<line fill="none" stroke="#568DCB" stroke-linecap="round" stroke-miterlimit="10" x1="40.99" y1="61.938" x2="52.052" y2="50.875"/>
</g>
<g>
	
		<line fill="none" stroke="#568DCB" stroke-linecap="round" stroke-miterlimit="10" x1="49.247" y1="47.687" x2="42.891" y2="41.443"/>
	<path fill="none" stroke="#568DCB" stroke-linecap="round" stroke-miterlimit="10" d="M51.848,56.116l10.071,11.026l0.088,0.088
		c0.976,0.976,2.559,0.976,3.536,0s0.976-2.559,0-3.536l-0.088-0.088L54.842,53.182"/>
	
		<line fill="none" stroke="#568DCB" stroke-linecap="round" stroke-miterlimit="10" x1="40.667" y1="43.875" x2="47.325" y2="51.165"/>
</g>
<path fill="none" stroke="#568DCB" stroke-linecap="round" stroke-miterlimit="10" d="M40.787,43.318l1.64-1.727
	c0.316-0.333,0.359-0.842,0.102-1.223l-1.435-2.129c0,0-2.74-3.988,7.764-4.542c0.142-0.008,0.202-0.191,0.081-0.267
	c-2.169-1.348-8.938-2.407-14.595,4.34c-0.562,0.844,0.203,1.156,0.453,1.906c0.225,0.675-1.328,3.125-1.828,3
	c-0.429-0.107-1.025-0.187-1.234,0.203c-0.308,0.575-0.675,1.8-0.891,2.309c-0.214,0.505,0.033,1.087,0.543,1.289l2.111,0.837
	c0.437,0.173,0.936,0.012,1.188-0.385l1.002-1.619c0.438-0.542-0.135-0.948-0.344-1.198c-0.464-0.556-0.172-0.609,0.906-2.219
	c0.516-0.938,1.594-0.422,3.077,1.377C39.697,43.722,40.387,43.74,40.787,43.318z"/>
<path fill="none" stroke="#568DCB" stroke-miterlimit="10" d="M62.877,65.92l-1.068-1.068c-0.373-0.373-0.373-0.979,0.001-1.352
	l0.022-0.022c0.374-0.374,0.979-0.374,1.352-0.001l1.068,1.068c0.373,0.373,0.373,0.979-0.001,1.352l-0.022,0.022
	C63.855,66.293,63.25,66.293,62.877,65.92z"/>
</svg>
