<?xml version="1.0" encoding="utf-8"?>
<!-- Generator: Adobe Illustrator 17.1.0, SVG Export Plug-In . SVG Version: 6.00 Build 0)  -->
<!DOCTYPE svg PUBLIC "-//W3C//DTD SVG 1.1//EN" "http://www.w3.org/Graphics/SVG/1.1/DTD/svg11.dtd">
<svg version="1.1" id="Calque_1" xmlns="http://www.w3.org/2000/svg" xmlns:xlink="http://www.w3.org/1999/xlink" x="0px" y="0px"
	 viewBox="0 0 100 100" enable-background="new 0 0 100 100" xml:space="preserve">
<path fill="none" stroke="#568DCB" stroke-linecap="round" stroke-linejoin="round" stroke-miterlimit="10" d="M47.223,64.657
	L64.49,47.39c0.05-0.048,0.104-0.089,0.154-0.139c0.049-0.049,0.091-0.103,0.139-0.154l0.102-0.102l-0.005-0.005
	c3.267-3.53,3.195-9.036-0.236-12.467c-3.515-3.515-9.213-3.515-12.728,0c-0.148,0.148-0.28,0.305-0.416,0.46L34.816,51.667
	c-0.155,0.135-0.312,0.268-0.46,0.416c-3.515,3.515-3.515,9.213,0,12.728c3.38,3.38,8.773,3.5,12.308,0.379l0.013,0.013l0.253-0.253
	c0.05-0.048,0.104-0.089,0.154-0.139C47.133,64.761,47.175,64.707,47.223,64.657z"/>
<path fill="none" stroke="#568DCB" stroke-linecap="round" stroke-linejoin="round" stroke-miterlimit="10" d="M48.421,60.343
	l-9.597-9.597c-0.84-0.84-0.84-2.202,0-3.042l8.714-8.714c0.84-0.84,2.202-0.84,3.042,0l9.597,9.598c0.84,0.84,0.84,2.202,0,3.042
	l-8.714,8.714C50.623,61.183,49.261,61.183,48.421,60.343z"/>
<circle fill="none" stroke="#568DCB" stroke-width="0.5" stroke-linecap="round" stroke-linejoin="round" stroke-miterlimit="10" cx="63.495" cy="36.173" r="0.458"/>
<circle fill="none" stroke="#568DCB" stroke-width="0.5" stroke-linecap="round" stroke-linejoin="round" stroke-miterlimit="10" cx="57.867" cy="36.173" r="0.458"/>
<circle fill="none" stroke="#568DCB" stroke-width="0.5" stroke-linecap="round" stroke-linejoin="round" stroke-miterlimit="10" cx="52.24" cy="36.173" r="0.458"/>
<circle fill="none" stroke="#568DCB" stroke-width="0.5" stroke-linecap="round" stroke-linejoin="round" stroke-miterlimit="10" cx="63.495" cy="36.173" r="0.458"/>
<circle fill="none" stroke="#568DCB" stroke-width="0.5" stroke-linecap="round" stroke-linejoin="round" stroke-miterlimit="10" cx="57.867" cy="36.173" r="0.458"/>
<circle fill="none" stroke="#568DCB" stroke-width="0.5" stroke-linecap="round" stroke-linejoin="round" stroke-miterlimit="10" cx="52.24" cy="36.173" r="0.458"/>
<circle fill="none" stroke="#568DCB" stroke-width="0.5" stroke-linecap="round" stroke-linejoin="round" stroke-miterlimit="10" cx="57.867" cy="36.173" r="0.458"/>
<circle fill="none" stroke="#568DCB" stroke-width="0.5" stroke-linecap="round" stroke-linejoin="round" stroke-miterlimit="10" cx="52.24" cy="36.173" r="0.458"/>
<circle fill="none" stroke="#568DCB" stroke-width="0.5" stroke-linecap="round" stroke-linejoin="round" stroke-miterlimit="10" cx="52.24" cy="36.173" r="0.458"/>
<circle fill="none" stroke="#568DCB" stroke-width="0.5" stroke-linecap="round" stroke-linejoin="round" stroke-miterlimit="10" cx="63.495" cy="41.299" r="0.458"/>
<circle fill="none" stroke="#568DCB" stroke-width="0.5" stroke-linecap="round" stroke-linejoin="round" stroke-miterlimit="10" cx="57.867" cy="41.299" r="0.458"/>
<circle fill="none" stroke="#568DCB" stroke-width="0.5" stroke-linecap="round" stroke-linejoin="round" stroke-miterlimit="10" cx="52.24" cy="41.299" r="0.458"/>
<circle fill="none" stroke="#568DCB" stroke-width="0.5" stroke-linecap="round" stroke-linejoin="round" stroke-miterlimit="10" cx="63.495" cy="41.299" r="0.458"/>
<circle fill="none" stroke="#568DCB" stroke-width="0.5" stroke-linecap="round" stroke-linejoin="round" stroke-miterlimit="10" cx="57.867" cy="41.299" r="0.458"/>
<circle fill="none" stroke="#568DCB" stroke-width="0.5" stroke-linecap="round" stroke-linejoin="round" stroke-miterlimit="10" cx="52.24" cy="41.299" r="0.458"/>
<circle fill="none" stroke="#568DCB" stroke-width="0.5" stroke-linecap="round" stroke-linejoin="round" stroke-miterlimit="10" cx="57.867" cy="41.299" r="0.458"/>
<circle fill="none" stroke="#568DCB" stroke-width="0.5" stroke-linecap="round" stroke-linejoin="round" stroke-miterlimit="10" cx="52.24" cy="41.299" r="0.458"/>
<circle fill="none" stroke="#568DCB" stroke-width="0.5" stroke-linecap="round" stroke-linejoin="round" stroke-miterlimit="10" cx="52.24" cy="41.299" r="0.458"/>
<circle fill="none" stroke="#568DCB" stroke-width="0.5" stroke-linecap="round" stroke-linejoin="round" stroke-miterlimit="10" cx="46.613" cy="41.299" r="0.458"/>
<circle fill="none" stroke="#568DCB" stroke-width="0.5" stroke-linecap="round" stroke-linejoin="round" stroke-miterlimit="10" cx="63.495" cy="46.426" r="0.458"/>
<circle fill="none" stroke="#568DCB" stroke-width="0.5" stroke-linecap="round" stroke-linejoin="round" stroke-miterlimit="10" cx="57.867" cy="46.426" r="0.458"/>
<circle fill="none" stroke="#568DCB" stroke-width="0.5" stroke-linecap="round" stroke-linejoin="round" stroke-miterlimit="10" cx="52.24" cy="46.426" r="0.458"/>
<circle fill="none" stroke="#568DCB" stroke-width="0.5" stroke-linecap="round" stroke-linejoin="round" stroke-miterlimit="10" cx="63.495" cy="46.426" r="0.458"/>
<circle fill="none" stroke="#568DCB" stroke-width="0.5" stroke-linecap="round" stroke-linejoin="round" stroke-miterlimit="10" cx="57.867" cy="46.426" r="0.458"/>
<circle fill="none" stroke="#568DCB" stroke-width="0.5" stroke-linecap="round" stroke-linejoin="round" stroke-miterlimit="10" cx="52.24" cy="46.426" r="0.458"/>
<circle fill="none" stroke="#568DCB" stroke-width="0.5" stroke-linecap="round" stroke-linejoin="round" stroke-miterlimit="10" cx="57.867" cy="46.426" r="0.458"/>
<circle fill="none" stroke="#568DCB" stroke-width="0.5" stroke-linecap="round" stroke-linejoin="round" stroke-miterlimit="10" cx="52.24" cy="46.426" r="0.458"/>
<circle fill="none" stroke="#568DCB" stroke-width="0.5" stroke-linecap="round" stroke-linejoin="round" stroke-miterlimit="10" cx="52.24" cy="46.426" r="0.458"/>
<circle fill="none" stroke="#568DCB" stroke-width="0.5" stroke-linecap="round" stroke-linejoin="round" stroke-miterlimit="10" cx="46.613" cy="46.426" r="0.458"/>
<circle fill="none" stroke="#568DCB" stroke-width="0.5" stroke-linecap="round" stroke-linejoin="round" stroke-miterlimit="10" cx="40.985" cy="46.426" r="0.458"/>
<circle fill="none" stroke="#568DCB" stroke-width="0.5" stroke-linecap="round" stroke-linejoin="round" stroke-miterlimit="10" cx="57.867" cy="51.552" r="0.458"/>
<circle fill="none" stroke="#568DCB" stroke-width="0.5" stroke-linecap="round" stroke-linejoin="round" stroke-miterlimit="10" cx="52.24" cy="51.552" r="0.458"/>
<circle fill="none" stroke="#568DCB" stroke-width="0.5" stroke-linecap="round" stroke-linejoin="round" stroke-miterlimit="10" cx="57.867" cy="51.552" r="0.458"/>
<circle fill="none" stroke="#568DCB" stroke-width="0.5" stroke-linecap="round" stroke-linejoin="round" stroke-miterlimit="10" cx="52.24" cy="51.552" r="0.458"/>
<circle fill="none" stroke="#568DCB" stroke-width="0.5" stroke-linecap="round" stroke-linejoin="round" stroke-miterlimit="10" cx="57.867" cy="51.552" r="0.458"/>
<circle fill="none" stroke="#568DCB" stroke-width="0.5" stroke-linecap="round" stroke-linejoin="round" stroke-miterlimit="10" cx="52.24" cy="51.552" r="0.458"/>
<circle fill="none" stroke="#568DCB" stroke-width="0.5" stroke-linecap="round" stroke-linejoin="round" stroke-miterlimit="10" cx="52.24" cy="51.552" r="0.458"/>
<circle fill="none" stroke="#568DCB" stroke-width="0.5" stroke-linecap="round" stroke-linejoin="round" stroke-miterlimit="10" cx="46.613" cy="51.552" r="0.458"/>
<circle fill="none" stroke="#568DCB" stroke-width="0.5" stroke-linecap="round" stroke-linejoin="round" stroke-miterlimit="10" cx="40.985" cy="51.552" r="0.458"/>
<circle fill="none" stroke="#568DCB" stroke-width="0.5" stroke-linecap="round" stroke-linejoin="round" stroke-miterlimit="10" cx="52.24" cy="56.679" r="0.458"/>
<circle fill="none" stroke="#568DCB" stroke-width="0.5" stroke-linecap="round" stroke-linejoin="round" stroke-miterlimit="10" cx="52.24" cy="56.679" r="0.458"/>
<circle fill="none" stroke="#568DCB" stroke-width="0.5" stroke-linecap="round" stroke-linejoin="round" stroke-miterlimit="10" cx="52.24" cy="56.679" r="0.458"/>
<circle fill="none" stroke="#568DCB" stroke-width="0.5" stroke-linecap="round" stroke-linejoin="round" stroke-miterlimit="10" cx="52.24" cy="56.679" r="0.458"/>
<circle fill="none" stroke="#568DCB" stroke-width="0.5" stroke-linecap="round" stroke-linejoin="round" stroke-miterlimit="10" cx="46.613" cy="56.679" r="0.458"/>
<circle fill="none" stroke="#568DCB" stroke-width="0.5" stroke-linecap="round" stroke-linejoin="round" stroke-miterlimit="10" cx="40.985" cy="56.679" r="0.458"/>
<circle fill="none" stroke="#568DCB" stroke-width="0.5" stroke-linecap="round" stroke-linejoin="round" stroke-miterlimit="10" cx="35.358" cy="56.679" r="0.458"/>
<circle fill="none" stroke="#568DCB" stroke-width="0.5" stroke-linecap="round" stroke-linejoin="round" stroke-miterlimit="10" cx="46.613" cy="61.805" r="0.458"/>
<circle fill="none" stroke="#568DCB" stroke-width="0.5" stroke-linecap="round" stroke-linejoin="round" stroke-miterlimit="10" cx="40.985" cy="61.805" r="0.458"/>
<circle fill="none" stroke="#568DCB" stroke-width="0.5" stroke-linecap="round" stroke-linejoin="round" stroke-miterlimit="10" cx="35.358" cy="61.805" r="0.458"/>
<circle fill="none" stroke="#568DCB" stroke-width="0.5" stroke-linecap="round" stroke-linejoin="round" stroke-miterlimit="10" cx="40.985" cy="66.932" r="0.458"/>
</svg>
