<?xml version="1.0" encoding="utf-8"?>
<!-- Generator: Adobe Illustrator 17.1.0, SVG Export Plug-In . SVG Version: 6.00 Build 0)  -->
<!DOCTYPE svg PUBLIC "-//W3C//DTD SVG 1.1//EN" "http://www.w3.org/Graphics/SVG/1.1/DTD/svg11.dtd">
<svg version="1.1" id="Calque_1" xmlns="http://www.w3.org/2000/svg" xmlns:xlink="http://www.w3.org/1999/xlink" x="0px" y="0px"
	 viewBox="31.2 31.4 36.6 36.6" enable-background="new 31.2 31.4 36.6 36.6" xml:space="preserve">
<path fill="none" stroke="#0078FF" stroke-linecap="round" stroke-linejoin="round" stroke-miterlimit="10" d="M47.2,64.7l17.3-17.3
	c0.1,0,0.1-0.1,0.2-0.1c0,0,0.1-0.1,0.1-0.2l0.1-0.1l0,0c3.3-3.5,3.2-9-0.2-12.5c-3.5-3.5-9.2-3.5-12.7,0c-0.1,0.1-0.3,0.3-0.4,0.5
	L34.8,51.7c-0.2,0.1-0.3,0.3-0.5,0.4c-3.5,3.5-3.5,9.2,0,12.7c3.4,3.4,8.8,3.5,12.3,0.4l0,0l0.3-0.3c0,0,0.1-0.1,0.2-0.1
	C47.1,64.8,47.2,64.7,47.2,64.7z"/>
<path fill="none" stroke="#0078FF" stroke-linecap="round" stroke-linejoin="round" stroke-miterlimit="10" d="M48.4,60.3l-9.6-9.6
	c-0.8-0.8-0.8-2.2,0-3l8.7-8.7c0.8-0.8,2.2-0.8,3,0l9.6,9.6c0.8,0.8,0.8,2.2,0,3l-8.7,8.7C50.6,61.2,49.3,61.2,48.4,60.3z"/>
<circle fill="none" stroke="#0078FF" stroke-width="0.5" stroke-linecap="round" stroke-linejoin="round" stroke-miterlimit="10" cx="63.5" cy="36.2" r="0.5"/>
<circle fill="none" stroke="#0078FF" stroke-width="0.5" stroke-linecap="round" stroke-linejoin="round" stroke-miterlimit="10" cx="57.9" cy="36.2" r="0.5"/>
<circle fill="none" stroke="#0078FF" stroke-width="0.5" stroke-linecap="round" stroke-linejoin="round" stroke-miterlimit="10" cx="52.2" cy="36.2" r="0.5"/>
<circle fill="none" stroke="#0078FF" stroke-width="0.5" stroke-linecap="round" stroke-linejoin="round" stroke-miterlimit="10" cx="63.5" cy="36.2" r="0.5"/>
<circle fill="none" stroke="#0078FF" stroke-width="0.5" stroke-linecap="round" stroke-linejoin="round" stroke-miterlimit="10" cx="57.9" cy="36.2" r="0.5"/>
<circle fill="none" stroke="#0078FF" stroke-width="0.5" stroke-linecap="round" stroke-linejoin="round" stroke-miterlimit="10" cx="52.2" cy="36.2" r="0.5"/>
<circle fill="none" stroke="#0078FF" stroke-width="0.5" stroke-linecap="round" stroke-linejoin="round" stroke-miterlimit="10" cx="57.9" cy="36.2" r="0.5"/>
<circle fill="none" stroke="#0078FF" stroke-width="0.5" stroke-linecap="round" stroke-linejoin="round" stroke-miterlimit="10" cx="52.2" cy="36.2" r="0.5"/>
<circle fill="none" stroke="#0078FF" stroke-width="0.5" stroke-linecap="round" stroke-linejoin="round" stroke-miterlimit="10" cx="52.2" cy="36.2" r="0.5"/>
<circle fill="none" stroke="#0078FF" stroke-width="0.5" stroke-linecap="round" stroke-linejoin="round" stroke-miterlimit="10" cx="63.5" cy="41.3" r="0.5"/>
<circle fill="none" stroke="#0078FF" stroke-width="0.5" stroke-linecap="round" stroke-linejoin="round" stroke-miterlimit="10" cx="57.9" cy="41.3" r="0.5"/>
<circle fill="none" stroke="#0078FF" stroke-width="0.5" stroke-linecap="round" stroke-linejoin="round" stroke-miterlimit="10" cx="52.2" cy="41.3" r="0.5"/>
<circle fill="none" stroke="#0078FF" stroke-width="0.5" stroke-linecap="round" stroke-linejoin="round" stroke-miterlimit="10" cx="63.5" cy="41.3" r="0.5"/>
<circle fill="none" stroke="#0078FF" stroke-width="0.5" stroke-linecap="round" stroke-linejoin="round" stroke-miterlimit="10" cx="57.9" cy="41.3" r="0.5"/>
<circle fill="none" stroke="#0078FF" stroke-width="0.5" stroke-linecap="round" stroke-linejoin="round" stroke-miterlimit="10" cx="52.2" cy="41.3" r="0.5"/>
<circle fill="none" stroke="#0078FF" stroke-width="0.5" stroke-linecap="round" stroke-linejoin="round" stroke-miterlimit="10" cx="57.9" cy="41.3" r="0.5"/>
<circle fill="none" stroke="#0078FF" stroke-width="0.5" stroke-linecap="round" stroke-linejoin="round" stroke-miterlimit="10" cx="52.2" cy="41.3" r="0.5"/>
<circle fill="none" stroke="#0078FF" stroke-width="0.5" stroke-linecap="round" stroke-linejoin="round" stroke-miterlimit="10" cx="52.2" cy="41.3" r="0.5"/>
<circle fill="none" stroke="#0078FF" stroke-width="0.5" stroke-linecap="round" stroke-linejoin="round" stroke-miterlimit="10" cx="46.6" cy="41.3" r="0.5"/>
<circle fill="none" stroke="#0078FF" stroke-width="0.5" stroke-linecap="round" stroke-linejoin="round" stroke-miterlimit="10" cx="63.5" cy="46.4" r="0.5"/>
<circle fill="none" stroke="#0078FF" stroke-width="0.5" stroke-linecap="round" stroke-linejoin="round" stroke-miterlimit="10" cx="57.9" cy="46.4" r="0.5"/>
<circle fill="none" stroke="#0078FF" stroke-width="0.5" stroke-linecap="round" stroke-linejoin="round" stroke-miterlimit="10" cx="52.2" cy="46.4" r="0.5"/>
<circle fill="none" stroke="#0078FF" stroke-width="0.5" stroke-linecap="round" stroke-linejoin="round" stroke-miterlimit="10" cx="63.5" cy="46.4" r="0.5"/>
<circle fill="none" stroke="#0078FF" stroke-width="0.5" stroke-linecap="round" stroke-linejoin="round" stroke-miterlimit="10" cx="57.9" cy="46.4" r="0.5"/>
<circle fill="none" stroke="#0078FF" stroke-width="0.5" stroke-linecap="round" stroke-linejoin="round" stroke-miterlimit="10" cx="52.2" cy="46.4" r="0.5"/>
<circle fill="none" stroke="#0078FF" stroke-width="0.5" stroke-linecap="round" stroke-linejoin="round" stroke-miterlimit="10" cx="57.9" cy="46.4" r="0.5"/>
<circle fill="none" stroke="#0078FF" stroke-width="0.5" stroke-linecap="round" stroke-linejoin="round" stroke-miterlimit="10" cx="52.2" cy="46.4" r="0.5"/>
<circle fill="none" stroke="#0078FF" stroke-width="0.5" stroke-linecap="round" stroke-linejoin="round" stroke-miterlimit="10" cx="52.2" cy="46.4" r="0.5"/>
<circle fill="none" stroke="#0078FF" stroke-width="0.5" stroke-linecap="round" stroke-linejoin="round" stroke-miterlimit="10" cx="46.6" cy="46.4" r="0.5"/>
<circle fill="none" stroke="#0078FF" stroke-width="0.5" stroke-linecap="round" stroke-linejoin="round" stroke-miterlimit="10" cx="41" cy="46.4" r="0.5"/>
<circle fill="none" stroke="#0078FF" stroke-width="0.5" stroke-linecap="round" stroke-linejoin="round" stroke-miterlimit="10" cx="57.9" cy="51.6" r="0.5"/>
<circle fill="none" stroke="#0078FF" stroke-width="0.5" stroke-linecap="round" stroke-linejoin="round" stroke-miterlimit="10" cx="52.2" cy="51.6" r="0.5"/>
<circle fill="none" stroke="#0078FF" stroke-width="0.5" stroke-linecap="round" stroke-linejoin="round" stroke-miterlimit="10" cx="57.9" cy="51.6" r="0.5"/>
<circle fill="none" stroke="#0078FF" stroke-width="0.5" stroke-linecap="round" stroke-linejoin="round" stroke-miterlimit="10" cx="52.2" cy="51.6" r="0.5"/>
<circle fill="none" stroke="#0078FF" stroke-width="0.5" stroke-linecap="round" stroke-linejoin="round" stroke-miterlimit="10" cx="57.9" cy="51.6" r="0.5"/>
<circle fill="none" stroke="#0078FF" stroke-width="0.5" stroke-linecap="round" stroke-linejoin="round" stroke-miterlimit="10" cx="52.2" cy="51.6" r="0.5"/>
<circle fill="none" stroke="#0078FF" stroke-width="0.5" stroke-linecap="round" stroke-linejoin="round" stroke-miterlimit="10" cx="52.2" cy="51.6" r="0.5"/>
<circle fill="none" stroke="#0078FF" stroke-width="0.5" stroke-linecap="round" stroke-linejoin="round" stroke-miterlimit="10" cx="46.6" cy="51.6" r="0.5"/>
<circle fill="none" stroke="#0078FF" stroke-width="0.5" stroke-linecap="round" stroke-linejoin="round" stroke-miterlimit="10" cx="41" cy="51.6" r="0.5"/>
<circle fill="none" stroke="#0078FF" stroke-width="0.5" stroke-linecap="round" stroke-linejoin="round" stroke-miterlimit="10" cx="52.2" cy="56.7" r="0.5"/>
<circle fill="none" stroke="#0078FF" stroke-width="0.5" stroke-linecap="round" stroke-linejoin="round" stroke-miterlimit="10" cx="52.2" cy="56.7" r="0.5"/>
<circle fill="none" stroke="#0078FF" stroke-width="0.5" stroke-linecap="round" stroke-linejoin="round" stroke-miterlimit="10" cx="52.2" cy="56.7" r="0.5"/>
<circle fill="none" stroke="#0078FF" stroke-width="0.5" stroke-linecap="round" stroke-linejoin="round" stroke-miterlimit="10" cx="52.2" cy="56.7" r="0.5"/>
<circle fill="none" stroke="#0078FF" stroke-width="0.5" stroke-linecap="round" stroke-linejoin="round" stroke-miterlimit="10" cx="46.6" cy="56.7" r="0.5"/>
<circle fill="none" stroke="#0078FF" stroke-width="0.5" stroke-linecap="round" stroke-linejoin="round" stroke-miterlimit="10" cx="41" cy="56.7" r="0.5"/>
<circle fill="none" stroke="#0078FF" stroke-width="0.5" stroke-linecap="round" stroke-linejoin="round" stroke-miterlimit="10" cx="35.4" cy="56.7" r="0.5"/>
<circle fill="none" stroke="#0078FF" stroke-width="0.5" stroke-linecap="round" stroke-linejoin="round" stroke-miterlimit="10" cx="46.6" cy="61.8" r="0.5"/>
<circle fill="none" stroke="#0078FF" stroke-width="0.5" stroke-linecap="round" stroke-linejoin="round" stroke-miterlimit="10" cx="41" cy="61.8" r="0.5"/>
<circle fill="none" stroke="#0078FF" stroke-width="0.5" stroke-linecap="round" stroke-linejoin="round" stroke-miterlimit="10" cx="35.4" cy="61.8" r="0.5"/>
<circle fill="none" stroke="#0078FF" stroke-width="0.5" stroke-linecap="round" stroke-linejoin="round" stroke-miterlimit="10" cx="41" cy="66.9" r="0.5"/>
</svg>
