<?xml version="1.0" encoding="utf-8"?>
<!-- Generator: Adobe Illustrator 17.1.0, SVG Export Plug-In . SVG Version: 6.00 Build 0)  -->
<!DOCTYPE svg PUBLIC "-//W3C//DTD SVG 1.1//EN" "http://www.w3.org/Graphics/SVG/1.1/DTD/svg11.dtd">
<svg version="1.1" id="Calque_1" xmlns="http://www.w3.org/2000/svg" xmlns:xlink="http://www.w3.org/1999/xlink" x="0px" y="0px"
	 viewBox="0 0 100 100" enable-background="new 0 0 100 100" xml:space="preserve">
<path fill="none" stroke="#568DCB" stroke-linecap="round" stroke-linejoin="round" stroke-miterlimit="10" d="M28.564,45.75
	c0,12.639,10.941,22.723,23.868,21.298c9.953-1.097,17.922-9.184,18.892-19.15c0.493-5.061-0.778-9.804-3.267-13.691
	c-0.184-0.287-0.507-0.457-0.848-0.457h-0.414c-0.363,0-0.697-0.196-0.873-0.513l-0.636-1.14c-0.177-0.317-0.511-0.513-0.873-0.513
	H54.408c-0.333,0-0.644,0.166-0.83,0.442l-0.863,1.283c-0.186,0.276-0.497,0.442-0.83,0.442H32.237
	C29.919,37.174,28.564,41.304,28.564,45.75z"/>
<line fill="none" stroke="#568DCB" stroke-linecap="round" stroke-linejoin="round" stroke-miterlimit="10" x1="38.292" y1="33.75" x2="38.292" y2="63.667"/>
<line fill="none" stroke="#568DCB" stroke-linecap="round" stroke-linejoin="round" stroke-miterlimit="10" x1="43.708" y1="33.75" x2="43.708" y2="66.083"/>
</svg>
