<?xml version="1.0" encoding="utf-8"?>
<!-- Generator: Adobe Illustrator 17.1.0, SVG Export Plug-In . SVG Version: 6.00 Build 0)  -->
<!DOCTYPE svg PUBLIC "-//W3C//DTD SVG 1.1//EN" "http://www.w3.org/Graphics/SVG/1.1/DTD/svg11.dtd">
<svg version="1.1" id="Calque_1" xmlns="http://www.w3.org/2000/svg" xmlns:xlink="http://www.w3.org/1999/xlink" x="0px" y="0px"
	 viewBox="0 0 711 242" enable-background="new 0 0 711 242" xml:space="preserve">
<g>
	<path fill="#F1F1F1" d="M93.3,5.8c-0.5-0.5-1.2-0.9-1.8-1.5L2.1,95c196.2,193.1,511.6,191,705.1-4.7l-87-85.8
		C474.8,149.5,239.6,150.1,93.3,5.8z"/>
	<path fill="none" stroke="#CCCCCC" stroke-miterlimit="10" d="M93.3,5.8c-0.5-0.5-1.2-0.9-1.8-1.5L2.1,95
		c196.2,193.1,511.6,191,705.1-4.7l-87-85.8C474.8,149.5,239.6,150.1,93.3,5.8z"/>
</g>
<circle fill="none" cx="354.5" cy="-246.8" r="436.5"/>
<text transform="matrix(0.9166 0.3998 -0.3998 0.9166 169.7803 149.041)"><tspan x="0" y="0" fill="#404952" font-family="'ClearSans-Light'" font-size="36">D</tspan><tspan x="23.4" y="0" fill="#404952" font-family="'ClearSans-Light'" font-size="36" rotate="-3.2">O</tspan><tspan x="48.2" y="-1.4" fill="#404952" font-family="'ClearSans-Light'" font-size="36" rotate="-6.5">N</tspan><tspan x="73.1" y="-4.3" fill="#404952" font-family="'ClearSans-Light'" font-size="36" rotate="-9.8">N</tspan><tspan x="97.7" y="-8.6" fill="#404952" font-family="'ClearSans-Light'" font-size="36" rotate="-12.8">É</tspan><tspan x="118.2" y="-13.3" fill="#404952" font-family="'ClearSans-Light'" font-size="36" rotate="-15.6">E</tspan><tspan x="138.4" y="-18.9" fill="#404952" font-family="'ClearSans-Light'" font-size="36" rotate="-18.4">S</tspan><tspan x="159.4" y="-26" fill="#404952" font-family="'ClearSans-Light'" font-size="36" rotate="-20.5"> </tspan><tspan x="168.8" y="-29.5" fill="#404952" font-family="'ClearSans-Bold'" font-size="36" rotate="-22.6">S</tspan><tspan x="189.5" y="-38.1" fill="#404952" font-family="'ClearSans-Bold'" font-size="36" rotate="-25.6">O</tspan><tspan x="211.8" y="-48.8" fill="#404952" font-family="'ClearSans-Bold'" font-size="36" rotate="-28.8">C</tspan><tspan x="232.9" y="-60.5" fill="#404952" font-family="'ClearSans-Bold'" font-size="36" rotate="-31.5">I</tspan><tspan x="246.5" y="-68.9" fill="#404952" font-family="'ClearSans-Bold'" font-size="36" rotate="-33.9">É</tspan><tspan x="263.9" y="-80.5" fill="#404952" font-family="'ClearSans-Bold'" font-size="36" rotate="-36.7">T</tspan><tspan x="281.6" y="-93.7" fill="#404952" font-family="'ClearSans-Bold'" font-size="36" rotate="-39.8">A</tspan><tspan x="300.1" y="-109.3" fill="#404952" font-family="'ClearSans-Bold'" font-size="36" rotate="-42.6">L</tspan><tspan x="314.1" y="-122.1" fill="#404952" font-family="'ClearSans-Bold'" font-size="36" rotate="-45.3">E</tspan><tspan x="328.8" y="-137" fill="#404952" font-family="'ClearSans-Bold'" font-size="36" rotate="-48.1">S</tspan></text>
</svg>
