<?xml version="1.0" encoding="utf-8"?>
<!-- Generator: Adobe Illustrator 17.1.0, SVG Export Plug-In . SVG Version: 6.00 Build 0)  -->
<!DOCTYPE svg PUBLIC "-//W3C//DTD SVG 1.1//EN" "http://www.w3.org/Graphics/SVG/1.1/DTD/svg11.dtd">
<svg version="1.1" id="Calque_1" xmlns="http://www.w3.org/2000/svg" xmlns:xlink="http://www.w3.org/1999/xlink" x="0px" y="0px"
	 viewBox="0 0 100 100" enable-background="new 0 0 100 100" xml:space="preserve">
<path fill="none" stroke="#538EC7" stroke-miterlimit="10" d="M49.7,34.2c10,0,12.2,3.7,12.6,4.7c0.1,0.2,0.1,0.3,0.1,0.5
	c0.1,1.8,0.3,4.6,0.4,6.1c0,0.6,0.5,1.2,1.1,1.3c1.6,0.4,4.3,1.8,4.3,6.5v5.1c0,0.6-0.3,1.1-0.8,1.3c-2,1-7.6,3.2-17.7,3.2
	S34,60.8,32,59.8c-0.5-0.3-0.8-0.8-0.8-1.3v-5.1c0-4.7,2.8-6.1,4.3-6.5c0.6-0.2,1.1-0.7,1.1-1.3c0.1-1.6,0.3-4.3,0.4-6.1
	c0-0.2,0-0.3,0.1-0.5C37.6,37.9,39.8,34.2,49.7,34.2z"/>
<path fill="none" stroke="#538EC7" stroke-linecap="round" stroke-linejoin="round" stroke-miterlimit="10" d="M36.6,46.7
	c0,0,5.6,14.8,11.8,14.8"/>
<path fill="none" stroke="#538EC7" stroke-linecap="round" stroke-miterlimit="10" d="M49.7,54.1v-6.9c0-0.6-0.5-1.1-1.1-1.1
	c-1.9,0-6,0-8.7,0.4c-0.7,0.1-1.3-0.4-1.3-1.1c0-2.2,0.2-5.5,0.5-6c0.5-0.8,1.7-2.7,10.5-2.7"/>
<path fill="none" stroke="#538EC7" stroke-linecap="round" stroke-miterlimit="10" d="M62.9,46.7c0,0-4.2,13.3-11.9,14.7
	c-0.7,0.1-1.3-0.4-1.3-1.1"/>
<path fill="none" stroke="#538EC7" stroke-linecap="round" stroke-miterlimit="10" d="M51.5,46c0,0,4.4-0.1,8.1,0.4
	c0.7,0.1,1.3-0.4,1.3-1.1c0-2.2-0.2-5.5-0.5-6c-0.5-0.8-1.7-2.7-10.5-2.7"/>
<circle fill="none" stroke="#538EC7" stroke-linecap="round" stroke-miterlimit="10" cx="35.3" cy="54.1" r="2.1"/>
<circle fill="none" stroke="#538EC7" stroke-linecap="round" stroke-miterlimit="10" cx="64.3" cy="54.1" r="2.1"/>
<path fill="none" stroke="#538EC7" stroke-linecap="round" stroke-miterlimit="10" d="M37.5,61.6v3.8c0,0.8-0.6,1.4-1.4,1.4h-1.5
	c-0.8,0-1.4-0.6-1.4-1.4v-5.1"/>
<path fill="none" stroke="#538EC7" stroke-linecap="round" stroke-miterlimit="10" d="M62.2,61.6v3.8c0,0.8,0.6,1.4,1.4,1.4h1.5
	c0.8,0,1.4-0.6,1.4-1.4v-5.1"/>
<circle fill="none" stroke="#538EC7" stroke-linecap="round" stroke-miterlimit="10" cx="49.7" cy="57.1" r="1.4"/>
<path fill="none" stroke="#538EC7" stroke-linecap="round" stroke-miterlimit="10" d="M53,45.9c0-1.3,1.1-2.4,2.4-2.3
	c1.3,0,2.4,1.1,2.3,2.4"/>
<line fill="none" stroke="#538EC7" stroke-linecap="round" stroke-miterlimit="10" x1="48.8" y1="37.9" x2="51" y2="37.9"/>
<circle fill="none" stroke="#538EC7" stroke-linecap="round" stroke-miterlimit="10" cx="65" cy="44.9" r="0.8"/>
<circle fill="none" stroke="#538EC7" stroke-linecap="round" stroke-miterlimit="10" cx="34.4" cy="45" r="0.8"/>
</svg>
