<?xml version="1.0" encoding="utf-8"?>
<!-- Generator: Adobe Illustrator 17.1.0, SVG Export Plug-In . SVG Version: 6.00 Build 0)  -->
<!DOCTYPE svg PUBLIC "-//W3C//DTD SVG 1.1//EN" "http://www.w3.org/Graphics/SVG/1.1/DTD/svg11.dtd">
<svg version="1.1" id="Layer_1" xmlns="http://www.w3.org/2000/svg" xmlns:xlink="http://www.w3.org/1999/xlink" x="0px" y="0px"
	 viewBox="0 0 96 96" enable-background="new 0 0 96 96" xml:space="preserve">
<g>
	<g>
		<path fill="#404952" d="M85,18.7V37c0,2.2,1.8,4,4,4c2.2,0,4-1.8,4-4V9c0-2.2-1.8-4-4-4H61c-2.2,0-4,1.8-4,4c0,2.2,1.8,4,4,4h18.3
			L54.2,38.1c-1.6,1.6-1.6,4.1,0,5.7s4.1,1.6,5.7,0L85,18.7z M41,89c0-2.2-1.8-4-4-4H18.7l25.1-25.2c1.6-1.6,1.6-4.1,0-5.7
			c-1.6-1.6-4.1-1.6-5.7,0L13,79.3V61c0-2.2-1.8-4-4-4s-4,1.8-4,4v28c0,2.2,1.8,4,4,4h28C39.2,93,41,91.2,41,89z"/>
	</g>
	<g>
		<path fill="#FFFFFF" d="M84,17.7V36c0,2.2,1.8,4,4,4c2.2,0,4-1.8,4-4V8c0-2.2-1.8-4-4-4H60c-2.2,0-4,1.8-4,4c0,2.2,1.8,4,4,4h18.3
			L53.2,37.1c-1.6,1.6-1.6,4.1,0,5.7s4.1,1.6,5.7,0L84,17.7z M40,88c0-2.2-1.8-4-4-4H17.7l25.1-25.2c1.6-1.6,1.6-4.1,0-5.7
			c-1.6-1.6-4.1-1.6-5.7,0L12,78.3V60c0-2.2-1.8-4-4-4s-4,1.8-4,4v28c0,2.2,1.8,4,4,4h28C38.2,92,40,90.2,40,88z"/>
	</g>
</g>
</svg>
