<?xml version="1.0" encoding="utf-8"?>
<!-- Generator: Adobe Illustrator 17.1.0, SVG Export Plug-In . SVG Version: 6.00 Build 0)  -->
<!DOCTYPE svg PUBLIC "-//W3C//DTD SVG 1.1//EN" "http://www.w3.org/Graphics/SVG/1.1/DTD/svg11.dtd">
<svg version="1.1" id="Layer_1" xmlns="http://www.w3.org/2000/svg" xmlns:xlink="http://www.w3.org/1999/xlink" x="0px" y="0px"
	 viewBox="559.1 59.1 1394.9 1396.4" enable-background="new 559.1 59.1 1394.9 1396.4" xml:space="preserve">
<g>
	<g>
		<path fill="#404952" d="M1828.1,292.2v285.9c0,34.4,28.1,62.5,62.5,62.5s62.5-28.1,62.5-62.5V140.6c0-34.4-28.1-62.5-62.5-62.5
			h-437.5c-34.4,0-62.5,28.1-62.5,62.5s28.1,62.5,62.5,62.5h285.9l-392.2,392.2c-25,25-25,64.1,0,89.1c25,25,64.1,25,89.1,0
			L1828.1,292.2z M1140.6,1390.6c0-34.4-28.1-62.5-62.5-62.5H792.2l392.2-393.8c25-25,25-64.1,0-89.1c-25-25-64.1-25-89.1,0
			l-392.2,393.8V953.1c0-34.4-28.1-62.5-62.5-62.5s-62.5,28.1-62.5,62.5v437.5c0,34.4,28.1,62.5,62.5,62.5h437.5
			C1112.5,1453.1,1140.6,1425,1140.6,1390.6z"/>
	</g>
	<g>
		<path fill="#FFFFFF" d="M1812.5,276.6v285.9c0,34.4,28.1,62.5,62.5,62.5s62.5-28.1,62.5-62.5V125c0-34.4-28.1-62.5-62.5-62.5
			h-437.5c-34.4,0-62.5,28.1-62.5,62.5s28.1,62.5,62.5,62.5h285.9l-392.2,392.2c-25,25-25,64.1,0,89.1c25,25,64.1,25,89.1,0
			L1812.5,276.6z M1125,1375c0-34.4-28.1-62.5-62.5-62.5H776.6l392.2-393.8c25-25,25-64.1,0-89.1c-25-25-64.1-25-89.1,0
			l-392.2,393.8V937.5c0-34.4-28.1-62.5-62.5-62.5s-62.5,28.1-62.5,62.5V1375c0,34.4,28.1,62.5,62.5,62.5h437.5
			C1096.9,1437.5,1125,1409.4,1125,1375z"/>
	</g>
</g>
</svg>
