<?xml version="1.0" encoding="utf-8"?>
<!-- Generator: Adobe Illustrator 17.1.0, SVG Export Plug-In . SVG Version: 6.00 Build 0)  -->
<!DOCTYPE svg PUBLIC "-//W3C//DTD SVG 1.1//EN" "http://www.w3.org/Graphics/SVG/1.1/DTD/svg11.dtd">
<svg version="1.1" id="Layer_1" xmlns="http://www.w3.org/2000/svg" xmlns:xlink="http://www.w3.org/1999/xlink" x="0px" y="0px"
	 viewBox="0 0 83.5 67" enable-background="new 0 0 83.5 67" xml:space="preserve">
<g>
	<g>
		<path fill="#404952" d="M78.2,30H15.9L37.1,8.8c1.6-1.6,1.6-4.1,0-5.7c-1.6-1.6-4.1-1.6-5.7,0l-28,28c-1.6,1.6-1.6,4.1,0,5.7
			l28,28c0.8,0.8,1.8,1.2,2.8,1.2c1,0,2-0.4,2.8-1.2c1.6-1.6,1.6-4.1,0-5.7L15.9,38h62.3c2.2,0,4-1.8,4-4C82.2,31.8,80.5,30,78.2,30
			z"/>
	</g>
	<g>
		<path fill="#FFFFFF" d="M77.2,29H14.9L36.1,7.8c1.6-1.6,1.6-4.1,0-5.7c-1.6-1.6-4.1-1.6-5.7,0l-28,28c-1.6,1.6-1.6,4.1,0,5.7
			l28,28c0.8,0.8,1.8,1.2,2.8,1.2c1,0,2-0.4,2.8-1.2c1.6-1.6,1.6-4.1,0-5.7L14.9,37h62.3c2.2,0,4-1.8,4-4C81.2,30.8,79.5,29,77.2,29
			z"/>
	</g>
</g>
</svg>
