<?xml version="1.0" encoding="utf-8"?>
<!-- Generator: Adobe Illustrator 17.1.0, SVG Export Plug-In . SVG Version: 6.00 Build 0)  -->
<!DOCTYPE svg PUBLIC "-//W3C//DTD SVG 1.1//EN" "http://www.w3.org/Graphics/SVG/1.1/DTD/svg11.dtd">
<svg version="1.1" id="Calque_1" xmlns="http://www.w3.org/2000/svg" xmlns:xlink="http://www.w3.org/1999/xlink" x="0px" y="0px"
	 viewBox="0 0 60 60" enable-background="new 0 0 60 60" xml:space="preserve">
<circle fill="#404952" cx="30" cy="30" r="30"/>
<path fill="#F1F1F1" d="M25.5,17.5h-4.5c-1.9,0-3.4,1.5-3.4,3.4v4.5c0,1.9,1.5,3.4,3.4,3.4h4.5c1.9,0,3.4-1.5,3.4-3.4v-4.5
	C28.9,19,27.4,17.5,25.5,17.5z M26.6,25.4c0,0.6-0.5,1.1-1.1,1.1h-4.5c-0.6,0-1.1-0.5-1.1-1.1v-4.5c0-0.6,0.5-1.1,1.1-1.1h4.5
	c0.6,0,1.1,0.5,1.1,1.1V25.4z M39.1,17.5h-4.5c-1.9,0-3.4,1.5-3.4,3.4v4.5c0,1.9,1.5,3.4,3.4,3.4h4.5c1.9,0,3.4-1.5,3.4-3.4v-4.5
	C42.5,19,41,17.5,39.1,17.5z M40.2,25.4c0,0.6-0.5,1.1-1.1,1.1h-4.5c-0.6,0-1.1-0.5-1.1-1.1v-4.5c0-0.6,0.5-1.1,1.1-1.1h4.5
	c0.6,0,1.1,0.5,1.1,1.1V25.4z M39.1,31.1h-4.5c-1.9,0-3.4,1.5-3.4,3.4v4.5c0,1.9,1.5,3.4,3.4,3.4h4.5c1.9,0,3.4-1.5,3.4-3.4v-4.5
	C42.5,32.6,41,31.1,39.1,31.1z M40.2,39.1c0,0.6-0.5,1.1-1.1,1.1h-4.5c-0.6,0-1.1-0.5-1.1-1.1v-4.5c0-0.6,0.5-1.1,1.1-1.1h4.5
	c0.6,0,1.1,0.5,1.1,1.1V39.1z M25.5,31.1h-4.5c-1.9,0-3.4,1.5-3.4,3.4v4.5c0,1.9,1.5,3.4,3.4,3.4h4.5c1.9,0,3.4-1.5,3.4-3.4v-4.5
	C28.9,32.6,27.4,31.1,25.5,31.1z M26.6,39.1c0,0.6-0.5,1.1-1.1,1.1h-4.5c-0.6,0-1.1-0.5-1.1-1.1v-4.5c0-0.6,0.5-1.1,1.1-1.1h4.5
	c0.6,0,1.1,0.5,1.1,1.1V39.1z"/>
</svg>
