<?xml version="1.0" encoding="utf-8"?>
<!-- Generator: Adobe Illustrator 17.1.0, SVG Export Plug-In . SVG Version: 6.00 Build 0)  -->
<!DOCTYPE svg PUBLIC "-//W3C//DTD SVG 1.1//EN" "http://www.w3.org/Graphics/SVG/1.1/DTD/svg11.dtd">
<svg version="1.1" id="Layer_1" xmlns="http://www.w3.org/2000/svg" xmlns:xlink="http://www.w3.org/1999/xlink" x="0px" y="0px"
	 viewBox="0 0 96 96" enable-background="new 0 0 96 96" xml:space="preserve">
<g>
	<g>
		<path fill="#404952" d="M9,57c0,2.2,1.8,4,4,4h18.3L6.2,86.2c-1.6,1.6-1.6,4.1,0,5.7c1.6,1.6,4.1,1.6,5.7,0L37,66.7V85
			c0,2.2,1.8,4,4,4c2.2,0,4-1.8,4-4V57c0-2.2-1.8-4-4-4H13C10.8,53,9,54.8,9,57z M86.2,6.2L61,31.3V13c0-2.2-1.8-4-4-4
			c-2.2,0-4,1.8-4,4v28c0,2.2,1.8,4,4,4h28c2.2,0,4-1.8,4-4c0-2.2-1.8-4-4-4H66.7l25.1-25.2c1.6-1.6,1.6-4.1,0-5.7
			C90.3,4.6,87.7,4.6,86.2,6.2z"/>
	</g>
	<g>
		<path fill="#FFFFFF" d="M8,56c0,2.2,1.8,4,4,4h18.3L5.2,85.2c-1.6,1.6-1.6,4.1,0,5.7c1.6,1.6,4.1,1.6,5.7,0L36,65.7V84
			c0,2.2,1.8,4,4,4c2.2,0,4-1.8,4-4V56c0-2.2-1.8-4-4-4H12C9.8,52,8,53.8,8,56z M85.2,5.2L60,30.3V12c0-2.2-1.8-4-4-4
			c-2.2,0-4,1.8-4,4v28c0,2.2,1.8,4,4,4h28c2.2,0,4-1.8,4-4c0-2.2-1.8-4-4-4H65.7l25.1-25.2c1.6-1.6,1.6-4.1,0-5.7
			C89.3,3.6,86.7,3.6,85.2,5.2z"/>
	</g>
</g>
</svg>
