<?xml version="1.0" encoding="utf-8"?>
<!-- Generator: Adobe Illustrator 17.1.0, SVG Export Plug-In . SVG Version: 6.00 Build 0)  -->
<!DOCTYPE svg PUBLIC "-//W3C//DTD SVG 1.1//EN" "http://www.w3.org/Graphics/SVG/1.1/DTD/svg11.dtd">
<svg version="1.1" id="Calque_1" xmlns="http://www.w3.org/2000/svg" xmlns:xlink="http://www.w3.org/1999/xlink" x="0px" y="0px"
	 viewBox="28.8 29.4 41.2 41.4" enable-background="new 28.8 29.4 41.2 41.4" xml:space="preserve">
<path fill="none" stroke="#FFFFFF" stroke-linejoin="round" stroke-miterlimit="10" d="M60.2,60.3l3.9-7.4c0.9-1.7,0.9-3.8,0-5.5
	l-3.4-6.6c-0.8-1.6-2.2-2.7-3.9-3.1L51,36.3c-0.9-0.2-1.9-0.2-2.8,0l-5.8,1.4c-1.7,0.4-3.1,1.6-3.9,3.1l-3.4,6.6
	c-0.9,1.7-0.9,3.8,0,5.5l4.3,7.8"/>
<path fill="none" stroke="#FFFFFF" stroke-linejoin="round" stroke-miterlimit="10" d="M38.5,61.9l2.5-3.1c0.6-0.7,1.4-1.1,2.3-1.1
	l12.9-0.3c0.9,0,1.7,0.3,2.3,1l2.7,3c0.8,0.9,1,2.3,0.4,3.4c-1.2,2.2-4.2,5.4-11.9,5.4c-7.9,0-10.7-3.2-11.7-5.3
	C37.6,63.9,37.8,62.7,38.5,61.9z"/>
<circle fill="none" stroke="#FFFFFF" stroke-linejoin="round" stroke-miterlimit="10" cx="43.9" cy="63.3" r="1.7"/>
<circle fill="none" stroke="#FFFFFF" stroke-linejoin="round" stroke-miterlimit="10" cx="55.9" cy="63.3" r="1.7"/>
<path fill="none" stroke="#FFFFFF" stroke-linejoin="round" stroke-miterlimit="10" d="M40.1,45.2c0,0-0.4,4.4,3.1,4.4
	s3.2-3.7,3.2-4.3"/>
<path fill="none" stroke="#FFFFFF" stroke-linejoin="round" stroke-miterlimit="10" d="M58.6,45.2c0,0,0.4,4.4-3.1,4.4
	s-3.2-3.7-3.2-4.3"/>
<path fill="none" stroke="#FFFFFF" stroke-linejoin="round" stroke-miterlimit="10" d="M34,51.1c0,0-5.3-0.8-4.6-5.6
	s1.8-9.6,4.8-5.8s3.1,3.4,3.1,3.4"/>
<path fill="none" stroke="#FFFFFF" stroke-linejoin="round" stroke-miterlimit="10" d="M64.8,51.1c0,0,5.3-0.8,4.6-5.6
	s-1.8-9.6-4.8-5.8S62,42.8,62,42.8"/>
<path fill="none" stroke="#FFFFFF" stroke-linejoin="round" stroke-miterlimit="10" d="M35.7,41.7c0,0-4.6-5.8,6.8-11.8
	c-2.1,2.1-4.9,4.4-3.2,9.1"/>
<path fill="none" stroke="#FFFFFF" stroke-linejoin="round" stroke-miterlimit="10" d="M64.2,40.5c0,0,4.5-4.6-7-10.6
	c2.1,2.1,4.6,4.8,2.9,9.4"/>
</svg>
