<?xml version="1.0" encoding="utf-8"?>
<!-- Generator: Adobe Illustrator 17.1.0, SVG Export Plug-In . SVG Version: 6.00 Build 0)  -->
<!DOCTYPE svg PUBLIC "-//W3C//DTD SVG 1.1//EN" "http://www.w3.org/Graphics/SVG/1.1/DTD/svg11.dtd">
<svg version="1.1" id="Calque_1" xmlns="http://www.w3.org/2000/svg" xmlns:xlink="http://www.w3.org/1999/xlink" x="0px" y="0px"
	 viewBox="28.5 28.7 43 42.7" enable-background="new 28.5 28.7 43 42.7" xml:space="preserve">
<path fill="none" stroke="#FFFFFF" stroke-miterlimit="10" d="M53.5,40.6v-8h0c0-1.9-1.5-3.5-3.5-3.5s-3.5,1.5-3.5,3.5h0v8h0v8.6h0
	c0,1.9,1.5,3.5,3.5,3.5s3.5-1.5,3.5-3.5h0L53.5,40.6L53.5,40.6L53.5,40.6z"/>
<circle fill="none" stroke="#FFFFFF" stroke-miterlimit="10" cx="50" cy="49.2" r="1"/>
<path fill="none" stroke="#FFFFFF" stroke-miterlimit="10" d="M46.4,44.3h-15c-1,0-1.8,0.7-2,1.6c-0.3,1.6-0.4,3.3-0.4,5
	c0.5,10.6,9.2,19.4,19.8,19.9c12.1,0.7,22.2-9,22.2-21c0-1.6-0.2-2.8-0.5-4.1c-0.2-0.9-1-1.5-1.9-1.5H53.3"/>
<line fill="none" stroke="#FFFFFF" stroke-linecap="round" stroke-miterlimit="10" x1="31" y1="49.1" x2="44.7" y2="49.1"/>
<line fill="none" stroke="#FFFFFF" stroke-linecap="round" stroke-miterlimit="10" x1="55.5" y1="49.1" x2="69.2" y2="49.1"/>
<line fill="none" stroke="#FFFFFF" stroke-linecap="round" stroke-miterlimit="10" x1="32.1" y1="54" x2="46.8" y2="54"/>
<line fill="none" stroke="#FFFFFF" stroke-linecap="round" stroke-miterlimit="10" x1="53.1" y1="54" x2="67.8" y2="54"/>
<line fill="none" stroke="#FFFFFF" stroke-linecap="round" stroke-miterlimit="10" x1="33.2" y1="58.9" x2="66.9" y2="58.9"/>
<line fill="none" stroke="#FFFFFF" stroke-linecap="round" stroke-miterlimit="10" x1="38.2" y1="63.8" x2="61.1" y2="63.8"/>
<line fill="none" stroke="#FFFFFF" stroke-linecap="round" stroke-miterlimit="10" x1="43.8" y1="67.4" x2="55.5" y2="67.4"/>
<line fill="none" stroke="#FFFFFF" stroke-linecap="round" stroke-miterlimit="10" x1="34.3" y1="45.9" x2="34.3" y2="60"/>
<line fill="none" stroke="#FFFFFF" stroke-linecap="round" stroke-miterlimit="10" x1="42.1" y1="45.9" x2="42.1" y2="66.4"/>
<line fill="none" stroke="#FFFFFF" stroke-linecap="round" stroke-miterlimit="10" x1="49.9" y1="54.5" x2="49.9" y2="68"/>
<line fill="none" stroke="#FFFFFF" stroke-linecap="round" stroke-miterlimit="10" x1="57.8" y1="45.9" x2="57.8" y2="66.5"/>
<line fill="none" stroke="#FFFFFF" stroke-linecap="round" stroke-miterlimit="10" x1="65.6" y1="45.9" x2="65.6" y2="59.8"/>
</svg>
