<?xml version="1.0" encoding="utf-8"?>
<!-- Generator: Adobe Illustrator 17.1.0, SVG Export Plug-In . SVG Version: 6.00 Build 0)  -->
<!DOCTYPE svg PUBLIC "-//W3C//DTD SVG 1.1//EN" "http://www.w3.org/Graphics/SVG/1.1/DTD/svg11.dtd">
<svg version="1.1" id="Calque_1" xmlns="http://www.w3.org/2000/svg" xmlns:xlink="http://www.w3.org/1999/xlink" x="0px" y="0px"
	 viewBox="30.7 33.3 37.1 34.3" enable-background="new 30.7 33.3 37.1 34.3" xml:space="preserve">
<path fill="none" stroke="#FFFFFF" stroke-linecap="round" stroke-linejoin="round" stroke-miterlimit="10" d="M31.6,46.8
	c0.1-0.4,0.5-0.6,0.9-0.6c1-0.1,3.1-0.5,6.8,1.3c1.4,0.7,7.1,1.8,8.2-4.8c0.1-0.3,0.3-0.6,0.7-0.7c1.2-0.3,3.1-0.4,5.1,0.1
	c0.4,0.1,0.7,0.5,0.8,0.9c0.5,6.6,7.9,3.2,9.5,5.2c1,1.3,1,3.1,0.9,4.3c-0.1,0.6,0.4,1.1,1,1.1h0.8c0.6,0,1,0.4,1,1v0.2
	c0,0.6-0.4,1.9-1,1.9h-7.2c-0.6,0-1-1.4-1-1.9v-0.2c0-0.6,0.4-1,1-1h1.6c0,0-1.1-2.4-5.6-0.4s-6.8,2.3-11.1,0.1s-8.4-0.2-9.2,0
	c-0.8,0.2-2.8-0.1-3.2-0.5C31.3,52.6,30.9,48.8,31.6,46.8z"/>
<path fill="none" stroke="#FFFFFF" stroke-linecap="round" stroke-linejoin="round" stroke-miterlimit="10" d="M49.3,35.5
	c0-0.4,0.1-0.7,0.4-1L45.8,34c-0.4,0-0.7,0.2-0.7,0.6v1.7c0,0.4,0.3,0.7,0.7,0.6l3.6-0.6C49.3,36,49.3,35.8,49.3,35.5z"/>
<path fill="none" stroke="#FFFFFF" stroke-linecap="round" stroke-linejoin="round" stroke-miterlimit="10" d="M52.6,35.5
	c0-0.4-0.1-0.7-0.4-1l3.8-0.5c0.4,0,0.7,0.2,0.7,0.6v1.7c0,0.4-0.3,0.7-0.7,0.6l-3.6-0.6C52.5,36.1,52.6,35.8,52.6,35.5z"/>
<circle fill="none" stroke="#FFFFFF" stroke-linecap="round" stroke-linejoin="round" stroke-miterlimit="10" cx="50.9" cy="35.5" r="1.6"/>
<path fill="none" stroke="#FFFFFF" stroke-linecap="round" stroke-linejoin="round" stroke-miterlimit="10" d="M50.3,37.1v1.3
	c0,0.4-0.3,0.8-0.7,0.9l-0.8,0.3c-0.4,0.1-0.7,0.5-0.7,0.9v1.5"/>
<path fill="none" stroke="#FFFFFF" stroke-linecap="round" stroke-linejoin="round" stroke-miterlimit="10" d="M51.8,37.1v1.3
	c0,0.4,0.3,0.8,0.7,0.9l0.8,0.3c0.4,0.1,0.7,0.5,0.7,0.9v1.5"/>
<path fill="none" stroke="#FFFFFF" stroke-linecap="round" stroke-linejoin="round" stroke-miterlimit="10" d="M62.8,67.1
	c6.5,0-0.1-8.9-0.1-8.9S56.2,67.1,62.8,67.1z"/>
</svg>
