<?xml version="1.0" encoding="utf-8"?>
<!-- Generator: Adobe Illustrator 17.1.0, SVG Export Plug-In . SVG Version: 6.00 Build 0)  -->
<!DOCTYPE svg PUBLIC "-//W3C//DTD SVG 1.1//EN" "http://www.w3.org/Graphics/SVG/1.1/DTD/svg11.dtd">
<svg version="1.1" id="Calque_1" xmlns="http://www.w3.org/2000/svg" xmlns:xlink="http://www.w3.org/1999/xlink" x="0px" y="0px"
	 viewBox="31.9 32.8 34.9 34.9" enable-background="new 31.9 32.8 34.9 34.9" xml:space="preserve">
<path fill="none" stroke="#FFFFFF" stroke-miterlimit="10" d="M49,41.9c0-2.2,0.9-4.4,2.5-6.1c3.4-3.4,8.9-3.4,12.3,0
	s3.4,8.9,0,12.3c-1.6,1.6-3.8,2.5-5.9,2.5"/>
<path fill="none" stroke="#FFFFFF" stroke-miterlimit="10" d="M48.7,60.1l-9.1-9.1c-0.8-0.8-0.8-2.2,0-3l6.1-6.1
	c0.8-0.8,2.2-0.8,3,0l9.1,9.1c0.8,0.8,0.8,2.2,0,3l-6.1,6.1C50.9,60.9,49.5,60.9,48.7,60.1z"/>
<path fill="none" stroke="#FFFFFF" stroke-linejoin="round" stroke-miterlimit="10" d="M47.1,58.2l-11.5,8.4l0,0
	c-0.7,0.7-1.9,0.7-2.6,0s-0.7-1.9,0-2.6l0,0l8.4-11.5"/>
<path fill="none" stroke="#FFFFFF" stroke-width="0.5" stroke-linecap="round" stroke-linejoin="round" stroke-miterlimit="10" d="
	M57.8,49.3c0-0.1,6.9,0.3,7.1-8"/>
<path fill="none" stroke="#FFFFFF" stroke-width="0.5" stroke-linecap="round" stroke-linejoin="round" stroke-miterlimit="10" d="
	M55.9,47.8c0,0,5.1,0.5,6.5-3.5"/>
<path fill="none" stroke="#FFFFFF" stroke-width="0.5" stroke-linecap="round" stroke-linejoin="round" stroke-miterlimit="10" d="
	M59.3,49.1c-0.1-0.1-3.9-1.7-5.4-4.8"/>
<path fill="none" stroke="#FFFFFF" stroke-width="0.5" stroke-linecap="round" stroke-linejoin="round" stroke-miterlimit="10" d="
	M61.4,48.3c-0.1-0.3-1.7,0.2-4.7-3.5"/>
<path fill="none" stroke="#FFFFFF" stroke-width="0.5" stroke-linecap="round" stroke-linejoin="round" stroke-miterlimit="10" d="
	M54.2,46c0,0,3,0.3,4.4-1.1"/>
<path fill="none" stroke="#FFFFFF" stroke-width="0.5" stroke-linecap="round" stroke-linejoin="round" stroke-miterlimit="10" d="
	M62.8,47c0,0-1.4-0.4-1.9-1.3"/>
</svg>
