<?xml version="1.0" encoding="utf-8"?>
<!-- Generator: Adobe Illustrator 17.1.0, SVG Export Plug-In . SVG Version: 6.00 Build 0)  -->
<!DOCTYPE svg PUBLIC "-//W3C//DTD SVG 1.1//EN" "http://www.w3.org/Graphics/SVG/1.1/DTD/svg11.dtd">
<svg version="1.1" id="Calque_1" xmlns="http://www.w3.org/2000/svg" xmlns:xlink="http://www.w3.org/1999/xlink" x="0px" y="0px"
	 viewBox="30 31.1 38.3 38.3" enable-background="new 30 31.1 38.3 38.3" xml:space="preserve">
<path fill="none" stroke="#FFFFFF" stroke-linecap="round" stroke-linejoin="round" stroke-miterlimit="10" d="M64.1,39.9l-4.5-4.5
	c-0.4-0.4-0.5-1.1,0-1.6l1.9-1.9c0.4-0.4,1.1-0.4,1.6,0l4.5,4.5c0.4,0.4,0.5,1.1,0,1.6l-1.9,1.9C65.2,40.3,64.5,40.3,64.1,39.9z"/>
<path fill="none" stroke="#FFFFFF" stroke-linecap="round" stroke-linejoin="round" stroke-miterlimit="10" d="M63.8,39.6
	c0,0-2.3,3.9-0.6,7.3c0.6,1.1,0.3,2.5-0.6,3.4l-2.1,2.1c-0.2,0.2-1-0.2-1.2,0.1c-0.2,0.2,0.1,1.1-0.1,1.3c-1.1,1.1-2.3,2.3-3.5,3.5
	c-0.2,0.2-1-0.2-1.2,0.1c-0.2,0.2,0.2,1,0,1.2c-1.1,1.1-2.3,2.3-3.4,3.4c-0.3,0.3-1.1,0-1.4,0.2c-0.2,0.2,0.2,1,0,1.2L44.9,68
	c-0.9,0.9-2.2,1.1-3.3,0.6c-1.5-0.6-3.7-1.9-6.3-4.5l0,0c-2.6-2.6-3.9-4.8-4.5-6.3c-0.5-1.1-0.2-2.4,0.6-3.3l4.8-4.8
	c0.2-0.2,1,0.2,1.2,0c0.3-0.3,0-1.1,0.2-1.4c1.1-1.1,2.2-2.2,3.4-3.4c0.2-0.2,1,0.2,1.2,0c0.2-0.2-0.2-1,0.1-1.2
	c1.2-1.2,2.4-2.4,3.5-3.5c0.2-0.2,1.1,0.1,1.3-0.1c0.2-0.2-0.2-1,0.1-1.2l2.1-2.1c0.9-0.9,2.3-1.1,3.4-0.6c3.4,1.7,7.3-0.6,7.3-0.6"
	/>
</svg>
