<?xml version="1.0" encoding="utf-8"?>
<!-- Generator: Adobe Illustrator 17.1.0, SVG Export Plug-In . SVG Version: 6.00 Build 0)  -->
<!DOCTYPE svg PUBLIC "-//W3C//DTD SVG 1.1//EN" "http://www.w3.org/Graphics/SVG/1.1/DTD/svg11.dtd">
<svg version="1.1" id="Calque_1" xmlns="http://www.w3.org/2000/svg" xmlns:xlink="http://www.w3.org/1999/xlink" x="0px" y="0px"
	 viewBox="33.1 31.5 33.7 36.9" enable-background="new 33.1 31.5 33.7 36.9" xml:space="preserve">
<g>
	<path fill="none" stroke="#FFFFFF" stroke-linecap="round" stroke-linejoin="round" stroke-miterlimit="10" d="M39,47.2h-2.1
		c-0.4,0-0.8-0.4-0.8-0.8v-2.1c0-0.4,0.4-0.8,0.8-0.8H39c0.4,0,0.8,0.4,0.8,0.8v2.1C39.8,46.9,39.5,47.2,39,47.2z"/>
	<path fill="none" stroke="#FFFFFF" stroke-linecap="round" stroke-linejoin="round" stroke-miterlimit="10" d="M46.2,47.2h-2.1
		c-0.4,0-0.8-0.4-0.8-0.8v-2.1c0-0.4,0.4-0.8,0.8-0.8h2.1c0.4,0,0.8,0.4,0.8,0.8v2.1C47,46.9,46.6,47.2,46.2,47.2z"/>
	<path fill="none" stroke="#FFFFFF" stroke-linecap="round" stroke-linejoin="round" stroke-miterlimit="10" d="M39,54.2h-2.1
		c-0.4,0-0.8-0.4-0.8-0.8v-2.1c0-0.4,0.4-0.8,0.8-0.8H39c0.4,0,0.8,0.4,0.8,0.8v2.1C39.8,53.9,39.5,54.2,39,54.2z"/>
	<path fill="none" stroke="#FFFFFF" stroke-linecap="round" stroke-linejoin="round" stroke-miterlimit="10" d="M46.2,54.2h-2.1
		c-0.4,0-0.8-0.4-0.8-0.8v-2.1c0-0.4,0.4-0.8,0.8-0.8h2.1c0.4,0,0.8,0.4,0.8,0.8v2.1C47,53.9,46.6,54.2,46.2,54.2z"/>
	<path fill="none" stroke="#FFFFFF" stroke-linecap="round" stroke-linejoin="round" stroke-miterlimit="10" d="M39,61.2h-2.1
		c-0.4,0-0.8-0.4-0.8-0.8v-2.1c0-0.4,0.4-0.8,0.8-0.8H39c0.4,0,0.8,0.4,0.8,0.8v2.1C39.8,60.9,39.5,61.2,39,61.2z"/>
	<path fill="none" stroke="#FFFFFF" stroke-linecap="round" stroke-linejoin="round" stroke-miterlimit="10" d="M46.2,61.2h-2.1
		c-0.4,0-0.8-0.4-0.8-0.8v-2.1c0-0.4,0.4-0.8,0.8-0.8h2.1c0.4,0,0.8,0.4,0.8,0.8v2.1C47,60.9,46.6,61.2,46.2,61.2z"/>
	<path fill="none" stroke="#FFFFFF" stroke-linecap="round" stroke-linejoin="round" stroke-miterlimit="10" d="M55.4,38.6h-2.1
		c-0.4,0-0.8-0.4-0.8-0.8v-2.1c0-0.4,0.4-0.8,0.8-0.8h2.1c0.4,0,0.8,0.4,0.8,0.8v2.1C56.2,38.2,55.8,38.6,55.4,38.6z"/>
	<path fill="none" stroke="#FFFFFF" stroke-linecap="round" stroke-linejoin="round" stroke-miterlimit="10" d="M62.6,38.6h-2.1
		c-0.4,0-0.8-0.4-0.8-0.8v-2.1c0-0.4,0.4-0.8,0.8-0.8h2.1c0.4,0,0.8,0.4,0.8,0.8v2.1C63.4,38.2,63,38.6,62.6,38.6z"/>
	<path fill="none" stroke="#FFFFFF" stroke-linecap="round" stroke-linejoin="round" stroke-miterlimit="10" d="M55.4,45.6h-2.1
		c-0.4,0-0.8-0.4-0.8-0.8v-2.1c0-0.4,0.4-0.8,0.8-0.8h2.1c0.4,0,0.8,0.4,0.8,0.8v2.1C56.2,45.2,55.8,45.6,55.4,45.6z"/>
	<path fill="none" stroke="#FFFFFF" stroke-linecap="round" stroke-linejoin="round" stroke-miterlimit="10" d="M62.6,45.6h-2.1
		c-0.4,0-0.8-0.4-0.8-0.8v-2.1c0-0.4,0.4-0.8,0.8-0.8h2.1c0.4,0,0.8,0.4,0.8,0.8v2.1C63.4,45.2,63,45.6,62.6,45.6z"/>
	<path fill="none" stroke="#FFFFFF" stroke-linecap="round" stroke-linejoin="round" stroke-miterlimit="10" d="M55.4,52.6h-2.1
		c-0.4,0-0.8-0.4-0.8-0.8v-2.1c0-0.4,0.4-0.8,0.8-0.8h2.1c0.4,0,0.8,0.4,0.8,0.8v2.1C56.2,52.2,55.8,52.6,55.4,52.6z"/>
	<path fill="none" stroke="#FFFFFF" stroke-linecap="round" stroke-linejoin="round" stroke-miterlimit="10" d="M62.6,52.6h-2.1
		c-0.4,0-0.8-0.4-0.8-0.8v-2.1c0-0.4,0.4-0.8,0.8-0.8h2.1c0.4,0,0.8,0.4,0.8,0.8v2.1C63.4,52.2,63,52.6,62.6,52.6z"/>
	<path fill="none" stroke="#FFFFFF" stroke-linecap="round" stroke-linejoin="round" stroke-miterlimit="10" d="M55.4,61.2h-2.1
		c-0.4,0-0.8-0.4-0.8-0.8v-2.1c0-0.4,0.4-0.8,0.8-0.8h2.1c0.4,0,0.8,0.4,0.8,0.8v2.1C56.2,60.9,55.8,61.2,55.4,61.2z"/>
	<path fill="none" stroke="#FFFFFF" stroke-linecap="round" stroke-linejoin="round" stroke-miterlimit="10" d="M62.6,61.2h-2.1
		c-0.4,0-0.8-0.4-0.8-0.8v-2.1c0-0.4,0.4-0.8,0.8-0.8h2.1c0.4,0,0.8,0.4,0.8,0.8v2.1C63.4,60.9,63,61.2,62.6,61.2z"/>
	<path fill="none" stroke="#FFFFFF" stroke-linecap="round" stroke-linejoin="round" stroke-miterlimit="10" d="M33.7,57.8
		c3.2,5.4,8.8,9.2,15.4,9.9c0.5,0.1,0.9-0.3,0.9-0.8V41.5c0-0.4-0.4-0.8-0.8-0.8H34.4c-0.4,0-0.8,0.4-0.8,0.8v15.9
		C33.6,57.6,33.7,57.7,33.7,57.8z"/>
	<path fill="none" stroke="#FFFFFF" stroke-linecap="round" stroke-linejoin="round" stroke-miterlimit="10" d="M66.2,33.4
		c-0.4-0.4-0.8-0.8-1.2-1.2c-0.2-0.1-0.3-0.2-0.5-0.2H50.8c-0.4,0-0.8,0.4-0.8,0.8v35c0.4,0,0.9,0.1,1.3,0.1
		c5.8,0,11.1-2.5,14.8-6.4c0.1-0.2,0.2-0.4,0.2-0.6V34C66.4,33.8,66.3,33.6,66.2,33.4z"/>
</g>
</svg>
