<?xml version="1.0" encoding="utf-8"?>
<!-- Generator: Adobe Illustrator 17.1.0, SVG Export Plug-In . SVG Version: 6.00 Build 0)  -->
<!DOCTYPE svg PUBLIC "-//W3C//DTD SVG 1.1//EN" "http://www.w3.org/Graphics/SVG/1.1/DTD/svg11.dtd">
<svg version="1.1" id="Calque_1" xmlns="http://www.w3.org/2000/svg" xmlns:xlink="http://www.w3.org/1999/xlink" x="0px" y="0px"
	 viewBox="31.2 32 36.9 36.9" enable-background="new 31.2 32 36.9 36.9" xml:space="preserve">
<path fill="none" stroke="#FFFFFF" stroke-miterlimit="10" d="M46.2,65.6L64.8,47c0.1-0.1,0.2-0.2,0.3-0.3c3.3-3.3,3.3-8.6,0-11.8
	c-3.3-3.3-8.6-3.3-11.8,0c-0.1,0.1-0.2,0.2-0.3,0.3L34.4,53.8c-0.1,0.1-0.2,0.2-0.3,0.3c-0.1,0.1-0.2,0.2-0.3,0.3l-0.2,0.2l0,0
	c-2.8,3.3-2.7,8.3,0.4,11.4c3.1,3.1,8.1,3.3,11.4,0.4l0,0l0.2-0.2c0.1-0.1,0.2-0.2,0.3-0.3C46.1,65.9,46.1,65.7,46.2,65.6z"/>
<line fill="none" stroke="#FFFFFF" stroke-miterlimit="10" x1="43.9" y1="44.5" x2="55.5" y2="56.1"/>
<line fill="none" stroke="#FFFFFF" stroke-linecap="round" stroke-miterlimit="10" x1="37.7" y1="50.6" x2="42.2" y2="50.6"/>
<line fill="none" stroke="#FFFFFF" stroke-linecap="round" stroke-miterlimit="10" x1="39.9" y1="48.4" x2="44.4" y2="48.4"/>
<line fill="none" stroke="#FFFFFF" stroke-linecap="round" stroke-miterlimit="10" x1="42" y1="46.3" x2="45.4" y2="46.3"/>
<line fill="none" stroke="#FFFFFF" stroke-linecap="round" stroke-miterlimit="10" x1="35.5" y1="52.8" x2="40" y2="52.8"/>
<line fill="none" stroke="#FFFFFF" stroke-linecap="round" stroke-miterlimit="10" x1="33.5" y1="54.9" x2="38" y2="54.9"/>
<line fill="none" stroke="#FFFFFF" stroke-linecap="round" stroke-miterlimit="10" x1="32.3" y1="57.1" x2="36.1" y2="57.1"/>
<line fill="none" stroke="#FFFFFF" stroke-linecap="round" stroke-miterlimit="10" x1="31.8" y1="59.2" x2="35.3" y2="59.2"/>
<line fill="none" stroke="#FFFFFF" stroke-linecap="round" stroke-miterlimit="10" x1="31.8" y1="61.4" x2="34.8" y2="61.4"/>
<line fill="none" stroke="#FFFFFF" stroke-linecap="round" stroke-miterlimit="10" x1="32.5" y1="63.5" x2="35.1" y2="63.5"/>
<line fill="none" stroke="#FFFFFF" stroke-linecap="round" stroke-miterlimit="10" x1="34.1" y1="65.7" x2="36.7" y2="65.7"/>
</svg>
