<?xml version="1.0" encoding="utf-8"?>
<!-- Generator: Adobe Illustrator 17.1.0, SVG Export Plug-In . SVG Version: 6.00 Build 0)  -->
<!DOCTYPE svg PUBLIC "-//W3C//DTD SVG 1.1//EN" "http://www.w3.org/Graphics/SVG/1.1/DTD/svg11.dtd">
<svg version="1.1" id="Calque_1" xmlns="http://www.w3.org/2000/svg" xmlns:xlink="http://www.w3.org/1999/xlink" x="0px" y="0px"
	 viewBox="30.9 28.6 37.6 42.5" enable-background="new 30.9 28.6 37.6 42.5" xml:space="preserve">
<path fill="none" stroke="#FFFFFF" stroke-miterlimit="10" d="M59,41.8h-2.2v5.1c0,0-0.6,5.2,9.2,15.7c0.7,0.8,0.7,2,0,2.7
	c-2,2.1-5.8,5.3-14,5.3h-0.1c-8.3-0.1-12.1-3.2-14-5.3c-0.7-0.8-0.7-2,0-2.7c9.8-10.4,9.2-15.7,9.2-15.7v-5.1h-2.2"/>
<path fill="none" stroke="#FFFFFF" stroke-miterlimit="10" d="M41.3,62.3l2.7-2.9c0.6-0.7,1.6-0.8,2.4-0.4l2.9,1.7
	c0.6,0.3,1.3,0.3,1.9,0.1l4.6-2.2c0.7-0.4,1.6-0.2,2.2,0.3l3.3,3c0.8,0.8,0.9,2,0.1,2.8c-1.5,1.6-4.4,3.7-9.7,3.7
	c-6.1,0-9-1.8-10.5-3.4C40.6,64.3,40.6,63.1,41.3,62.3z"/>
<circle fill="none" stroke="#FFFFFF" stroke-miterlimit="10" cx="50.9" cy="45.3" r="1.8"/>
<circle fill="none" stroke="#FFFFFF" stroke-miterlimit="10" cx="54.4" cy="38.9" r="1.8"/>
<circle fill="none" stroke="#FFFFFF" stroke-miterlimit="10" cx="57.9" cy="33" r="1.8"/>
<circle fill="none" stroke="#FFFFFF" stroke-miterlimit="10" cx="65.3" cy="39.9" r="1.8"/>
<circle fill="none" stroke="#FFFFFF" stroke-miterlimit="10" cx="66.2" cy="48.1" r="1.8"/>
<circle fill="none" stroke="#FFFFFF" stroke-miterlimit="10" cx="49.7" cy="30.9" r="1.8"/>
<circle fill="none" stroke="#FFFFFF" stroke-miterlimit="10" cx="39.1" cy="35.9" r="1.8"/>
<circle fill="none" stroke="#FFFFFF" stroke-miterlimit="10" cx="34.3" cy="43.1" r="1.8"/>
<circle fill="none" stroke="#FFFFFF" stroke-miterlimit="10" cx="33.2" cy="51" r="1.8"/>
<circle fill="none" stroke="#FFFFFF" stroke-miterlimit="10" cx="40.5" cy="42.6" r="1.8"/>
<circle fill="none" stroke="#FFFFFF" stroke-miterlimit="10" cx="46" cy="36.1" r="1.8"/>
<circle fill="none" stroke="#FFFFFF" stroke-miterlimit="10" cx="52.2" cy="53.9" r="1.8"/>
</svg>
