<?xml version="1.0" encoding="utf-8"?>
<!-- Generator: Adobe Illustrator 17.1.0, SVG Export Plug-In . SVG Version: 6.00 Build 0)  -->
<!DOCTYPE svg PUBLIC "-//W3C//DTD SVG 1.1//EN" "http://www.w3.org/Graphics/SVG/1.1/DTD/svg11.dtd">
<svg version="1.1" id="Calque_1" xmlns="http://www.w3.org/2000/svg" xmlns:xlink="http://www.w3.org/1999/xlink" x="0px" y="0px"
	 viewBox="29.9 28 40.1 43.5" enable-background="new 29.9 28 40.1 43.5" xml:space="preserve">
<path fill="none" stroke="#FFFFFF" stroke-miterlimit="10" d="M34.9,63.5c0,0.9,0.4,1.7,1.1,2.3C39.7,69,44.5,71,49.9,71
	s10.2-2,13.9-5.2c0.7-0.6,1.1-1.4,1.1-2.3V36c0-0.9-0.4-1.7-1.1-2.3c-3.7-3.2-8.6-5.2-13.9-5.2s-10.2,2-13.9,5.2
	c-0.7,0.6-1.1,1.4-1.1,2.3V63.5z"/>
<g>
	<path fill="none" stroke="#FFFFFF" stroke-linecap="round" stroke-linejoin="round" stroke-miterlimit="10" d="M61.3,47.6
		c-9.1,1.5-14.1,1.5-23.2,0c-0.3-0.1-0.6-0.4-0.6-0.7c0-1.9,0-3.1,0-4.9c0-0.4,0.4-0.8,0.8-0.7c8.9,1.4,13.9,1.4,22.7,0
		c0.4-0.1,0.8,0.3,0.8,0.7v5C61.9,47.2,61.7,47.5,61.3,47.6z"/>
</g>
<path fill="none" stroke="#FFFFFF" stroke-miterlimit="10" d="M65.1,42.9c0,0,2.8-2.2,3.5-3c0.4,0.8,0.9,1.9,0.9,1.9
	s-2.3,4.1-4.2,4.6C65,45.2,65.1,42.9,65.1,42.9z"/>
<path fill="none" stroke="#FFFFFF" stroke-miterlimit="10" d="M34.9,42.9c0,0-2.8-2.2-3.5-3c-0.4,0.8-0.9,1.9-0.9,1.9
	s2.3,4.1,4.2,4.6C34.9,45.2,34.9,42.9,34.9,42.9z"/>
</svg>
