<?xml version="1.0" encoding="utf-8"?>
<!-- Generator: Adobe Illustrator 17.1.0, SVG Export Plug-In . SVG Version: 6.00 Build 0)  -->
<!DOCTYPE svg PUBLIC "-//W3C//DTD SVG 1.1//EN" "http://www.w3.org/Graphics/SVG/1.1/DTD/svg11.dtd">
<svg version="1.1" id="Layer_1" xmlns="http://www.w3.org/2000/svg" xmlns:xlink="http://www.w3.org/1999/xlink" x="0px" y="0px"
	 viewBox="0 1.7 65.3 61.3" enable-background="new 0 1.7 65.3 61.3" xml:space="preserve">
<g id="PEN_2_1_" enable-background="new    ">
	<g>
		<path fill="#404952" d="M47.7,20.6l-8.4-8.4L13.9,37.5l8.4,8.4L47.7,20.6z M56.2,12.2c1.2-1.2,1.2-3.1,0-4.2l-4.2-4.2
			c-1.2-1.2-3.1-1.2-4.2,0l-6.3,6.3l8.4,8.4L56.2,12.2z M62,57H4c-1.7,0-3,1.3-3,3s1.3,3,3,3h58c1.7,0,3-1.3,3-3S63.7,57,62,57z
			 M11.8,39.6L9,50.8L20.3,48L11.8,39.6z"/>
	</g>
	<g>
		<g>
			<g id="PEN_2_11_">
				<g>
					<path fill="#FFFFFF" d="M46.7,19.6l-8.4-8.4L12.9,36.5l8.4,8.4L46.7,19.6z M55.2,11.2c1.2-1.2,1.2-3.1,0-4.2l-4.2-4.2
						c-1.2-1.2-3.1-1.2-4.2,0l-6.3,6.3l8.4,8.4L55.2,11.2z M61,56H3c-1.7,0-3,1.3-3,3s1.3,3,3,3h58c1.7,0,3-1.3,3-3S62.7,56,61,56z
						 M10.8,38.6L8,49.8L19.3,47L10.8,38.6z"/>
				</g>
			</g>
		</g>
	</g>
</g>
</svg>
