<?xml version="1.0" encoding="utf-8"?>
<!-- Generator: Adobe Illustrator 17.1.0, SVG Export Plug-In . SVG Version: 6.00 Build 0)  -->
<!DOCTYPE svg PUBLIC "-//W3C//DTD SVG 1.1//EN" "http://www.w3.org/Graphics/SVG/1.1/DTD/svg11.dtd">
<svg version="1.1" id="Layer_1" xmlns="http://www.w3.org/2000/svg" xmlns:xlink="http://www.w3.org/1999/xlink" x="0px" y="0px"
	 viewBox="340 10 1820 1470" enable-background="new 340 10 1820 1470" xml:space="preserve">
<g>
	<g>
		<path fill="#404952" d="M2066,671.6H671.3L1145.9,197c35.8-35.8,35.8-91.8,0-127.6c-35.8-35.8-91.8-35.8-127.6,0L391.4,696.3
			c-35.8,35.8-35.8,91.8,0,127.6l626.9,626.9c17.9,17.9,40.3,26.9,62.7,26.9s44.8-9,62.7-26.9c35.8-35.8,35.8-91.8,0-127.6
			L671.3,850.7H2066c49.3,0,89.6-40.3,89.6-89.6S2117.5,671.6,2066,671.6z"/>
	</g>
	<g>
		<path fill="#FFFFFF" d="M2043.7,649.3H648.9l474.6-474.6c35.8-35.8,35.8-91.8,0-127.6c-35.8-35.8-91.8-35.8-127.6,0L369,673.9
			c-35.8,35.8-35.8,91.8,0,127.6l626.9,626.9c17.9,17.9,40.3,26.9,62.7,26.9s44.8-9,62.7-26.9c35.8-35.8,35.8-91.8,0-127.6
			L648.9,828.4h1394.8c49.3,0,89.6-40.3,89.6-89.6S2095.1,649.3,2043.7,649.3z"/>
	</g>
</g>
</svg>
