<?xml version="1.0" encoding="utf-8"?>
<!-- Generator: Adobe Illustrator 17.1.0, SVG Export Plug-In . SVG Version: 6.00 Build 0)  -->
<!DOCTYPE svg PUBLIC "-//W3C//DTD SVG 1.1//EN" "http://www.w3.org/Graphics/SVG/1.1/DTD/svg11.dtd">
<svg version="1.1" id="Calque_1" xmlns="http://www.w3.org/2000/svg" xmlns:xlink="http://www.w3.org/1999/xlink" x="0px" y="0px"
	 viewBox="38.5 28.4 23.1 43.3" enable-background="new 38.5 28.4 23.1 43.3" xml:space="preserve">
<path fill="none" stroke="#0078FF" stroke-linecap="round" stroke-linejoin="round" stroke-miterlimit="10" d="M39,67.7
	c0,0.3,0.2,0.6,0.4,0.7c3.1,1.8,6.6,2.8,10.4,2.8c4,0,7.7-1.1,10.9-3.1c0.2-0.1,0.4-0.4,0.4-0.7V32.6c0-0.3-0.1-0.5-0.4-0.7
	c-3.2-1.9-6.9-3.1-10.9-3.1c-3.8,0-7.4,1-10.4,2.8C39.2,31.8,39,32,39,32.3V67.7z"/>
<path fill="none" stroke="#0078FF" stroke-linecap="round" stroke-linejoin="round" stroke-miterlimit="10" d="M57.7,45.8H41.9
	c-0.4,0-0.8-0.4-0.8-0.8v-9.7c0-0.4,0.4-0.8,0.8-0.8h15.8c0.4,0,0.8,0.4,0.8,0.8V45C58.5,45.4,58.2,45.8,57.7,45.8z"/>
<path fill="none" stroke="#0078FF" stroke-linecap="round" stroke-linejoin="round" stroke-miterlimit="10" d="M44.4,52.5h-2.4
	c-0.4,0-0.8-0.4-0.8-0.8v-2.4c0-0.4,0.4-0.8,0.8-0.8h2.4c0.4,0,0.8,0.4,0.8,0.8v2.4C45.2,52.1,44.8,52.5,44.4,52.5z"/>
<path fill="none" stroke="#0078FF" stroke-linecap="round" stroke-linejoin="round" stroke-miterlimit="10" d="M51.1,52.5h-2.4
	c-0.4,0-0.8-0.4-0.8-0.8v-2.4c0-0.4,0.4-0.8,0.8-0.8h2.4c0.4,0,0.8,0.4,0.8,0.8v2.4C51.9,52.1,51.5,52.5,51.1,52.5z"/>
<path fill="none" stroke="#0078FF" stroke-linecap="round" stroke-linejoin="round" stroke-miterlimit="10" d="M57.7,52.5h-2.4
	c-0.4,0-0.8-0.4-0.8-0.8v-2.4c0-0.4,0.4-0.8,0.8-0.8h2.4c0.4,0,0.8,0.4,0.8,0.8v2.4C58.5,52.1,58.2,52.5,57.7,52.5z"/>
<path fill="none" stroke="#0078FF" stroke-linecap="round" stroke-linejoin="round" stroke-miterlimit="10" d="M44.4,59.2h-2.4
	c-0.4,0-0.8-0.4-0.8-0.8V56c0-0.4,0.4-0.8,0.8-0.8h2.4c0.4,0,0.8,0.4,0.8,0.8v2.4C45.2,58.8,44.8,59.2,44.4,59.2z"/>
<path fill="none" stroke="#0078FF" stroke-linecap="round" stroke-linejoin="round" stroke-miterlimit="10" d="M51.1,59.2h-2.4
	c-0.4,0-0.8-0.4-0.8-0.8V56c0-0.4,0.4-0.8,0.8-0.8h2.4c0.4,0,0.8,0.4,0.8,0.8v2.4C51.9,58.8,51.5,59.2,51.1,59.2z"/>
<path fill="none" stroke="#0078FF" stroke-linecap="round" stroke-linejoin="round" stroke-miterlimit="10" d="M57.7,59.2h-2.4
	c-0.4,0-0.8-0.4-0.8-0.8V56c0-0.4,0.4-0.8,0.8-0.8h2.4c0.4,0,0.8,0.4,0.8,0.8v2.4C58.5,58.8,58.2,59.2,57.7,59.2z"/>
<path fill="none" stroke="#0078FF" stroke-linecap="round" stroke-linejoin="round" stroke-miterlimit="10" d="M51.1,65.9h-9.1
	c-0.4,0-0.8-0.4-0.8-0.8v-2.4c0-0.4,0.4-0.8,0.8-0.8h9.1c0.4,0,0.8,0.4,0.8,0.8v2.4C51.9,65.6,51.5,65.9,51.1,65.9z"/>
<path fill="none" stroke="#0078FF" stroke-linecap="round" stroke-linejoin="round" stroke-miterlimit="10" d="M57.7,65.9h-2.4
	c-0.4,0-0.8-0.4-0.8-0.8v-2.4c0-0.4,0.4-0.8,0.8-0.8h2.4c0.4,0,0.8,0.4,0.8,0.8v2.4C58.5,65.6,58.2,65.9,57.7,65.9z"/>
</svg>
