<?xml version="1.0" encoding="utf-8"?>
<!-- Generator: Adobe Illustrator 17.1.0, SVG Export Plug-In . SVG Version: 6.00 Build 0)  -->
<!DOCTYPE svg PUBLIC "-//W3C//DTD SVG 1.1//EN" "http://www.w3.org/Graphics/SVG/1.1/DTD/svg11.dtd">
<svg version="1.1" id="Calque_1" xmlns="http://www.w3.org/2000/svg" xmlns:xlink="http://www.w3.org/1999/xlink" x="0px" y="0px"
	 viewBox="0 0 711 242" enable-background="new 0 0 711 242" xml:space="preserve">
<g>
	<path fill="#F1F1F1" d="M93.3,5.8c-0.5-0.5-1.2-0.9-1.8-1.5L2.1,95c196.2,193.1,511.6,191,705.1-4.7l-87-85.8
		C474.8,149.5,239.6,150.1,93.3,5.8z"/>
	<path fill="none" stroke="#CCCCCC" stroke-miterlimit="10" d="M93.3,5.8c-0.5-0.5-1.2-0.9-1.8-1.5L2.1,95
		c196.2,193.1,511.6,191,705.1-4.7l-87-85.8C474.8,149.5,239.6,150.1,93.3,5.8z"/>
</g>
<circle fill="none" cx="354.5" cy="-246.8" r="436.5"/>
<text transform="matrix(0.9032 0.4293 -0.4293 0.9032 157.0913 142.8594)"><tspan x="0" y="0" fill="#404952" font-family="'ClearSans-Light'" font-size="36">D</tspan><tspan x="23.4" y="0" fill="#404952" font-family="'ClearSans-Light'" font-size="36" rotate="-3.2">O</tspan><tspan x="48.2" y="-1.4" fill="#404952" font-family="'ClearSans-Light'" font-size="36" rotate="-6.5">N</tspan><tspan x="73.1" y="-4.3" fill="#404952" font-family="'ClearSans-Light'" font-size="36" rotate="-9.8">N</tspan><tspan x="97.7" y="-8.6" fill="#404952" font-family="'ClearSans-Light'" font-size="36" rotate="-12.8">É</tspan><tspan x="118.1" y="-13.3" fill="#404952" font-family="'ClearSans-Light'" font-size="36" rotate="-15.6">E</tspan><tspan x="138.5" y="-18.9" fill="#404952" font-family="'ClearSans-Light'" font-size="36" rotate="-18.5">S</tspan><tspan x="159.4" y="-26" fill="#404952" font-family="'ClearSans-Light'" font-size="36" rotate="-20.6"> </tspan><tspan x="168.8" y="-29.5" fill="#404952" font-family="'ClearSans-Light'" font-size="36" rotate="-22.7">D</tspan><tspan x="190.5" y="-38.4" fill="#404952" font-family="'ClearSans-Light'" font-size="36" rotate="-26.4">U</tspan><tspan x="212.6" y="-49.4" fill="#404952" font-family="'ClearSans-Bold'" font-size="36" rotate="-28"> </tspan><tspan x="220.8" y="-53.6" fill="#404952" font-family="'ClearSans-Bold'" font-size="36" rotate="-30.1">B</tspan><tspan x="241" y="-65.5" fill="#404952" font-family="'ClearSans-Bold'" font-size="36" rotate="-32.7">I</tspan><tspan x="254.5" y="-74.1" fill="#404952" font-family="'ClearSans-Bold'" font-size="36" rotate="-35.1">E</tspan><tspan x="271.7" y="-86.2" fill="#404952" font-family="'ClearSans-Bold'" font-size="36" rotate="-38.2">N</tspan><tspan x="291.7" y="-102.1" fill="#404952" font-family="'ClearSans-Bold'" font-size="36" rotate="-40.9">-</tspan><tspan x="302.6" y="-111.5" fill="#404952" font-family="'ClearSans-Bold'" font-size="36" rotate="-43.2">Ê</tspan><tspan x="317.9" y="-125.8" fill="#404952" font-family="'ClearSans-Bold'" font-size="36" rotate="-46">T</tspan><tspan x="333.1" y="-141.6" fill="#404952" font-family="'ClearSans-Bold'" font-size="36" rotate="-49">R</tspan><tspan x="348.4" y="-159.3" fill="#404952" font-family="'ClearSans-Bold'" font-size="36" rotate="-51.9">E</tspan></text>
</svg>
