<?xml version="1.0" encoding="utf-8"?>
<!-- Generator: Adobe Illustrator 17.1.0, SVG Export Plug-In . SVG Version: 6.00 Build 0)  -->
<!DOCTYPE svg PUBLIC "-//W3C//DTD SVG 1.1//EN" "http://www.w3.org/Graphics/SVG/1.1/DTD/svg11.dtd">
<svg version="1.1" id="Layer_1" xmlns="http://www.w3.org/2000/svg" xmlns:xlink="http://www.w3.org/1999/xlink" x="0px" y="0px"
	 viewBox="0 0 97 83" enable-background="new 0 0 97 83" xml:space="preserve">
<g>
	<g>
		<path fill="#404952" d="M49,74L10,54.5L1,59l48,24l48-24l-9-4.5L49,74z M49,57L10,37.5L1,42l48,24l48-24l-9-4.5L49,57z M97,25
			L49,1L1,25l48,24L97,25z M49,9.9L79.1,25L49,40.1L18.9,25L49,9.9z"/>
	</g>
	<g>
		<path fill="#F1F1F1" d="M48,73L9,53.5L0,58l48,24l48-24l-9-4.5L48,73z M48,56L9,36.5L0,41l48,24l48-24l-9-4.5L48,56z M96,24L48,0
			L0,24l48,24L96,24z M48,8.9L78.1,24L48,39.1L17.9,24L48,8.9z"/>
	</g>
</g>
</svg>
