<?xml version="1.0" encoding="utf-8"?>
<!-- Generator: Adobe Illustrator 17.1.0, SVG Export Plug-In . SVG Version: 6.00 Build 0)  -->
<!DOCTYPE svg PUBLIC "-//W3C//DTD SVG 1.1//EN" "http://www.w3.org/Graphics/SVG/1.1/DTD/svg11.dtd">
<svg version="1.1" id="Calque_1" xmlns="http://www.w3.org/2000/svg" xmlns:xlink="http://www.w3.org/1999/xlink" x="0px" y="0px"
	 viewBox="32.5 29.1 35.3 40.9" enable-background="new 32.5 29.1 35.3 40.9" xml:space="preserve">
<path fill="none" stroke="#0078FF" stroke-linejoin="round" stroke-miterlimit="10" d="M51.1,47.2c2.2-3.7,5.6-10.4,7.6-14.6
	c0.2-0.4,0-0.9-0.4-1.1c-2.7-1.2-5.7-1.9-8.8-1.9c-5.3,0-10.1,1.9-13.8,5.1c-0.1,0.1-0.2,0.3-0.3,0.5c-1.1,6.6-2.5,15.9-2.4,22
	c0,0.4,0.3,0.7,0.7,0.8c3.4,0.3,9.7-0.4,12.3-0.9c0.6-0.1,1,0.3,1,0.9c-0.3,2.4-0.8,6.6-1.6,10.3c-0.3,1.4,0.3,1.8,1.3,0.7
	C52,63.6,63.1,50.9,67,44.2c0.6-1,0.1-1.5-0.9-1.2c-3.5,1.1-10.1,3.6-14,5.3C50.8,48.9,50.4,48.4,51.1,47.2z"/>
</svg>
