<?xml version="1.0" encoding="utf-8"?>
<!-- Generator: Adobe Illustrator 17.1.0, SVG Export Plug-In . SVG Version: 6.00 Build 0)  -->
<!DOCTYPE svg PUBLIC "-//W3C//DTD SVG 1.1//EN" "http://www.w3.org/Graphics/SVG/1.1/DTD/svg11.dtd">
<svg version="1.1" id="Calque_1" xmlns="http://www.w3.org/2000/svg" xmlns:xlink="http://www.w3.org/1999/xlink" x="0px" y="0px"
	 viewBox="38.5 31.1 24 38.2" enable-background="new 38.5 31.1 24 38.2" xml:space="preserve">
<path fill="none" stroke="#0078FF" stroke-linecap="round" stroke-linejoin="round" stroke-miterlimit="10" d="M39,32.4v12.8
	c0,0.9,0.7,1.5,1.5,1.5"/>
<path fill="none" stroke="#0078FF" stroke-linecap="round" stroke-linejoin="round" stroke-miterlimit="10" d="M40.6,46.8
	c0.9,0,1.5,0.7,1.5,1.5v18.6"/>
<line fill="none" stroke="#0078FF" stroke-linecap="round" stroke-linejoin="round" stroke-miterlimit="10" x1="44.7" y1="32.4" x2="44.7" y2="42.1"/>
<line fill="none" stroke="#0078FF" stroke-linecap="round" stroke-linejoin="round" stroke-miterlimit="10" x1="41.8" y1="32.4" x2="41.8" y2="42.1"/>
<path fill="none" stroke="#0078FF" stroke-linecap="round" stroke-linejoin="round" stroke-miterlimit="10" d="M47.5,32.4v12.8
	c0,0.9-0.7,1.5-1.5,1.5"/>
<path fill="none" stroke="#0078FF" stroke-linecap="round" stroke-linejoin="round" stroke-miterlimit="10" d="M46,46.8
	c-0.9,0-1.5,0.7-1.5,1.5v18.6"/>
<path fill="none" stroke="#0078FF" stroke-linecap="round" stroke-linejoin="round" stroke-miterlimit="10" d="M44.4,66.9
	c0,0.6-0.5,1.2-1.2,1.2S42,67.6,42,66.9"/>
<path fill="none" stroke="#0078FF" stroke-linecap="round" stroke-linejoin="round" stroke-miterlimit="10" d="M58.2,47.5
	c0.9,0,1.5,0.7,1.5,1.5v18.6"/>
<path fill="none" stroke="#0078FF" stroke-linecap="round" stroke-linejoin="round" stroke-miterlimit="10" d="M62,67.6V49V32.8
	c0-1.4-1.9-1.7-2.4-0.5l-3,13.7c0,0.9,0.7,1.5,1.5,1.5"/>
<path fill="none" stroke="#0078FF" stroke-linecap="round" stroke-linejoin="round" stroke-miterlimit="10" d="M62,67.6
	c0,0.6-0.5,1.2-1.2,1.2c-0.6,0-1.2-0.5-1.2-1.2"/>
</svg>
