<?xml version="1.0" encoding="utf-8"?>
<!-- Generator: Adobe Illustrator 17.1.0, SVG Export Plug-In . SVG Version: 6.00 Build 0)  -->
<!DOCTYPE svg PUBLIC "-//W3C//DTD SVG 1.1//EN" "http://www.w3.org/Graphics/SVG/1.1/DTD/svg11.dtd">
<svg version="1.1" id="Calque_1" xmlns="http://www.w3.org/2000/svg" xmlns:xlink="http://www.w3.org/1999/xlink" x="0px" y="0px"
	 viewBox="41.9 30.3 80.2 96.5" enable-background="new 41.9 30.3 80.2 96.5" xml:space="preserve">
<g>
	<path fill="none" stroke="#0078FF" stroke-linecap="round" stroke-linejoin="round" stroke-miterlimit="10" d="M105.6,104.7
		c0,0-9-20.8-11.5-27.5c-2.3-6.7-0.9-11.1-0.9-11.1l2.8-9c0-0.2,0-0.5-0.2-0.2c-4.8,2.8-12.5,4.6-21.2,4.6c-8.3,0-15.9-1.6-20.8-4.2
		c-0.2-0.2-0.5,0-0.2,0.2l2.8,8.8c0,0,1.4,4.4-0.9,11.1C53,84.2,43.7,105,43.7,105s-5.1,9.2,4.6,14.5c0,0,10.6,6.7,26.1,6.7h0.2
		c15.7,0,26.1-6.7,26.1-6.7C110.7,114,105.6,104.7,105.6,104.7z"/>
	<path fill="none" stroke="#0078FF" stroke-linecap="round" stroke-linejoin="round" stroke-miterlimit="10" d="M74.7,56.7
		c-14.5,0-26.3-5.8-26.3-12.9s11.8-12.9,26.3-12.9c0,0,36-3.5,46.9,35.6c0,0.2-0.2,0.5-0.5,0.2c-3.5-9.2-11.5-22.2-27.9-14.5
		C89.7,53.9,81.9,56.7,74.7,56.7z"/>
</g>
</svg>
