<?xml version="1.0" encoding="utf-8"?>
<!-- Generator: Adobe Illustrator 17.1.0, SVG Export Plug-In . SVG Version: 6.00 Build 0)  -->
<!DOCTYPE svg PUBLIC "-//W3C//DTD SVG 1.1//EN" "http://www.w3.org/Graphics/SVG/1.1/DTD/svg11.dtd">
<svg version="1.1" id="Calque_1" xmlns="http://www.w3.org/2000/svg" xmlns:xlink="http://www.w3.org/1999/xlink" x="0px" y="0px"
	 viewBox="30.5 28.7 37.9 38.2" enable-background="new 30.5 28.7 37.9 38.2" xml:space="preserve">
<path fill="none" stroke="#0078FF" stroke-miterlimit="10" d="M58.6,54.7c-0.1,0.1-0.2,0.3-0.2,0.4c0.1,0.9,0.6,3.5,0,4.1
	c-1.1,1-2,0.1-3-2.6c-1-2.8-3.2-11.2-14.9-12.8c-0.5,0.2-0.8,1.8-0.3,2.1c0,0,10.9,1.8,12,12.2c1.2,10.5,17.3,12.5,15.7-2.9
	c0-0.1-0.1-0.2-0.1-0.3"/>
<path fill="none" stroke="#0078FF" stroke-miterlimit="10" d="M58.4,54.9c0,0,3.4,2.6,9.4,0.1"/>
<path fill="none" stroke="#0078FF" stroke-miterlimit="10" d="M62,53.6c-1.1,0.1-2.2,0.2-3.4,1.1c-0.1,0.1-0.2,0.3-0.2,0.4
	c0.1,0.9,0.6,3.5,0,4.1c-1.1,1-2,0.1-3-2.6c-1-2.8-3.2-11.2-14.9-12.8c-0.5,0.2-0.8,1.8-0.3,2.1c0,0,10.9,1.8,12,12.2
	c1.2,10.5,17.3,12.5,15.7-2.9c0-0.1-0.1-0.2-0.1-0.3C67.7,54.9,67.1,53.3,62,53.6z"/>
<path fill="none" stroke="#0078FF" stroke-miterlimit="10" d="M49.5,47.4c2.1-1.7,5-3,9-3.6c0.5,0.2,0.8,1.8,0.3,2.1
	c0,0-3.9,0.6-7.3,3.4"/>
<path fill="none" stroke="#0078FF" stroke-miterlimit="10" d="M47.4,49.4c-2.4,2.8-3.2,5.8-3.8,7.3c-1,2.8-1.9,3.6-3,2.6
	c-0.7-0.6-0.1-3.2,0-4.1c0-0.2-0.1-0.3-0.2-0.4c0,0-1.9-1.4-5.7-1.1c-2.9,0.2-3.1,0.9-3.4,1.2c-0.1,0.1-0.1,0.2-0.1,0.3
	c-1.6,15.5,14.5,13.4,15.7,2.9c0.3-2.8,1.3-5,2.7-6.7"/>
<path fill="none" stroke="#0078FF" stroke-miterlimit="10" d="M31.2,54.9c0,0,3.8,2.6,9.4,0.1"/>
<path fill="none" stroke="#0078FF" stroke-linejoin="round" stroke-miterlimit="10" d="M37.6,51.9c0.9-0.2,0-2,0.2-4.2
	c0.9-9.2,5.9-6.8,9.6-10.1s2.9-1.1,3-0.9c0.1,0.2-1.3,4.2,4.9,3.2c6.2-1,7.5,5.9,6.8,11.6c-0.1,0.7,3.1,0.7,3.2,0.1s1.8-6,1.9-9.5
	c0.2-4.2-4.8-12.9-17.9-12.9s-16.5,9.5-15.9,13.6c0.5,3.2,0.7,7.3,0.7,9C34.2,51.8,35.3,52.4,37.6,51.9z"/>
<path fill="none" stroke="#0078FF" stroke-miterlimit="10" d="M67.5,52.1"/>
</svg>
