<?xml version="1.0" encoding="utf-8"?>
<!-- Generator: Adobe Illustrator 17.1.0, SVG Export Plug-In . SVG Version: 6.00 Build 0)  -->
<!DOCTYPE svg PUBLIC "-//W3C//DTD SVG 1.1//EN" "http://www.w3.org/Graphics/SVG/1.1/DTD/svg11.dtd">
<svg version="1.1" id="Calque_1" xmlns="http://www.w3.org/2000/svg" xmlns:xlink="http://www.w3.org/1999/xlink" x="0px" y="0px"
	 viewBox="28.3 28.6 43.5 42.9" enable-background="new 28.3 28.6 43.5 42.9" xml:space="preserve">
<g>
	<path fill="none" stroke="#0078FF" stroke-miterlimit="10" d="M67.6,47.5c1.8,0,3-1.7,2.5-3.5c-2.6-8.6-10.5-14.9-20-14.9
		s-17.5,6.3-20,15c-0.5,1.7,0.8,3.4,2.5,3.4H67.6z"/>
	<path fill="none" stroke="#0078FF" stroke-linejoin="round" stroke-miterlimit="10" d="M52.7,58.1l-3.5,4.5c-0.4,0.5-1.1,0.5-1.5,0
		l-3.5-4.4l0,0h-9.9c-1.6,0-2.6,1.7-1.7,3.1c3.7,5.8,10.2,9.7,17.6,9.7s14-3.9,17.7-9.8c0.8-1.3-0.2-3.1-1.7-3.1L52.7,58.1
		L52.7,58.1z"/>
	<circle fill="none" stroke="#0078FF" stroke-miterlimit="10" cx="48.2" cy="39.6" r="1.2"/>
	<circle fill="none" stroke="#0078FF" stroke-miterlimit="10" cx="56" cy="38.6" r="1.2"/>
	<circle fill="none" stroke="#0078FF" stroke-miterlimit="10" cx="63" cy="39.5" r="1.2"/>
	<circle fill="none" stroke="#0078FF" stroke-miterlimit="10" cx="57.6" cy="34" r="1.2"/>
	<circle fill="none" stroke="#0078FF" stroke-miterlimit="10" cx="50.6" cy="33" r="1.2"/>
	<circle fill="none" stroke="#0078FF" stroke-miterlimit="10" cx="44.2" cy="34" r="1.2"/>
	<circle fill="none" stroke="#0078FF" stroke-miterlimit="10" cx="36.7" cy="40.8" r="1.2"/>
	<path fill="none" stroke="#0078FF" stroke-linejoin="round" stroke-miterlimit="10" d="M38.3,55.5h-7c-1.4,0-2.5-1.2-2.5-2.8l0,0
		c0-1.5,1.1-2.8,2.5-2.8h3.8l0,0L38.3,55.5c0.3,0.3,0.9,0.3,1.2,0l3.9-5.6l0,0h12h0.1l3.4,3c0.4,0.4,1,0.3,1.3,0l2.9-3h0.1h5.6
		c1.4,0,2.5,1.2,2.5,2.8l0,0c0,1.5-1.1,2.8-2.5,2.8h-29"/>
</g>
</svg>
