<?xml version="1.0" encoding="utf-8"?>
<!-- Generator: Adobe Illustrator 17.1.0, SVG Export Plug-In . SVG Version: 6.00 Build 0)  -->
<!DOCTYPE svg PUBLIC "-//W3C//DTD SVG 1.1//EN" "http://www.w3.org/Graphics/SVG/1.1/DTD/svg11.dtd">
<svg version="1.1" id="Calque_1" xmlns="http://www.w3.org/2000/svg" xmlns:xlink="http://www.w3.org/1999/xlink" x="0px" y="0px"
	 viewBox="28.8 34.8 42.1 30.1" enable-background="new 28.8 34.8 42.1 30.1" xml:space="preserve">
<g>
	<path fill="none" stroke="#0078FF" stroke-miterlimit="10" d="M29.8,43.2l11.4-7.6c0.1-0.1,0.4-0.2,0.6-0.2l16,0.2
		c0.2,0,0.4,0.1,0.5,0.2L69.9,43c0.6,0.4,0.7,1.1,0.2,1.6L50.5,64.1c-0.4,0.4-1,0.4-1.4,0L29.7,44.7C29.2,44.2,29.3,43.5,29.8,43.2z
		"/>
	<path fill="none" stroke="#0078FF" stroke-miterlimit="10" d="M58.1,35.6l-7.9,3.3c-0.2,0.1-0.6,0.1-0.8,0l-6.2-2.7
		c-1-0.4-1.6,0.1-1.4,1.1l2,10.3c0,0,0,0.1,0,0.1l5,14.9c0.5,1.5,1.4,1.5,1.9,0l5.4-15"/>
	<path fill="none" stroke="#0078FF" stroke-miterlimit="10" d="M29.6,43.8l14.2,3.7c0.1,0,0.2,0,0.2,0h12c0.1,0,0.2,0,0.3,0l14-3.9"
		/>
	<path fill="none" stroke="#0078FF" stroke-miterlimit="10" d="M43.9,47.6"/>
	<line fill="none" stroke="#0078FF" stroke-miterlimit="10" x1="58.1" y1="35.8" x2="56.1" y2="47.6"/>
	<path fill="none" stroke="#0078FF" stroke-miterlimit="10" d="M43.9,47.6l5.1-7.4c0.4-0.6,1.2-0.6,1.6,0l5.4,7.3"/>
</g>
</svg>
