<?xml version="1.0" encoding="utf-8"?>
<!-- Generator: Adobe Illustrator 17.1.0, SVG Export Plug-In . SVG Version: 6.00 Build 0)  -->
<!DOCTYPE svg PUBLIC "-//W3C//DTD SVG 1.1//EN" "http://www.w3.org/Graphics/SVG/1.1/DTD/svg11.dtd">
<svg version="1.1" id="Calque_1" xmlns="http://www.w3.org/2000/svg" xmlns:xlink="http://www.w3.org/1999/xlink" x="0px" y="0px"
	 viewBox="31.7 27.9 34.9 43.5" enable-background="new 31.7 27.9 34.9 43.5" xml:space="preserve">
<path fill="none" stroke="#0078FF" stroke-linejoin="round" stroke-miterlimit="10" d="M66.1,37.8c0-0.7-0.2-1.4-0.7-1.9
	c-3.9-4.6-9.7-7.5-16.2-7.5c0,2.1,0,5,0,7c-1,0-1.9,0-3.6-0.1c-1.3,0,0.4-3-1.4-3c-3.3,0.1-11.2-0.1-11.5,0.3
	c-0.4,0.5-0.4,4.7-0.4,5.3v23.3c0,0.7,0.2,1.3,0.6,1.9c3.9,4.7,9.8,7.7,16.4,7.7c6.5,0,12.3-2.9,16.2-7.5c0.4-0.5,0.7-1.2,0.7-1.9
	V37.8z"/>
<path fill="none" stroke="#0078FF" stroke-linejoin="round" stroke-miterlimit="10" d="M52.6,30.9c2.5,0.4,8.3,1.7,10.4,6.2
	c0,0.1,0.1,0.2,0.1,0.3c0.1,0.6,0.2,1.4,0.2,2.1c0,1-1.2,1.4-1.8,0.7c-1.5-1.9-4.1-3.9-9-4.1c-0.5,0-0.9-0.5-1-1
	c-0.1-1.2-0.1-2.4-0.1-3.2C51.4,31.3,52,30.8,52.6,30.9z"/>
<line fill="none" stroke="#0078FF" stroke-linecap="round" stroke-linejoin="round" stroke-miterlimit="10" x1="42.8" y1="56.1" x2="56.1" y2="42.8"/>
<line fill="none" stroke="#0078FF" stroke-linecap="round" stroke-linejoin="round" stroke-miterlimit="10" x1="42.8" y1="42.8" x2="56.1" y2="56.1"/>
</svg>
