<?xml version="1.0" encoding="utf-8"?>
<!-- Generator: Adobe Illustrator 17.1.0, SVG Export Plug-In . SVG Version: 6.00 Build 0)  -->
<!DOCTYPE svg PUBLIC "-//W3C//DTD SVG 1.1//EN" "http://www.w3.org/Graphics/SVG/1.1/DTD/svg11.dtd">
<svg version="1.1" id="Calque_1" xmlns="http://www.w3.org/2000/svg" xmlns:xlink="http://www.w3.org/1999/xlink" x="0px" y="0px"
	 viewBox="28.6 28.6 42.2 42.2" enable-background="new 28.6 28.6 42.2 42.2" xml:space="preserve">
<g>
	<path fill="none" d="M34.4,42.3l-0.8,0.8c-0.3,0.3-0.3,0.8,0,1.1l3,3l1.9-1.9l-3-3C35.2,42,34.7,42,34.4,42.3z"/>
	<path fill="none" d="M40.3,36.4l-0.8,0.8c-0.3,0.3-0.3,0.8,0,1.1l3,3l1.9-1.9l-3-3C41.1,36.1,40.6,36.1,40.3,36.4z"/>
	<rect x="31.9" y="53.8" transform="matrix(0.7071 -0.7071 0.7071 0.7071 -28.2628 39.2835)" fill="none" width="2.7" height="0"/>
	
		<rect x="37.7" y="52.5" transform="matrix(0.7071 0.7071 -0.7071 0.7071 51.3045 -16.1623)" fill="none" width="14.9" height="2.7"/>
	
		<rect x="31.8" y="58.4" transform="matrix(0.7071 0.7071 -0.7071 0.7071 53.7454 -10.2706)" fill="none" width="14.9" height="2.7"/>
	<path fill="none" d="M68.2,54.1l0.8-0.8c0.3-0.3,0.3-0.8,0-1.1L65.8,49l-1.9,1.9l3.2,3.2C67.4,54.4,67.9,54.4,68.2,54.1z"/>
	<rect x="34.8" y="55" transform="matrix(0.7071 0.7071 -0.7071 0.7071 52.5246 -13.2163)" fill="none" width="14.9" height="3.6"/>
	<rect x="34.4" y="50.8" transform="matrix(0.7071 -0.7071 0.7071 0.7071 -25.3168 40.5036)" fill="none" width="3.6" height="0"/>
	<path fill="none" d="M46.2,30.5l-0.8,0.8c-0.3,0.3-0.3,0.8,0,1.1l3,3l1.9-1.9l-3-3C47,30.2,46.5,30.2,46.2,30.5z"/>
	<rect x="49.6" y="36.1" transform="matrix(0.7071 -0.7071 0.7071 0.7071 -10.585 46.6052)" fill="none" width="2.7" height="0"/>
	<rect x="52.2" y="33.2" transform="matrix(0.7071 -0.7071 0.7071 0.7071 -7.7271 47.7892)" fill="none" width="3.3" height="0"/>
	<rect x="37.8" y="47.9" transform="matrix(0.7071 -0.7071 0.7071 0.7071 -22.3701 41.724)" fill="none" width="2.7" height="0"/>
	<rect x="46.2" y="39" transform="matrix(0.7071 -0.7071 0.7071 0.7071 -13.531 45.3851)" fill="none" width="3.6" height="0"/>
	<rect x="40.3" y="44.9" transform="matrix(0.7071 -0.7071 0.7071 0.7071 -19.424 42.9447)" fill="none" width="3.6" height="0"/>
	<rect x="43.7" y="42" transform="matrix(0.7071 -0.7071 0.7071 0.7071 -16.477 44.165)" fill="none" width="2.7" height="0"/>
	<rect x="65.5" y="44.1" transform="matrix(0.7071 0.7071 -0.7071 0.7071 51.81 -33.5274)" fill="none" width="1.7" height="3.3"/>
	
		<rect x="59.7" y="49.8" transform="matrix(0.7071 0.7071 -0.7071 0.7071 54.2141 -27.7234)" fill="none" width="1.7" height="3.6"/>
	
		<rect x="56.8" y="53.2" transform="matrix(0.7071 0.7071 -0.7071 0.7071 55.4342 -24.7775)" fill="none" width="1.7" height="2.7"/>
	<rect x="50.9" y="59" transform="matrix(0.7071 0.7071 -0.7071 0.7071 57.8751 -18.8844)" fill="none" width="1.7" height="2.7"/>
	<rect x="48" y="61.6" transform="matrix(0.7071 0.7071 -0.7071 0.7071 59.0956 -15.9376)" fill="none" width="1.7" height="3.6"/>
	
		<rect x="62.7" y="47.3" transform="matrix(0.7071 0.7071 -0.7071 0.7071 52.9932 -30.6692)" fill="none" width="1.7" height="2.7"/>
	<path fill="none" d="M58,56.8l3.2,3.2c0.3,0.3,0.8,0.3,1.1,0l0.8-0.8c0.3-0.3,0.3-0.8,0-1.1l-3.2-3.2L58,56.8z"/>
	<path fill="none" d="M52.1,62.7l3.2,3.2c0.3,0.3,0.8,0.3,1.1,0l0.8-0.8c0.3-0.3,0.3-0.8,0-1.1L54,60.7L52.1,62.7z"/>
	
		<rect x="46.5" y="43.2" transform="matrix(0.7071 0.7071 -0.7071 0.7071 47.6431 -25.0021)" fill="none" width="14.9" height="3.6"/>
	<rect x="45" y="64.9" transform="matrix(0.7071 0.7071 -0.7071 0.7071 60.3156 -12.9916)" fill="none" width="1.7" height="2.7"/>
	
		<rect x="43.6" y="46.6" transform="matrix(0.7071 0.7071 -0.7071 0.7071 48.8635 -22.0554)" fill="none" width="14.9" height="2.7"/>
	
		<rect x="49.5" y="40.7" transform="matrix(0.7071 0.7071 -0.7071 0.7071 46.423 -27.9481)" fill="none" width="14.9" height="2.7"/>
	
		<rect x="52.3" y="37.5" transform="matrix(0.7071 0.7071 -0.7071 0.7071 45.2391 -30.806)" fill="none" width="14.9" height="3.3"/>
	<path fill="#0078FF" d="M31.4,53.8l1.9-1.9l0.7-0.7l2.5-2.5l0.7-0.7l1.9-1.9l0.7-0.7l2.5-2.5l0.7-0.7l1.9-1.9l0.7-0.7l2.5-2.5
		l0.7-0.7l1.9-1.9l0.7-0.7l2.4-2.4l0.7-0.7l0.4-0.4l0.6-0.6c-0.4-0.1-0.8-0.2-1.1-0.3l-0.6,0.6l-0.8-0.8c-0.5-0.1-1.1-0.2-1.6-0.2
		l1.8,1.8L51,32.8l-3-3c-0.7-0.7-1.8-0.7-2.5,0l-0.8,0.8c-0.7,0.7-0.7,1.8,0,2.5l3,3l-2.5,2.5l-3-3c-0.7-0.7-1.8-0.7-2.5,0l-0.8,0.8
		c-0.7,0.7-0.7,1.8,0,2.5l3,3l-2.5,2.5l-3-3c-0.7-0.7-1.8-0.7-2.5,0l-0.8,0.8c-0.7,0.7-0.7,1.8,0,2.5l3,3l-2.5,2.5l-3-3
		c-0.4-0.4-1.1-0.6-1.6-0.5c0,0.4-0.1,0.8-0.1,1.1c0.3-0.3,0.8-0.3,1,0l3,3l-1.9,1.9L28.6,51c0,0.5,0.1,1,0.2,1.6l1.2,1.2l-0.8,0.8
		c0.1,0.4,0.2,0.8,0.3,1.1l1.3-1.3L31.4,53.8z M36.6,47.2l-3-3c-0.3-0.3-0.3-0.8,0-1.1l0.8-0.8c0.3-0.3,0.8-0.3,1.1,0l3,3L36.6,47.2
		z M42.5,41.3l-3-3c-0.3-0.3-0.3-0.8,0-1.1l0.8-0.8c0.3-0.3,0.8-0.3,1.1,0l3,3L42.5,41.3z M48.3,35.4l-3-3c-0.3-0.3-0.3-0.8,0-1.1
		l0.8-0.8c0.3-0.3,0.8-0.3,1.1,0l3,3L48.3,35.4z"/>
	<path fill="#0078FF" d="M66.3,36.6L62.7,33c-1.2-0.9-2.5-1.7-3.8-2.4l9.7,9.7C68,39.1,67.3,37.8,66.3,36.6z"/>
	<g>
		<polygon fill="none" points="63.1,50.2 63.1,50.2 65.1,48.2 65.1,48.2 63.6,49.6 		"/>
		<polygon fill="none" points="65.8,47.5 65.8,47.5 68.1,45.2 68.1,45.2 66.3,47 		"/>
		<polygon fill="none" points="59.9,53.4 59.9,53.4 62.4,50.9 62.4,50.9 60.4,52.9 		"/>
		
			<rect x="34.8" y="55" transform="matrix(0.7071 0.7071 -0.7071 0.7071 52.5246 -13.2163)" fill="none" width="14.9" height="3.6"/>
		
			<rect x="37.7" y="52.5" transform="matrix(0.7071 0.7071 -0.7071 0.7071 51.3045 -16.1623)" fill="none" width="14.9" height="2.7"/>
		<polygon fill="none" points="57.2,56.1 57.2,56.1 59.2,54.1 59.2,54.1 57.8,55.5 		"/>
		
			<rect x="31.8" y="58.4" transform="matrix(0.7071 0.7071 -0.7071 0.7071 53.7454 -10.2706)" fill="none" width="14.9" height="2.7"/>
		<polygon fill="none" points="45.4,67.9 45.5,67.9 47.4,65.9 47.4,65.9 46,67.3 		"/>
		<polygon fill="none" points="54,59.3 54,59.3 56.5,56.8 56.5,56.8 54.5,58.8 		"/>
		<polygon fill="none" points="51.3,62 51.3,62 53.3,60 53.3,60 51.9,61.4 		"/>
		<polygon fill="none" points="48.1,65.2 48.1,65.2 50.6,62.7 50.6,62.7 48.6,64.7 		"/>
		<path fill="none" d="M58,56.8l3.2,3.2c0.3,0.3,0.8,0.3,1.1,0l0.8-0.8c0.3-0.3,0.3-0.8,0-1.1l-3.2-3.2L58,56.8z"/>
		<path fill="none" d="M52.1,62.7l3.2,3.2c0.3,0.3,0.8,0.3,1.1,0l0.8-0.8c0.3-0.3,0.3-0.8,0-1.1L54,60.7L52.1,62.7z"/>
		
			<rect x="52.3" y="37.5" transform="matrix(0.7071 0.7071 -0.7071 0.7071 45.2391 -30.806)" fill="none" width="14.9" height="3.3"/>
		<path fill="none" d="M68.2,54.1l0.8-0.8c0.3-0.3,0.3-0.8,0-1.1L65.8,49l-1.9,1.9l3.2,3.2C67.4,54.4,67.9,54.4,68.2,54.1z"/>
		
			<rect x="40.7" y="49.1" transform="matrix(0.7071 0.7071 -0.7071 0.7071 50.0842 -19.1093)" fill="none" width="14.9" height="3.6"/>
		
			<rect x="46.5" y="43.2" transform="matrix(0.7071 0.7071 -0.7071 0.7071 47.6431 -25.0021)" fill="none" width="14.9" height="3.6"/>
		
			<rect x="49.5" y="40.7" transform="matrix(0.7071 0.7071 -0.7071 0.7071 46.423 -27.9481)" fill="none" width="14.9" height="2.7"/>
		
			<rect x="43.6" y="46.6" transform="matrix(0.7071 0.7071 -0.7071 0.7071 48.8635 -22.0554)" fill="none" width="14.9" height="2.7"/>
		<path fill="#0078FF" d="M43.6,67.4l0.5-0.5l0.2-0.2l0.5-0.5l1.4-1.4l0.5-0.5l0.2-0.2l0.5-0.5l2-2L50,61l0.2-0.2l0.5-0.5l1.4-1.4
			l0.5-0.5l0.2-0.2l0.5-0.5l2-2l0.5-0.5l0.2-0.2l0.5-0.5L58,53l0.5-0.5l0.2-0.2l0.5-0.5l2-2l0.5-0.5L62,49l0.5-0.5l1.4-1.4l0.5-0.5
			l0.2-0.2l0.5-0.5L67,44l0.5-0.5l0.2-0.2l0.5-0.5l0.4-0.4l0.7-0.7c-0.1-0.3-0.3-0.6-0.4-1L67,42.6L56.4,32l1.7-1.7
			c-0.3-0.1-0.7-0.3-1-0.4l-1.4,1.4l0,0L55,32l0,0l-2.4,2.4l0,0l-0.7,0.7l0,0L50,37.1l0,0l-0.7,0.7l0,0l-2.5,2.5l0,0L46,41l0,0
			l-1.9,1.9l0,0l-0.7,0.7l0,0l-2.5,2.5l0,0l-0.7,0.7l0,0l-1.9,1.9l0,0l-0.7,0.7l0,0L35,52.1l0,0l-0.7,0.7l0,0l-1.9,1.9l0,0l-0.7,0.7
			l0,0l-1.7,1.7c0.1,0.3,0.3,0.7,0.4,1l2-2l10.5,10.5l-2.2,2.2c0.3,0.2,0.6,0.3,1,0.4L42,69l0.8-0.8L43.6,67.4z M43.6,66L33,55.4
			l1.9-1.9L45.5,64L43.6,66z M46.2,63.3L35.7,52.8l2.5-2.5l10.5,10.5L46.2,63.3z M49.5,60.1L38.9,49.5l1.9-1.9l10.5,10.5L49.5,60.1z
			 M52.1,57.4L41.6,46.9l2.5-2.5l10.5,10.5L52.1,57.4z M55.4,54.2L44.8,43.7l1.9-1.9l10.5,10.5L55.4,54.2z M58,51.5L47.5,41l2.5-2.5
			L60.5,49L58,51.5z M61.2,48.3L50.7,37.8l1.9-1.9l10.5,10.5L61.2,48.3z M63.9,45.7L53.4,35.1l2.4-2.4l10.5,10.5L63.9,45.7z"/>
		<path fill="#0078FF" d="M66.4,54.8c0.7,0.7,1.8,0.7,2.5,0l0.8-0.8c0.7-0.7,0.7-1.8,0-2.5l-3.2-3.2l2.4-2.4l1.9,1.9
			c0-0.5-0.1-1.1-0.2-1.6l-1-1l0.6-0.6c-0.1-0.4-0.2-0.7-0.3-1.1l-1,1l0,0l-0.2,0.2l-0.5,0.5l0,0l-2.4,2.4l0,0l-0.2,0.2l-0.5,0.5
			l0,0l-1.9,1.9l0,0l-0.2,0.2l-0.5,0.5l0,0l-2.5,2.5l0,0l-0.2,0.2l-0.5,0.5l0,0l-1.9,1.9l0,0L57,56.2l-0.5,0.5l0,0L54,59.3l0,0
			l-0.2,0.2L53.3,60l0,0L51.3,62l0,0l-0.2,0.2l-0.5,0.5l0,0l-2.5,2.5l0,0l-0.2,0.2l-0.5,0.5l0,0l-1.9,1.9l0,0L45.3,68l-0.5,0.5l0,0
			l-1.3,1.3c0.4,0.1,0.7,0.2,1.1,0.3l0.9-0.9l1.4,1.4c0.5,0.1,1,0.1,1.6,0.2l-2.2-2.2l1.9-1.9l3.2,3.2c0.2,0.2,0.3,0.6,0.1,0.9
			c0.4,0,0.7-0.1,1.1-0.1c0.1-0.5-0.1-1.1-0.5-1.5l-3.2-3.2l2.5-2.5l3.2,3.2c0.7,0.7,1.8,0.7,2.5,0l0.8-0.8c0.7-0.7,0.7-1.8,0-2.5
			L54.7,60l2.5-2.5l3.2,3.2c0.7,0.7,1.8,0.7,2.5,0l0.8-0.8c0.7-0.7,0.7-1.8,0-2.5l-3.2-3.2l2.5-2.5L66.4,54.8z M65.8,49l3.2,3.2
			c0.3,0.3,0.3,0.8,0,1.1l-0.8,0.8c-0.3,0.3-0.8,0.3-1.1,0l-3.2-3.2L65.8,49z M57.2,64c0.3,0.3,0.3,0.8,0,1.1l-0.8,0.8
			c-0.3,0.3-0.8,0.3-1.1,0l-3.2-3.2l1.9-1.9L57.2,64z M63.1,58.1c0.3,0.3,0.3,0.8,0,1.1L62.3,60c-0.3,0.3-0.8,0.3-1.1,0l-3.2-3.2
			l1.9-1.9L63.1,58.1z"/>
	</g>
</g>
</svg>
