<?xml version="1.0" encoding="utf-8"?>
<!-- Generator: Adobe Illustrator 17.1.0, SVG Export Plug-In . SVG Version: 6.00 Build 0)  -->
<!DOCTYPE svg PUBLIC "-//W3C//DTD SVG 1.1//EN" "http://www.w3.org/Graphics/SVG/1.1/DTD/svg11.dtd">
<svg version="1.1" id="Calque_1" xmlns="http://www.w3.org/2000/svg" xmlns:xlink="http://www.w3.org/1999/xlink" x="0px" y="0px"
	 viewBox="28.1 31.8 43.9 36.5" enable-background="new 28.1 31.8 43.9 36.5" xml:space="preserve">
<g>
	<path fill="none" stroke="#0078FF" stroke-linecap="round" stroke-linejoin="round" stroke-miterlimit="10" d="M28.6,46.4
		c0,12.6,10.9,22.7,23.9,21.3c10-1.1,17.9-9.2,18.9-19.1c0.5-5.1-0.8-9.8-3.3-13.7c-0.2-0.3-0.5-0.5-0.8-0.5h-0.4
		c-0.4,0-0.7-0.2-0.9-0.5l-0.6-1.1c-0.2-0.3-0.5-0.5-0.9-0.5h-10c-0.3,0-0.6,0.2-0.8,0.4L52.8,34c-0.2,0.3-0.5,0.4-0.8,0.4H32.2
		C29.9,37.8,28.6,41.9,28.6,46.4z"/>
	
		<line fill="none" stroke="#0078FF" stroke-linecap="round" stroke-linejoin="round" stroke-miterlimit="10" x1="38.3" y1="34.4" x2="38.3" y2="64.3"/>
	
		<line fill="none" stroke="#0078FF" stroke-linecap="round" stroke-linejoin="round" stroke-miterlimit="10" x1="43.7" y1="34.4" x2="43.7" y2="66.7"/>
</g>
</svg>
