<?xml version="1.0" encoding="utf-8"?>
<!-- Generator: Adobe Illustrator 17.1.0, SVG Export Plug-In . SVG Version: 6.00 Build 0)  -->
<!DOCTYPE svg PUBLIC "-//W3C//DTD SVG 1.1//EN" "http://www.w3.org/Graphics/SVG/1.1/DTD/svg11.dtd">
<svg version="1.1" id="Calque_1" xmlns="http://www.w3.org/2000/svg" xmlns:xlink="http://www.w3.org/1999/xlink" x="0px" y="0px"
	 viewBox="27.1 31.8 45.8 36.4" enable-background="new 27.1 31.8 45.8 36.4" xml:space="preserve">
<g>
	<path fill="none" stroke="#0078FF" stroke-linecap="round" stroke-linejoin="round" stroke-miterlimit="10" d="M50,37.3
		c3,0,6.7,0.3,8.6,0.4c0.6,0,1,0.6,0.9,1.1c-0.3,2.1-0.2,5.7,0.5,7.9c0.1,0.4,0.4,0.6,0.8,0.7c5.3,0.9,9-0.4,11-1.3
		c0.3-0.2,0.6-0.5,0.6-0.9c0.2-5-2-7.9-3-9.9c-0.1-0.2-0.3-0.4-0.6-0.5C61.9,32.3,50,32.3,50,32.3s-11.9-0.1-18.8,2.5
		c-0.2,0.1-0.4,0.3-0.6,0.5c-1,1.9-3.1,4.8-3,9.9c0,0.4,0.2,0.7,0.6,0.9c2,1,5.7,2.3,11,1.3c0.4-0.1,0.7-0.3,0.8-0.7
		c0.7-2.2,0.8-5.7,0.5-7.9c-0.1-0.6,0.3-1.1,0.9-1.1C43.3,37.5,47,37.3,50,37.3z"/>
	
		<line fill="none" stroke="#0078FF" stroke-linecap="round" stroke-linejoin="round" stroke-miterlimit="10" x1="59.4" y1="40.4" x2="40.6" y2="40.4"/>
	<path fill="none" stroke="#0078FF" stroke-linecap="round" stroke-linejoin="round" stroke-miterlimit="10" d="M36.1,47.7v13.6
		c0,1,0.5,1.9,1.3,2.5c3.6,2.5,7.9,3.9,12.6,3.9c4.6,0,8.9-1.4,12.5-3.8c0.8-0.6,1.3-1.5,1.3-2.5V47.7"/>
	
		<circle fill="none" stroke="#0078FF" stroke-linecap="round" stroke-linejoin="round" stroke-miterlimit="10" cx="50.1" cy="53.2" r="9"/>
	
		<circle fill="none" stroke="#0078FF" stroke-linecap="round" stroke-linejoin="round" stroke-miterlimit="10" cx="50" cy="46.9" r="1.3"/>
	
		<circle fill="none" stroke="#0078FF" stroke-linecap="round" stroke-linejoin="round" stroke-miterlimit="10" cx="46.3" cy="48.1" r="1.3"/>
	
		<circle fill="none" stroke="#0078FF" stroke-linecap="round" stroke-linejoin="round" stroke-miterlimit="10" cx="44" cy="51.3" r="1.3"/>
	
		<circle fill="none" stroke="#0078FF" stroke-linecap="round" stroke-linejoin="round" stroke-miterlimit="10" cx="44.1" cy="55.2" r="1.3"/>
	
		<circle fill="none" stroke="#0078FF" stroke-linecap="round" stroke-linejoin="round" stroke-miterlimit="10" cx="46.4" cy="58.4" r="1.3"/>
	
		<circle fill="none" stroke="#0078FF" stroke-linecap="round" stroke-linejoin="round" stroke-miterlimit="10" cx="50.1" cy="59.5" r="1.3"/>
	
		<circle fill="none" stroke="#0078FF" stroke-linecap="round" stroke-linejoin="round" stroke-miterlimit="10" cx="53.8" cy="58.3" r="1.3"/>
	
		<circle fill="none" stroke="#0078FF" stroke-linecap="round" stroke-linejoin="round" stroke-miterlimit="10" cx="56.1" cy="55.1" r="1.3"/>
	
		<circle fill="none" stroke="#0078FF" stroke-linecap="round" stroke-linejoin="round" stroke-miterlimit="10" cx="56" cy="51.2" r="1.3"/>
	
		<circle fill="none" stroke="#0078FF" stroke-linecap="round" stroke-linejoin="round" stroke-miterlimit="10" cx="53.7" cy="48.1" r="1.3"/>
</g>
</svg>
