<?xml version="1.0" encoding="utf-8"?>
<!-- Generator: Adobe Illustrator 17.1.0, SVG Export Plug-In . SVG Version: 6.00 Build 0)  -->
<!DOCTYPE svg PUBLIC "-//W3C//DTD SVG 1.1//EN" "http://www.w3.org/Graphics/SVG/1.1/DTD/svg11.dtd">
<svg version="1.1" id="Layer_1" xmlns="http://www.w3.org/2000/svg" xmlns:xlink="http://www.w3.org/1999/xlink" x="0px" y="0px"
	 viewBox="0 0 64 80" enable-background="new 0 0 64 80" xml:space="preserve">
<path fill="#404952" d="M28,4v62.3L6.8,45.2c-1.6-1.6-4.1-1.6-5.7,0c-1.6,1.6-1.6,4.1,0,5.7l28,28c1.6,1.6,4.1,1.6,5.7,0l28-28
	C63.6,50,64,49,64,48c0-1-0.4-2-1.2-2.8c-1.6-1.6-4.1-1.6-5.7,0L36,66.3V4c0-2.2-1.8-4-4-4S28,1.8,28,4z"/>
</svg>
