<?xml version="1.0" encoding="utf-8"?>
<!-- Generator: Adobe Illustrator 17.1.0, SVG Export Plug-In . SVG Version: 6.00 Build 0)  -->
<!DOCTYPE svg PUBLIC "-//W3C//DTD SVG 1.1//EN" "http://www.w3.org/Graphics/SVG/1.1/DTD/svg11.dtd">
<svg version="1.1" id="Calque_1" xmlns="http://www.w3.org/2000/svg" xmlns:xlink="http://www.w3.org/1999/xlink" x="0px" y="0px"
	 viewBox="27.5 28.1 44.2 43.7" enable-background="new 27.5 28.1 44.2 43.7" xml:space="preserve">
<path fill="none" stroke="#FFFFFF" stroke-linecap="round" stroke-linejoin="round" stroke-miterlimit="10" d="M46.7,41.2H32.6
	c-1.8,0-3.4,1.2-3.8,2.9c-0.5,1.8-0.7,3.7-0.7,5.6C28,62.1,38.4,72,50.9,71.3c10.6-0.6,19.3-9.1,20.2-19.6c0.2-2.6,0-5.2-0.6-7.5
	c-0.5-1.7-2.1-2.9-3.9-2.9H52.5"/>
<path fill="none" stroke="#FFFFFF" stroke-linecap="round" stroke-linejoin="round" stroke-miterlimit="10" d="M44.2,44.6H36
	c-1.4,0-2.7,0.9-3.1,2.3c-0.4,1.4-0.6,2.9-0.6,4.5c0,3.5,1.1,6.8,2.9,9.5"/>
<path fill="none" stroke="#FFFFFF" stroke-linecap="round" stroke-linejoin="round" stroke-miterlimit="10" d="M63.5,61.5
	c1.8-2.5,3-5.4,3.2-8.6c0.2-2.1,0-4.1-0.5-6c-0.4-1.4-1.6-2.3-3.1-2.3h-8.5"/>
<path fill="none" stroke="#FFFFFF" stroke-linecap="round" stroke-linejoin="round" stroke-miterlimit="10" d="M52.4,41.9V31.4
	c0-1.5-1.2-2.8-2.8-2.8h-0.1c-1.5,0-2.8,1.2-2.8,2.8v10.5c0,0.4-0.2,0.8-0.5,1c-1.4,0.9-2.4,2.6-2.4,4.4v11.5c0,3.1,2.5,5.7,5.7,5.7
	h0.1c3.1,0,5.7-2.5,5.7-5.7V47.3c0-1.8-1-3.5-2.4-4.4C52.6,42.7,52.4,42.3,52.4,41.9z"/>
<line fill="none" stroke="#FFFFFF" stroke-linecap="round" stroke-linejoin="round" stroke-miterlimit="10" x1="43.8" y1="47.3" x2="41.1" y2="47.3"/>
<line fill="none" stroke="#FFFFFF" stroke-linecap="round" stroke-linejoin="round" stroke-miterlimit="10" x1="43.8" y1="50.2" x2="41.1" y2="50.2"/>
<line fill="none" stroke="#FFFFFF" stroke-linecap="round" stroke-linejoin="round" stroke-miterlimit="10" x1="43.8" y1="53.2" x2="41.1" y2="53.2"/>
<line fill="none" stroke="#FFFFFF" stroke-linecap="round" stroke-linejoin="round" stroke-miterlimit="10" x1="43.8" y1="56.2" x2="41.1" y2="56.2"/>
<line fill="none" stroke="#FFFFFF" stroke-linecap="round" stroke-linejoin="round" stroke-miterlimit="10" x1="43.8" y1="59.2" x2="41.1" y2="59.2"/>
<line fill="none" stroke="#FFFFFF" stroke-linecap="round" stroke-linejoin="round" stroke-miterlimit="10" x1="58.1" y1="47.3" x2="55.4" y2="47.3"/>
<line fill="none" stroke="#FFFFFF" stroke-linecap="round" stroke-linejoin="round" stroke-miterlimit="10" x1="58.1" y1="50.2" x2="55.4" y2="50.2"/>
<line fill="none" stroke="#FFFFFF" stroke-linecap="round" stroke-linejoin="round" stroke-miterlimit="10" x1="58.1" y1="53.2" x2="55.4" y2="53.2"/>
<line fill="none" stroke="#FFFFFF" stroke-linecap="round" stroke-linejoin="round" stroke-miterlimit="10" x1="58.1" y1="56.2" x2="55.4" y2="56.2"/>
<line fill="none" stroke="#FFFFFF" stroke-linecap="round" stroke-linejoin="round" stroke-miterlimit="10" x1="58.1" y1="59.2" x2="55.4" y2="59.2"/>
<line fill="none" stroke="#FFFFFF" stroke-linecap="round" stroke-linejoin="round" stroke-miterlimit="10" x1="44.4" y1="61.4" x2="41.7" y2="62.7"/>
<line fill="none" stroke="#FFFFFF" stroke-linecap="round" stroke-linejoin="round" stroke-miterlimit="10" x1="45.8" y1="63.3" x2="43.9" y2="65.6"/>
<line fill="none" stroke="#FFFFFF" stroke-linecap="round" stroke-linejoin="round" stroke-miterlimit="10" x1="47.9" y1="64.5" x2="47.1" y2="67.4"/>
<line fill="none" stroke="#FFFFFF" stroke-linecap="round" stroke-linejoin="round" stroke-miterlimit="10" x1="50.3" y1="64.7" x2="50.8" y2="67.6"/>
<line fill="none" stroke="#FFFFFF" stroke-linecap="round" stroke-linejoin="round" stroke-miterlimit="10" x1="52.5" y1="63.8" x2="54.2" y2="66.2"/>
<line fill="none" stroke="#FFFFFF" stroke-linecap="round" stroke-linejoin="round" stroke-miterlimit="10" x1="54.4" y1="62.1" x2="57" y2="63.6"/>
</svg>
