<?xml version="1.0" encoding="utf-8"?>
<!-- Generator: Adobe Illustrator 17.1.0, SVG Export Plug-In . SVG Version: 6.00 Build 0)  -->
<!DOCTYPE svg PUBLIC "-//W3C//DTD SVG 1.1//EN" "http://www.w3.org/Graphics/SVG/1.1/DTD/svg11.dtd">
<svg version="1.1" id="Calque_1" xmlns="http://www.w3.org/2000/svg" xmlns:xlink="http://www.w3.org/1999/xlink" x="0px" y="0px"
	 viewBox="28.7 34.4 42.7 31.2" enable-background="new 28.7 34.4 42.7 31.2" xml:space="preserve">
<g>
	<path fill="none" stroke="#FFFFFF" stroke-linecap="round" stroke-linejoin="round" stroke-miterlimit="10" d="M29.2,47.1l1.9,0.8
		c0,0,4.1-8.6,7.5-10.6c-0.7-0.7-2.7-2.4-2.7-2.4"/>
	<path fill="none" stroke="#FFFFFF" stroke-linecap="round" stroke-linejoin="round" stroke-miterlimit="10" d="M36,39.7
		c0,0-0.4,0.6,3.6,0s6.5-0.6,10.8,2.4"/>
	<path fill="none" stroke="#FFFFFF" stroke-linecap="round" stroke-linejoin="round" stroke-miterlimit="10" d="M64.5,40.8
		c0,0-1.2,2.2-6.4,1.9s-9.9-1.9-12.5,5.4s2.2,8.1,3.7,4.3s1-4.5,4.8-2.5s10.1,1.9,12.6,1.1"/>
	<path fill="none" stroke="#FFFFFF" stroke-linecap="round" stroke-linejoin="round" stroke-miterlimit="10" d="M66.7,37.5l-2.8,1.1
		c0,0,3.3,11.3,3.1,14.8c1.8-0.2,3.9-0.4,3.9-0.4"/>
	<path fill="none" stroke="#FFFFFF" stroke-linecap="round" stroke-linejoin="round" stroke-miterlimit="10" d="M31.5,47.2
		c0,0,3.9,2.4,5,4.6"/>
	
		<circle fill="none" stroke="#FFFFFF" stroke-linecap="round" stroke-linejoin="round" stroke-miterlimit="10" cx="36.5" cy="54.1" r="1.8"/>
	
		<circle fill="none" stroke="#FFFFFF" stroke-linecap="round" stroke-linejoin="round" stroke-miterlimit="10" cx="39.4" cy="57.3" r="1.8"/>
	
		<circle fill="none" stroke="#FFFFFF" stroke-linecap="round" stroke-linejoin="round" stroke-miterlimit="10" cx="42.7" cy="60.4" r="1.8"/>
	
		<circle fill="none" stroke="#FFFFFF" stroke-linecap="round" stroke-linejoin="round" stroke-miterlimit="10" cx="45.9" cy="63.3" r="1.8"/>
	<path fill="none" stroke="#FFFFFF" stroke-linecap="round" stroke-linejoin="round" stroke-miterlimit="10" d="M50.2,60.4
		c0,0,6.2,3.5,6-1.2"/>
	<path fill="none" stroke="#FFFFFF" stroke-linecap="round" stroke-linejoin="round" stroke-miterlimit="10" d="M53.2,57.3
		c0,0,5.9,4.3,6.3-1.2"/>
	<path fill="none" stroke="#FFFFFF" stroke-linecap="round" stroke-linejoin="round" stroke-miterlimit="10" d="M57.5,54.1
		c0,0,4.2,5.1,5.6-2.4"/>
	<path fill="none" stroke="#FFFFFF" stroke-linecap="round" stroke-linejoin="round" stroke-miterlimit="10" d="M48,63.3
		c0,0,3.7,2.7,4.1-2.1"/>
</g>
</svg>
