<?xml version="1.0" encoding="utf-8"?>
<!-- Generator: Adobe Illustrator 17.1.0, SVG Export Plug-In . SVG Version: 6.00 Build 0)  -->
<!DOCTYPE svg PUBLIC "-//W3C//DTD SVG 1.1//EN" "http://www.w3.org/Graphics/SVG/1.1/DTD/svg11.dtd">
<svg version="1.1" id="Calque_1" xmlns="http://www.w3.org/2000/svg" xmlns:xlink="http://www.w3.org/1999/xlink" x="0px" y="0px"
	 viewBox="31 33.2 38 33.6" enable-background="new 31 33.2 38 33.6" xml:space="preserve">
<g>
	<path fill="none" stroke="#FFFFFF" stroke-miterlimit="10" d="M50,33.7c10,0,12.2,3.7,12.6,4.7c0.1,0.2,0.1,0.3,0.1,0.5
		c0.1,1.8,0.3,4.6,0.4,6.1c0,0.6,0.5,1.2,1.1,1.3c1.6,0.4,4.3,1.8,4.3,6.5v5.1c0,0.6-0.3,1.1-0.8,1.3c-2,1-7.6,3.2-17.7,3.2
		s-15.7-2.1-17.7-3.1c-0.5-0.3-0.8-0.8-0.8-1.3v-5.1c0-4.7,2.8-6.1,4.3-6.5c0.6-0.2,1.1-0.7,1.1-1.3c0.1-1.6,0.3-4.3,0.4-6.1
		c0-0.2,0-0.3,0.1-0.5C37.9,37.4,40.1,33.7,50,33.7z"/>
	<path fill="none" stroke="#FFFFFF" stroke-linecap="round" stroke-linejoin="round" stroke-miterlimit="10" d="M36.9,46.2
		c0,0,5.6,14.8,11.8,14.8"/>
	<path fill="none" stroke="#FFFFFF" stroke-linecap="round" stroke-miterlimit="10" d="M50,53.6v-6.9c0-0.6-0.5-1.1-1.1-1.1
		c-1.9,0-6,0-8.7,0.4c-0.7,0.1-1.3-0.4-1.3-1.1c0-2.2,0.2-5.5,0.5-6c0.5-0.8,1.7-2.7,10.5-2.7"/>
	<path fill="none" stroke="#FFFFFF" stroke-linecap="round" stroke-miterlimit="10" d="M63.2,46.2c0,0-4.2,13.3-11.9,14.7
		C50.6,61,50,60.5,50,59.8"/>
	<path fill="none" stroke="#FFFFFF" stroke-linecap="round" stroke-miterlimit="10" d="M51.8,45.5c0,0,4.4-0.1,8.1,0.4
		c0.7,0.1,1.3-0.4,1.3-1.1c0-2.2-0.2-5.5-0.5-6c-0.5-0.8-1.7-2.7-10.5-2.7"/>
	<circle fill="none" stroke="#FFFFFF" stroke-linecap="round" stroke-miterlimit="10" cx="35.6" cy="53.6" r="2.1"/>
	<circle fill="none" stroke="#FFFFFF" stroke-linecap="round" stroke-miterlimit="10" cx="64.6" cy="53.6" r="2.1"/>
	<path fill="none" stroke="#FFFFFF" stroke-linecap="round" stroke-miterlimit="10" d="M37.8,61.1v3.8c0,0.8-0.6,1.4-1.4,1.4h-1.5
		c-0.8,0-1.4-0.6-1.4-1.4v-5.1"/>
	<path fill="none" stroke="#FFFFFF" stroke-linecap="round" stroke-miterlimit="10" d="M62.5,61.1v3.8c0,0.8,0.6,1.4,1.4,1.4h1.5
		c0.8,0,1.4-0.6,1.4-1.4v-5.1"/>
	<circle fill="none" stroke="#FFFFFF" stroke-linecap="round" stroke-miterlimit="10" cx="50" cy="56.6" r="1.4"/>
	<path fill="none" stroke="#FFFFFF" stroke-linecap="round" stroke-miterlimit="10" d="M53.3,45.4c0-1.3,1.1-2.4,2.4-2.3
		c1.3,0,2.4,1.1,2.3,2.4"/>
	<line fill="none" stroke="#FFFFFF" stroke-linecap="round" stroke-miterlimit="10" x1="49.1" y1="37.4" x2="51.3" y2="37.4"/>
	<circle fill="none" stroke="#FFFFFF" stroke-linecap="round" stroke-miterlimit="10" cx="65.3" cy="44.4" r="0.8"/>
	<circle fill="none" stroke="#FFFFFF" stroke-linecap="round" stroke-miterlimit="10" cx="34.7" cy="44.5" r="0.8"/>
</g>
</svg>
